<?xml version="1.0" encoding="UTF-8"?>
<svg width="80px" height="80px" viewBox="0 0 80 80" version="1.1" xmlns="http://www.w3.org/2000/svg" xmlns:xlink="http://www.w3.org/1999/xlink">
    <title>编组 2</title>
    <g id="页面-1" stroke="none" stroke-width="1" fill="none" fill-rule="evenodd">
        <g id="icon-开源实习-dark-hover">
            <g id="编组-2" transform="translate(11.000000, 13.000000)">
                <g id="编组" transform="translate(49.485281, 8.485281) scale(-1, 1) rotate(-45.000000) translate(-49.485281, -8.485281) translate(45.485281, 0.485281)" stroke="#FFFFFF" stroke-width="2">
                    <circle id="椭圆形" cx="4" cy="4" r="4"></circle>
                    <line x1="4" y1="8" x2="4" y2="16" id="路径-12" stroke-linecap="round" stroke-linejoin="round"></line>
                </g>
                <g id="编组" transform="translate(15.000000, 11.000000)" stroke="#002FA7" stroke-width="2">
                    <path d="M27.0335671,7.28644351 L14.9667138,0.261168689 C14.3685061,-0.0870562297 13.6314939,-0.0870562297 13.0337076,0.261168689 L0.966573341,7.28644351 C0.368365596,7.63466843 0,8.27827534 0,8.97458351 L0,23.0252748 C0,23.7217247 0.368365596,24.3651899 0.966573341,24.7134148 L13.0337076,31.7388313 C13.6314939,32.0870562 14.3685061,32.0870562 14.9667138,31.7388313 L27.0335671,24.7134148 C27.6317749,24.3651899 28,23.7217247 28,23.0252748 L28,8.97458351 C28,8.27827534 27.6317749,7.63466843 27.0335671,7.28644351 Z" id="Stroke-1"></path>
                </g>
                <g id="编组" transform="translate(49.485281, 45.485281) scale(-1, -1) rotate(-45.000000) translate(-49.485281, -45.485281) translate(45.485281, 37.485281)" stroke="#FFFFFF" stroke-width="2">
                    <circle id="椭圆形" cx="4" cy="4" r="4"></circle>
                    <line x1="4" y1="8" x2="4" y2="16" id="路径-12" stroke-linecap="round" stroke-linejoin="round"></line>
                </g>
                <g id="编组" transform="translate(8.485281, 8.485281) rotate(-45.000000) translate(-8.485281, -8.485281) translate(4.485281, 0.485281)" stroke="#FFFFFF" stroke-width="2">
                    <circle id="椭圆形" cx="4" cy="4" r="4"></circle>
                    <line x1="4" y1="8" x2="4" y2="16" id="路径-12" stroke-linecap="round" stroke-linejoin="round"></line>
                </g>
                <g id="编组" transform="translate(8.485281, 45.485281) scale(1, -1) rotate(-45.000000) translate(-8.485281, -45.485281) translate(4.485281, 37.485281)" stroke="#FFFFFF" stroke-width="2">
                    <circle id="椭圆形" cx="4" cy="4" r="4"></circle>
                    <line x1="4" y1="8" x2="4" y2="16" id="路径-12" stroke-linecap="round" stroke-linejoin="round"></line>
                </g>
                <path d="M15,20 L29,28 L29,43 L16.0079504,35.5782373 C15.384672,35.2221869 15,34.5594283 15,33.8416206 L15,20 L15,20 Z" id="矩形" stroke="#002FA7" stroke-width="2" stroke-linejoin="round"></path>
                <path d="M29,20 L43,28 L43,43 L30.0079504,35.5782373 C29.384672,35.2221869 29,34.5594283 29,33.8416206 L29,20 L29,20 Z" id="矩形" stroke="#002FA7" stroke-width="2" stroke-linejoin="round" transform="translate(36.000000, 31.500000) scale(-1, 1) translate(-36.000000, -31.500000) "></path>
                <circle id="椭圆形" fill="#406FE7" opacity="0.400000006" cx="21" cy="19" r="17"></circle>
            </g>
        </g>
    </g>
</svg>