<svg version="1.1" xmlns="http://www.w3.org/2000/svg" width="32" height="32" viewBox="0 0 32 32">
<path fill="#fff" d="M5.333 3.4c-1.043 0-1.893 0.826-1.932 1.859l-0.001 0.074v19c0 1.043 0.826 1.893 1.859 1.932l0.074 0.001h5.694c0.331 0 0.6-0.269 0.6-0.6 0-0.315-0.242-0.573-0.551-0.598l-0.049-0.002h-5.694c-0.387 0-0.705-0.3-0.731-0.681l-0.002-0.052v-19c0-0.387 0.3-0.705 0.681-0.732l0.052-0.002h14.333c0.387 0 0.705 0.3 0.732 0.681l0.002 0.052v7.014c0 0.331 0.269 0.6 0.6 0.6 0.315 0 0.573-0.242 0.598-0.551l0.002-0.049v-7.014c0-1.043-0.826-1.893-1.859-1.932l-0.074-0.001h-14.333z"></path>
<path fill="#fff" d="M25.933 18.668c0-2.172-1.761-3.933-3.933-3.933s-3.933 1.761-3.933 3.933c0 2.172 1.761 3.933 3.933 3.933s3.933-1.761 3.933-3.933zM19.266 18.668c0-1.51 1.224-2.733 2.733-2.733s2.733 1.224 2.733 2.733c0 1.51-1.224 2.733-2.733 2.733s-2.733-1.224-2.733-2.733z"></path>
<path fill="#fff" d="M22 21.4c-3.645 0-6.6 2.955-6.6 6.6 0 0.331 0.269 0.6 0.6 0.6s0.6-0.269 0.6-0.6c0-2.982 2.418-5.4 5.4-5.4s5.4 2.418 5.4 5.4c0 0.331 0.269 0.6 0.6 0.6s0.6-0.269 0.6-0.6c0-3.645-2.955-6.6-6.6-6.6z"></path>
<path fill="#fff" d="M6.604 17.334c-0.276 0-0.5 0.224-0.5 0.5 0 0.26 0.198 0.473 0.452 0.498l0.048 0.002h7.333c0.276 0 0.5-0.224 0.5-0.5 0-0.26-0.198-0.473-0.452-0.498l-0.048-0.002h-7.333z"></path>
<path fill="#fff" d="M6.604 20.666c-0.276 0-0.5 0.224-0.5 0.5 0 0.26 0.198 0.473 0.452 0.498l0.048 0.002h5.333c0.276 0 0.5-0.224 0.5-0.5 0-0.26-0.198-0.473-0.452-0.498l-0.048-0.002h-5.333z"></path>
<path fill="#fff" opacity="0.8" d="M9.426 7.349c0.21-0.409 0.713-0.571 1.122-0.36 0.155 0.080 0.281 0.205 0.36 0.36l0.809 1.574 1.79 0.25c0.438 0.061 0.748 0.452 0.716 0.886l-0.006 0.055c-0.026 0.189-0.117 0.363-0.256 0.493l-1.274 1.192 0.303 1.694c0.078 0.435-0.197 0.851-0.62 0.956l-0.054 0.011c-0.178 0.032-0.361 0.005-0.522-0.076l-1.628-0.822-1.628 0.822c-0.394 0.199-0.87 0.056-1.092-0.318l-0.027-0.050c-0.081-0.161-0.108-0.344-0.076-0.522l0.303-1.694-1.273-1.192c-0.321-0.301-0.351-0.796-0.078-1.133l0.039-0.045c0.13-0.139 0.304-0.23 0.493-0.256l1.79-0.25 0.81-1.574zM10.947 9.611l-0.78-1.517-0.78 1.517c-0.074 0.145-0.214 0.244-0.376 0.267l-1.701 0.237 1.217 1.139c0.111 0.104 0.168 0.253 0.157 0.403l-0.006 0.050-0.292 1.633 1.556-0.785c0.126-0.063 0.272-0.071 0.402-0.021l0.048 0.021 1.555 0.785-0.291-1.633c-0.027-0.15 0.016-0.303 0.116-0.417l0.035-0.036 1.216-1.139-1.701-0.237c-0.145-0.020-0.273-0.103-0.351-0.225l-0.024-0.042z"></path>
</svg>
