<svg version="1.1" xmlns="http://www.w3.org/2000/svg" width="32" height="32" viewBox="0 0 32 32">
<path fill="#fff" d="M21.371 8.438c0.331 0 0.6 0.269 0.6 0.6 0 0.315-0.242 0.573-0.551 0.598l-0.049 0.002h-13.202c-0.331 0-0.6-0.269-0.6-0.6 0-0.315 0.242-0.573 0.551-0.598l0.049-0.002h13.202z"></path>
<path fill="#fff" d="M24.15 3.4c1.074 0 1.949 0.851 1.988 1.915l0.001 0.075v9.207c0 0.331-0.269 0.6-0.6 0.6-0.315 0-0.573-0.242-0.598-0.551l-0.002-0.049v-9.207c0-0.418-0.325-0.76-0.736-0.788l-0.054-0.002h-18.761c-0.418 0-0.76 0.325-0.788 0.736l-0.002 0.054v20.15c0 0.418 0.325 0.76 0.736 0.788l0.054 0.002h9.369c0.331 0 0.6 0.269 0.6 0.6 0 0.315-0.242 0.573-0.551 0.598l-0.049 0.002h-9.369c-1.074 0-1.949-0.851-1.988-1.915l-0.001-0.075v-20.15c0-1.074 0.851-1.949 1.915-1.988l0.075-0.001h18.761z"></path>
<path fill="#fff" d="M16.337 13.996c0.331 0 0.6 0.269 0.6 0.6 0 0.315-0.242 0.573-0.551 0.598l-0.049 0.002h-8.338c-0.331 0-0.6-0.269-0.6-0.6 0-0.315 0.242-0.573 0.551-0.598l0.049-0.002h8.338z"></path>
<path fill="#fff" d="M12.168 19.555c0.331 0 0.6 0.269 0.6 0.6 0 0.315-0.242 0.573-0.551 0.598l-0.049 0.002h-4.169c-0.331 0-0.6-0.269-0.6-0.6 0-0.315 0.242-0.573 0.551-0.598l0.049-0.002h4.169z"></path>
<path fill="#fff" d="M17.992 21.371c0-2.634 2.135-4.769 4.769-4.769s4.769 2.135 4.769 4.769c0 2.634-2.135 4.769-4.769 4.769s-4.769-2.135-4.769-4.769zM26.33 21.37c0-1.971-1.598-3.569-3.569-3.569s-3.569 1.598-3.569 3.569c0 1.971 1.598 3.569 3.569 3.569s3.569-1.598 3.569-3.569z"></path>
<path fill="#fff" d="M21.893 25.503c0.184 0.183 0.196 0.474 0.035 0.671l-0.032 0.036-2.448 2.465c-0.282 0.284-0.76 0.137-0.843-0.243l-0.008-0.043-0.157-1.168-1.121-0.12c-0.403-0.043-0.584-0.519-0.33-0.819l0.030-0.033 2.275-2.269c0.196-0.195 0.512-0.195 0.707 0.001 0.184 0.184 0.194 0.475 0.032 0.671l-0.032 0.036-1.534 1.53 0.471 0.051c0.213 0.023 0.385 0.178 0.433 0.383l0.009 0.048 0.073 0.55 1.733-1.744c0.183-0.184 0.474-0.196 0.671-0.035l0.036 0.032z"></path>
<path fill="#fff" d="M23.629 25.503c-0.184 0.183-0.196 0.474-0.035 0.671l0.032 0.036 2.448 2.465c0.282 0.284 0.76 0.137 0.843-0.243l0.008-0.043 0.156-1.168 1.121-0.12c0.403-0.043 0.584-0.519 0.33-0.819l-0.030-0.033-2.275-2.269c-0.196-0.195-0.512-0.195-0.707 0.001-0.184 0.184-0.194 0.475-0.032 0.671l0.032 0.036 1.534 1.53-0.471 0.051c-0.213 0.023-0.385 0.178-0.433 0.383l-0.009 0.048-0.074 0.55-1.732-1.744c-0.183-0.184-0.474-0.196-0.671-0.035l-0.036 0.032z"></path>
</svg>
