<svg version="1.1" xmlns="http://www.w3.org/2000/svg" width="32" height="32" viewBox="0 0 32 32">
<path fill="currentColor" d="M21.116 3.032v0 0c0.096 0.020 0.189 0.050 0.281 0.088 0.090 0.038 0.175 0.084 0.254 0.137 0.083 0.056 0.161 0.119 0.233 0.192s0.136 0.15 0.191 0.233c0.053 0.080 0.099 0.164 0.137 0.254 0.039 0.092 0.068 0.185 0.088 0.281 0.013 0.060 0.021 0.121 0.027 0.183h2.739c0.343 0 0.672 0.066 0.986 0.199 0.146 0.062 0.283 0.135 0.413 0.221 0.14 0.093 0.271 0.2 0.392 0.321 0.233 0.233 0.414 0.502 0.543 0.805 0.062 0.147 0.11 0.296 0.143 0.449 0.038 0.175 0.057 0.354 0.057 0.537v13.030c0 0.523-0.411 0.933-0.933 0.933s-0.933-0.411-0.933-0.933v-13.030c0-0.092-0.016-0.177-0.049-0.256s-0.081-0.15-0.146-0.215c-0.13-0.13-0.287-0.195-0.471-0.195h-2.739c-0.005 0.062-0.014 0.123-0.027 0.183-0.020 0.096-0.050 0.189-0.088 0.281-0.038 0.090-0.084 0.175-0.137 0.254-0.055 0.083-0.119 0.161-0.191 0.233s-0.15 0.136-0.233 0.191l-0 0c-0.080 0.053-0.164 0.099-0.254 0.137-0.092 0.039-0.185 0.068-0.281 0.088-0.103 0.022-0.208 0.033-0.316 0.033h-9.6c-0.108 0-0.213-0.011-0.316-0.033-0.095-0.020-0.189-0.050-0.281-0.088-0.090-0.038-0.175-0.083-0.254-0.137h-0c-0.083-0.056-0.161-0.119-0.233-0.191s-0.136-0.15-0.191-0.233c-0.053-0.080-0.099-0.164-0.137-0.254-0.039-0.092-0.068-0.185-0.088-0.281-0.013-0.060-0.022-0.121-0.027-0.183h-2.739c-0.092 0-0.177 0.016-0.256 0.049v0c-0.078 0.033-0.15 0.081-0.215 0.146s-0.114 0.137-0.146 0.215-0.049 0.164-0.049 0.256v19.467c0 0.184 0.065 0.341 0.195 0.471 0.065 0.065 0.137 0.114 0.215 0.146s0.164 0.049 0.256 0.049h18.133c0.092 0 0.177-0.016 0.256-0.049s0.15-0.081 0.215-0.146c0.13-0.13 0.195-0.287 0.195-0.471v-3.103c0-0.523 0.411-0.933 0.933-0.933s0.933 0.411 0.933 0.933v3.103c0 0.183-0.019 0.362-0.057 0.537v0c-0.033 0.153-0.081 0.302-0.143 0.449-0.128 0.303-0.309 0.572-0.543 0.805s-0.502 0.414-0.805 0.543c-0.146 0.062-0.296 0.11-0.449 0.143-0.175 0.038-0.354 0.057-0.537 0.057h-18.133c-0.183 0-0.362-0.019-0.537-0.057-0.153-0.033-0.303-0.081-0.449-0.143-0.303-0.128-0.572-0.309-0.805-0.543s-0.414-0.502-0.542-0.805c-0.062-0.147-0.11-0.296-0.143-0.449v-0c-0.038-0.175-0.057-0.354-0.057-0.537v-19.467c0-0.183 0.019-0.362 0.057-0.537v-0c0.033-0.153 0.081-0.302 0.143-0.449s0.135-0.283 0.221-0.413v-0c0.093-0.14 0.2-0.271 0.321-0.392s0.252-0.228 0.392-0.321c0.13-0.086 0.267-0.16 0.413-0.221s0.296-0.11 0.449-0.143c0.175-0.038 0.354-0.057 0.537-0.057h2.739c0.005-0.062 0.014-0.123 0.027-0.183v-0c0.020-0.096 0.050-0.189 0.088-0.281 0.038-0.090 0.084-0.175 0.137-0.254v-0c0.056-0.083 0.119-0.161 0.191-0.233s0.15-0.136 0.233-0.191l0-0c0.080-0.053 0.164-0.099 0.254-0.137 0.092-0.039 0.185-0.068 0.281-0.088v0 0c0.103-0.022 0.209-0.033 0.316-0.033h9.6c0.108 0 0.213 0.011 0.316 0.033h0zM20.333 5h-8.667v0.667h8.667v-0.667zM11.053 15.11l2.439-2.66c0.252-0.275 0.234-0.69-0.041-0.942s-0.69-0.234-0.942 0.041l-1.935 2.111-0.738-0.844c-0.246-0.281-0.66-0.309-0.941-0.063s-0.309 0.66-0.063 0.941l1.228 1.404c0.146 0.167 0.298 0.256 0.455 0.267s0.371-0.109 0.539-0.255zM16.666 12.365h6.667c0.448 0 0.8 0.352 0.8 0.8s-0.352 0.8-0.8 0.8h-6.667c-0.448 0-0.8-0.352-0.8-0.8s0.352-0.8 0.8-0.8zM12.279 18.029c-0.091-0.019-0.184-0.029-0.279-0.029h-2c-0.095 0-0.188 0.010-0.279 0.029-0.082 0.017-0.162 0.043-0.24 0.076-0.077 0.033-0.15 0.072-0.219 0.118-0.073 0.049-0.141 0.105-0.205 0.168s-0.119 0.131-0.168 0.204c-0.046 0.069-0.085 0.142-0.117 0.219-0.033 0.078-0.058 0.158-0.076 0.24-0.020 0.091-0.029 0.184-0.029 0.279v2c0 0.095 0.010 0.188 0.029 0.279 0.017 0.082 0.043 0.162 0.076 0.24 0.033 0.077 0.072 0.15 0.117 0.219 0.049 0.073 0.105 0.141 0.168 0.204s0.132 0.119 0.205 0.168c0.069 0.046 0.142 0.085 0.219 0.118 0.078 0.033 0.159 0.058 0.24 0.076 0.091 0.020 0.184 0.029 0.279 0.029h2c0.095 0 0.188-0.010 0.279-0.029 0.082-0.017 0.162-0.043 0.24-0.076s0.15-0.072 0.219-0.118c0.073-0.049 0.141-0.105 0.205-0.168s0.119-0.131 0.168-0.205h0c0.046-0.069 0.085-0.142 0.117-0.219 0.033-0.078 0.059-0.158 0.076-0.24v-0c0.020-0.091 0.029-0.184 0.029-0.279v-2c0-0.095-0.010-0.188-0.029-0.279-0.017-0.082-0.043-0.162-0.076-0.24-0.033-0.077-0.072-0.15-0.118-0.219-0.049-0.073-0.104-0.141-0.168-0.204s-0.132-0.119-0.205-0.168c-0.069-0.046-0.142-0.085-0.219-0.118s-0.158-0.058-0.24-0.076zM10 19.333h2v2h-2v-2zM16.666 19.698h6.667c0.448 0 0.8 0.352 0.8 0.8s-0.352 0.8-0.8 0.8h-6.667c-0.448 0-0.8-0.352-0.8-0.8s0.352-0.8 0.8-0.8z"></path>
</svg>
