<svg version="1.1" xmlns="http://www.w3.org/2000/svg" width="32" height="32" viewBox="0 0 32 32">
<path d="M15.552 4.567c0.516 0 0.933 0.417 0.933 0.933s-0.417 0.933-0.933 0.933h-8.632c-0.441 0-0.8 0.359-0.8 0.8v0 17.832c0 0.441 0.359 0.8 0.8 0.8v0h18.165c0.441 0 0.8-0.359 0.8-0.8v0-8.303c0-0.516 0.417-0.933 0.933-0.933s0.933 0.417 0.933 0.933v0 8.303c0 1.473-1.193 2.667-2.667 2.667v0h-18.165c-1.473 0-2.667-1.193-2.667-2.667v0-17.832c0-1.473 1.193-2.667 2.667-2.667v0h8.632zM25.087 4.563c1.473 0 2.667 1.193 2.667 2.667v0 5.267c0 0.516-0.417 0.933-0.933 0.933s-0.933-0.417-0.933-0.933v-4.687l-6.576 6.516c-0.168 0.167-0.401 0.271-0.657 0.271-0.516 0-0.933-0.417-0.933-0.933 0-0.259 0.105-0.493 0.276-0.663l6.632-6.572-4.808 0.001c-0.516 0-0.933-0.417-0.933-0.933s0.417-0.933 0.933-0.933v0h5.267z"></path>
</svg>
