<svg version="1.1" xmlns="http://www.w3.org/2000/svg" width="32" height="32" viewBox="0 0 32 32">
<path fill="currentColor" d="M27.335 4.515c0.093 0.053 0.181 0.12 0.261 0.199 0.281 0.278 0.414 0.669 0.366 1.055l-0.032 0.165-4.645 17.807c-0.223 0.855-1.097 1.367-1.952 1.144l-0.148-0.047-0.143-0.061-7.676-3.702 0.001 5.777c0 0.473-0.351 0.863-0.807 0.925l-0.127 0.009c-0.473 0-0.863-0.351-0.925-0.807l-0.008-0.127v-7.671l10.959-11.078-17.147 7.609 4.631 2.026c0.429 0.188 0.646 0.66 0.527 1.099l-0.046 0.13c-0.188 0.429-0.66 0.646-1.099 0.527l-0.13-0.046-5.184-2.268c-0.366-0.16-0.659-0.452-0.821-0.817-0.335-0.754-0.040-1.628 0.658-2.032l22.476-9.985c0.351-0.156 0.746-0.078 1.011 0.167zM25.56 7.624l-11.561 11.685 7.561 3.647 4-15.332z"></path>
</svg>
