<svg version="1.1" xmlns="http://www.w3.org/2000/svg" width="32" height="32" viewBox="0 0 32 32">
<path fill="currentColor" d="M22.193 4.31l-14.191 0.008c-1.307 0.101-2.335 1.193-2.335 2.526v18.315l0.008 0.198c0.101 1.307 1.193 2.335 2.526 2.335h4.55l0.127-0.009c0.456-0.062 0.807-0.452 0.807-0.925 0-0.515-0.418-0.933-0.933-0.933h-4.55l-0.12-0.011c-0.311-0.056-0.547-0.329-0.547-0.656v-18.315l0.011-0.12c0.056-0.311 0.329-0.547 0.656-0.547l14.113 0.011c0.311 0.056 0.547 0.329 0.547 0.656v5.649l0.009 0.127c0.062 0.456 0.452 0.807 0.925 0.807 0.515 0 0.933-0.418 0.933-0.933v-5.649l-0.008-0.198c-0.101-1.307-1.193-2.335-2.526-2.335zM21.436 10.783c0 0.473-0.351 0.863-0.807 0.925l-10.581 0.008c-0.515 0-0.933-0.418-0.933-0.933 0-0.473 0.351-0.863 0.807-0.925l10.581-0.009c0.515 0 0.933 0.418 0.933 0.933zM27.024 16.867c0.668 0.675 0.668 1.762 0 2.437l-6.89 6.969c-0.404 0.408-0.918 0.689-1.48 0.808l-1.888 0.399c-0.721 0.152-1.428-0.308-1.58-1.029-0.038-0.18-0.038-0.365-0.001-0.545l0.399-1.93c0.115-0.555 0.388-1.066 0.787-1.469l6.883-6.962c0.673-0.681 1.77-0.687 2.455-0.010l1.317 1.332zM17.997 16c0-0.515-0.418-0.933-0.933-0.933h-7.015l-0.127 0.008c-0.456 0.062-0.807 0.452-0.807 0.925 0 0.515 0.418 0.933 0.933 0.933h7.015l0.127-0.009c0.456-0.062 0.807-0.452 0.807-0.925zM25.605 18.084l-1.12-1.131-6.788 6.867c-0.145 0.147-0.244 0.332-0.286 0.534l-0.234 1.13 1.091-0.229c0.153-0.032 0.297-0.098 0.421-0.191l0.117-0.102 6.799-6.877zM13.625 20.285c0.515 0 0.933 0.418 0.933 0.933 0 0.473-0.351 0.863-0.807 0.925l-0.127 0.009h-3.577c-0.515 0-0.933-0.418-0.933-0.933 0-0.473 0.351-0.863 0.807-0.925l0.127-0.009h3.577z"></path>
</svg>
