<svg version="1.1" xmlns="http://www.w3.org/2000/svg" width="32" height="32" viewBox="0 0 32 32">
<path fill="currentColor" d="M25.185 5.782h-20.316c-1.165 0-2.109 0.944-2.109 2.109v16.316c0 1.165 0.944 2.109 2.109 2.109h9.398c0.515 0 0.933-0.418 0.933-0.933s-0.418-0.933-0.933-0.933h-9.398c-0.134 0-0.242-0.108-0.242-0.242v-16.316c0-0.134 0.108-0.242 0.242-0.242h20.316c0.134 0 0.242 0.108 0.242 0.242v6.785c0 0.515 0.418 0.933 0.933 0.933s0.933-0.418 0.933-0.933v-6.785c0-1.165-0.944-2.109-2.108-2.109zM20.411 10.739h-12.727c-0.515 0-0.933 0.418-0.933 0.933s0.418 0.933 0.933 0.933h12.727c0.515 0 0.933-0.418 0.933-0.933s-0.418-0.933-0.933-0.933zM23.020 15.727c-2.634 0-4.769 2.135-4.769 4.769 0 1.098 0.371 2.109 0.994 2.915l-1.967 1.962-0.065 0.078c-0.201 0.3-0.019 0.732 0.364 0.773l1.121 0.121 0.156 1.168c0.055 0.411 0.558 0.58 0.85 0.286l2.448-2.465c0.039-0.040 0.070-0.084 0.094-0.131 0.251 0.041 0.509 0.062 0.772 0.062s0.522-0.021 0.773-0.062c0.023 0.047 0.055 0.092 0.094 0.131l2.448 2.465c0.292 0.294 0.795 0.125 0.85-0.286l0.156-1.168 1.121-0.121c0.383-0.041 0.566-0.473 0.364-0.773l-0.065-0.078-1.968-1.962c0.623-0.806 0.994-1.817 0.994-2.915 0-2.634-2.135-4.769-4.769-4.769zM21.178 24.896l-1.467 1.475-0.074-0.548-0.027-0.11c-0.065-0.174-0.224-0.301-0.415-0.321l-0.471-0.052 1.212-1.207c0.37 0.314 0.788 0.572 1.242 0.762zM15.532 16.073c0.515 0 0.933 0.418 0.933 0.933s-0.418 0.933-0.933 0.933h-8c-0.515 0-0.933-0.418-0.933-0.933s0.418-0.933 0.933-0.933h8zM23.020 16.926c1.971 0 3.569 1.598 3.569 3.569s-1.598 3.569-3.569 3.569c-1.971 0-3.569-1.598-3.569-3.569s1.598-3.569 3.569-3.569zM26.329 26.371l-1.467-1.475c0.454-0.19 0.872-0.449 1.242-0.763l1.212 1.207-0.471 0.052c-0.191 0.020-0.349 0.147-0.415 0.321l-0.027 0.11-0.074 0.548z"></path>
</svg>
