<svg version="1.1" xmlns="http://www.w3.org/2000/svg" width="32" height="32" viewBox="0 0 32 32">
<path fill="#fff" d="M29.265 6.926l0.001 0.074v5.327c0 0.331-0.269 0.6-0.6 0.6-0.315 0-0.573-0.242-0.598-0.551l-0.002-0.049v-2.227h-25.467v12.9c0 0.387 0.3 0.705 0.681 0.732l11.396 0.002c0.331 0 0.6 0.269 0.6 0.6 0 0.315-0.242 0.573-0.551 0.598l-11.393 0.002c-1.043 0-1.893-0.826-1.932-1.859l-0.001-0.074v-16c0-1.043 0.826-1.893 1.859-1.932l24.074-0.001c1.043 0 1.893 0.826 1.932 1.859zM28.066 8.9v-1.9c0-0.387-0.3-0.705-0.681-0.732l-0.052-0.002h-24c-0.387 0-0.705 0.3-0.732 0.681l-0.002 0.052v1.9h25.467zM5.333 17.4h4.667c0.7 0 1.267 0.567 1.267 1.267v2c0 0.7-0.567 1.267-1.267 1.267h-4.667c-0.7 0-1.267-0.567-1.267-1.267v-2c0-0.7 0.567-1.267 1.267-1.267zM10 18.601h-4.667c-0.037 0-0.067 0.030-0.067 0.067v2c0 0.037 0.030 0.067 0.067 0.067h4.667c0.037 0 0.067-0.030 0.067-0.067v-2c0-0.037-0.030-0.067-0.067-0.067z"></path>
<path fill="#fff" d="M23.333 12.834c-3.958 0-7.167 3.209-7.167 7.167s3.209 7.167 7.167 7.167c3.958 0 7.167-3.209 7.167-7.167s-3.209-7.167-7.167-7.167zM23.333 13.834c3.406 0 6.167 2.761 6.167 6.167s-2.761 6.167-6.167 6.167c-3.406 0-6.167-2.761-6.167-6.167s2.761-6.167 6.167-6.167zM20.655 16.409c-0.176-0.123-0.418-0.092-0.558 0.080l-0.026 0.035c-0.12 0.182-0.089 0.431 0.078 0.576l2.195 1.901h-1.913l-0.041 0.002c-0.219 0.024-0.39 0.238-0.39 0.498 0 0.276 0.193 0.5 0.432 0.5h2.395l0 1-2.436 0.002c-0.219 0.024-0.39 0.238-0.39 0.498 0 0.276 0.193 0.5 0.432 0.5h2.395l0 1.899 0.002 0.042c0.020 0.22 0.2 0.392 0.418 0.392 0.030 0 0.059-0.003 0.087-0.009 0.028 0.006 0.057 0.009 0.087 0.009 0.218 0 0.398-0.172 0.418-0.392l0.002-0.042 0-1.899 2.436-0.002c0.219-0.024 0.39-0.238 0.39-0.498 0-0.276-0.193-0.5-0.432-0.5h-2.395v-1l2.436-0.002c0.219-0.024 0.39-0.238 0.39-0.498 0-0.276-0.193-0.5-0.432-0.5h-1.913l2.195-1.901c0.167-0.144 0.198-0.394 0.078-0.576l-0.026-0.035c-0.14-0.172-0.381-0.204-0.558-0.080l-0.034 0.027-2.643 2.289-2.643-2.289-0.034-0.027z"></path>
</svg>
