<?xml version="1.0" encoding="UTF-8"?>
<svg width="24px" height="24px" viewBox="0 0 24 24" version="1.1" xmlns="http://www.w3.org/2000/svg" xmlns:xlink="http://www.w3.org/1999/xlink">
    <title>icon峰会（卡片内）</title>
    <defs>
        <circle id="path-1" cx="12" cy="12" r="12"></circle>
    </defs>
    <g id="首页" stroke="none" stroke-width="1" fill="none" fill-rule="evenodd">
        <g id="首页1.4" transform="translate(-1073.000000, -2322.000000)">
            <g id="编组-71" transform="translate(252.000000, 1970.000000)">
                <g id="编组-63备份-2" transform="translate(0.000000, 96.000000)">
                    <g id="icon峰会（卡片内）" transform="translate(821.000000, 256.000000)">
                        <mask id="mask-2" fill="white">
                            <use xlink:href="#path-1"></use>
                        </mask>
                        <use id="蒙版" fill="#3422FF" xlink:href="#path-1"></use>
                        <g id="峰会备份-2" mask="url(#mask-2)">
                            <g transform="translate(1.500000, 1.500000)">
                                <rect id="矩形" stroke="none" fill-opacity="0" fill="#FFFFFF" fill-rule="nonzero" x="0" y="0" width="21" height="21"></rect>
                                <rect id="矩形" stroke-opacity="0" stroke="#FFFFFF" stroke-width="0.875" fill="none" x="0.4375" y="0.4375" width="20.125" height="20.125"></rect>
                                <path d="M6.9782125,3.58147125 C6.24391833,3.88119958 5.547115,4.27270083 4.8878025,4.755975 C4.6111625,4.95875625 4.55315875,5.33544375 4.7558875,5.61208375 C4.95872125,5.88872375 5.3354525,5.9467625 5.6120925,5.74398125 C6.22056167,5.29797042 6.86424375,4.94157708 7.54313875,4.67480125 C7.66479875,4.62697375 7.78773625,4.58201625 7.91163625,4.53994625 C8.34329708,4.39350042 8.78095167,4.2846825 9.2246,4.2134925 C9.64436667,4.1461525 10.0694708,4.1124825 10.4999125,4.1124825 C10.9304125,4.1124825 11.3554875,4.14614667 11.7751375,4.213475 L11.775225,4.21348375 C12.2189083,4.28467375 12.6565542,4.39349458 13.0881625,4.53994625 C13.21215,4.58201625 13.335,4.626965 13.4568,4.67480125 L13.4568,4.67481 C14.1356833,4.94158583 14.7793625,5.29797625 15.3878375,5.74398125 C15.664425,5.9467625 16.0412,5.88872375 16.2439375,5.61208375 C16.4467625,5.33544375 16.38875,4.95875625 16.112075,4.755975 C15.452675,4.27270083 14.7558833,3.88119958 14.0217,3.58147125 C13.8439875,3.5089075 13.664,3.44171625 13.4817375,3.37990625 C12.9863708,3.21180125 12.4840042,3.0867375 11.9746375,3.004715 C11.4893625,2.92656 10.997875,2.8874825 10.4999125,2.8874825 C10.0020375,2.8874825 9.5104625,2.92656292 9.0251875,3.00472375 L9.0250125,3.0047325 C8.51582667,3.086755 8.01350083,3.21181292 7.518035,3.37990625 C7.33592125,3.4417075 7.1559425,3.50889875 6.9782125,3.5814625 L6.9782125,3.58147125 Z M18.9875,12.25 L18.9875,13.125 C18.9875,13.2321 18.976475,13.33675 18.9543375,13.439125 C18.9349125,13.5293083 18.9068833,13.6176542 18.87025,13.7041625 C18.834025,13.7899708 18.7905958,13.8709958 18.7399625,13.9472375 C18.6854792,14.0292542 18.6227417,14.1057875 18.55175,14.1768375 C18.4807,14.2478 18.404225,14.3105375 18.3222375,14.3649625 C18.2459375,14.415625 18.1649125,14.459025 18.0791625,14.4953375 C17.992625,14.5319125 17.90425,14.56 17.8140375,14.579425 C17.7116625,14.601475 17.6070125,14.6125 17.4999125,14.6125 L3.499895,14.6125 C3.392795,14.6125 3.28808375,14.601475 3.18576125,14.579425 C3.09561,14.5599125 3.00727875,14.5319125 2.92075875,14.4953375 C2.83499125,14.4591125 2.7539225,14.415625 2.6776575,14.3649625 C2.59562917,14.3105375 2.51911625,14.2478292 2.44811875,14.1768375 C2.37712708,14.1057875 2.3143925,14.0292542 2.259915,13.9472375 C2.2092875,13.871025 2.1658175,13.79 2.12961,13.7041625 C2.09297375,13.6177125 2.06499125,13.5293375 2.04554875,13.439125 C2.0234375,13.3368375 2.01243875,13.2321 2.01243875,13.125 L2.01243875,7.875 C2.01243875,7.7679 2.0234375,7.66318 2.04554875,7.56084 C2.06499125,7.470645 2.09297375,7.382305 2.12961,7.29581125 C2.1658525,7.21002625 2.2092875,7.12899833 2.259915,7.0527275 C2.3143925,6.97071083 2.37712708,6.894195 2.44811875,6.82318 C2.51915125,6.752165 2.59562625,6.689445 2.6776575,6.63501125 C2.7539225,6.58438375 2.83499125,6.54093125 2.92075875,6.504645 C3.00727875,6.46806125 3.09561,6.44004375 3.18576125,6.42060125 L3.18586625,6.42058375 C3.28819458,6.39852792 3.39287083,6.3875 3.499895,6.3875 L17.4999125,6.3875 C17.6070125,6.3875 17.7116625,6.39853375 17.814125,6.4205925 C17.90425,6.44004375 17.992625,6.46806125 18.0791625,6.504645 C18.1649125,6.54094 18.2459375,6.58440125 18.3222375,6.6350375 C18.404225,6.6894625 18.4807,6.7521825 18.55175,6.82318 C18.6228,6.894195 18.6855375,6.9707225 18.7399625,7.052745 C18.790625,7.12901 18.8339375,7.210035 18.87025,7.29581125 C18.9069125,7.3823225 18.9349125,7.47068 18.9543375,7.56088375 L18.954425,7.56119875 C18.976475,7.66342792 18.9875,7.76802833 18.9875,7.875 L18.9875,10.5 C18.9875,10.843 18.718,11.1125 18.3749125,11.1125 C18.0319125,11.1125 17.7624125,10.843 17.7624125,10.5 L17.7624125,7.875 C17.7624125,7.83874875 17.756025,7.8051575 17.74325,7.7742175 C17.7303875,7.74328625 17.62635,7.65734375 17.6007125,7.63172375 C17.5697375,7.618905 17.536225,7.6125 17.4999125,7.6125 L3.499895,7.6125 C3.4637225,7.6125 3.43014875,7.618905 3.39917375,7.631715 L3.39917375,7.631715 L3.39917375,7.63172375 C3.36819875,7.64453375 3.2823175,7.74860625 3.25668,7.774235 C3.24387,7.80516625 3.23745625,7.8387575 3.23745625,7.875 L3.23745625,13.125 C3.23745625,13.161225 3.24387,13.194825 3.25668,13.2258 C3.26949875,13.2566875 3.37353625,13.3426125 3.39917375,13.36825 C3.43014875,13.3811125 3.4636875,13.3875 3.499895,13.3875 L17.4999125,13.3875 C17.536225,13.3875 17.5697375,13.3811125 17.6007125,13.36825 C17.6316,13.355475 17.7176125,13.2514375 17.74325,13.2258 C17.756025,13.194825 17.7624125,13.161225 17.7624125,13.125 L17.7624125,12.25 C17.7624125,11.907 18.0319125,11.6375 18.3749125,11.6375 C18.718,11.6375 18.9875,11.907 18.9875,12.25 Z M13.4390375,15.170575 L13.439125,15.170575 C13.52925,15.19 13.6175958,15.2180292 13.7041625,15.2546625 C13.7899125,15.2908875 13.8709375,15.334375 13.9472375,15.38495 C14.029225,15.4394625 14.1057,15.5021125 14.17675,15.5731625 C14.2478,15.6442125 14.3105375,15.7206875 14.3649625,15.802675 C14.415625,15.878975 14.4589375,15.96 14.49525,16.04575 C14.5318833,16.1322583 14.5599125,16.2206042 14.5793375,16.3107875 L14.5793375,16.3107875 C14.601475,16.4131625 14.6125,16.5179 14.6125,16.625 C14.6125,16.7321 14.6013875,16.8368375 14.5793375,16.9392125 C14.5599125,17.0293375 14.5319125,17.1177125 14.49525,17.2041625 C14.4589375,17.2899125 14.415625,17.3709375 14.3649625,17.4472375 C14.3105375,17.529225 14.2478,17.6057875 14.17675,17.6768375 C14.1057,17.7478 14.029225,17.8105375 13.9472375,17.8649625 C13.8709375,17.915625 13.7899125,17.959025 13.7041625,17.9953375 C13.617625,18.0319125 13.52925,18.0599125 13.439125,18.0793375 C13.3368375,18.101475 13.2320125,18.1125 13.1249125,18.1125 L7.874895,18.1125 C7.767865,18.1125 7.66308375,18.101475 7.56076125,18.0793375 C7.47061,18.0599125 7.38227875,18.0319125 7.29575875,17.9953375 C7.20999125,17.959025 7.1289225,17.915625 7.0526575,17.8649625 C6.97062625,17.8105375 6.89415125,17.7478 6.82311875,17.6768375 C6.75208625,17.6057875 6.6893925,17.5293125 6.634915,17.4472375 C6.5842875,17.371025 6.5408175,17.2899125 6.50461,17.2041625 C6.46797375,17.1177125 6.43999125,17.0293375 6.42054875,16.939125 C6.3984375,16.8368375 6.38743875,16.7321 6.38743875,16.625 C6.38743875,16.5179 6.3984375,16.4131625 6.42054875,16.3107875 C6.43999125,16.2206625 6.46797375,16.1322875 6.50461,16.04575 C6.5408175,15.96 6.5842875,15.878975 6.634915,15.802675 C6.6893925,15.7206875 6.75208625,15.6442125 6.82311875,15.5731625 C6.89415125,15.5021125 6.97062625,15.4394625 7.0526575,15.38495 C7.1289225,15.334375 7.20995625,15.2909458 7.29575875,15.2546625 C7.38227875,15.218 7.47061,15.19 7.56076125,15.170575 C7.66308375,15.148525 7.767865,15.1375 7.874895,15.1375 L13.1249125,15.1375 C13.2320125,15.1375 13.3367208,15.148525 13.4390375,15.170575 Z M13.1249125,16.3625 L7.874895,16.3625 C7.83864667,16.3625 7.80507292,16.3688875 7.77417375,16.3816625 C7.74319875,16.394525 7.6573175,16.4985625 7.63168,16.5242 C7.61887,16.555175 7.61245625,16.588775 7.61245625,16.625 C7.61245625,16.661225 7.61887,16.694825 7.63168,16.7257125 C7.64449875,16.7566875 7.74853625,16.8426125 7.77417375,16.86825 C7.80514875,16.8811125 7.8386875,16.8875 7.874895,16.8875 L13.1249125,16.8875 C13.161225,16.8875 13.1947375,16.8811125 13.2257125,16.86825 C13.2566,16.855475 13.3426125,16.75135 13.36825,16.7257125 C13.381025,16.694825 13.3874125,16.661225 13.3874125,16.625 C13.3874125,16.588775 13.381025,16.555175 13.36825,16.5242 L13.36825,16.5242 C13.3553875,16.4933125 13.25135,16.4073 13.2257125,16.3816625 C13.1947375,16.3688875 13.161225,16.3625 13.1249125,16.3625 Z" id="合并" stroke="none" fill="#FFFFFF" fill-rule="evenodd"></path>
                            </g>
                        </g>
                    </g>
                </g>
            </g>
        </g>
    </g>
</svg>