<?xml version="1.0" encoding="UTF-8"?>
<svg width="24px" height="24px" viewBox="0 0 24 24" version="1.1" xmlns="http://www.w3.org/2000/svg" xmlns:xlink="http://www.w3.org/1999/xlink">
    <title>icon会议（卡片内）</title>
    <defs>
        <circle id="path-1" cx="12" cy="12" r="12"></circle>
    </defs>
    <g id="首页" stroke="none" stroke-width="1" fill="none" fill-rule="evenodd">
        <g id="首页1.4" transform="translate(-1073.000000, -2144.000000)">
            <g id="编组-71" transform="translate(252.000000, 1970.000000)">
                <g id="编组-63备份-2" transform="translate(0.000000, 96.000000)">
                    <g id="icon会议（卡片内）" transform="translate(821.000000, 78.000000)">
                        <mask id="mask-2" fill="white">
                            <use xlink:href="#path-1"></use>
                        </mask>
                        <use id="蒙版" fill="#007AF0" xlink:href="#path-1"></use>
                        <g id="会议备份" mask="url(#mask-2)">
                            <g transform="translate(1.500000, 2.000000)">
                                <rect id="矩形" stroke="none" fill-opacity="0" fill="#FFFFFF" fill-rule="nonzero" x="0" y="0" width="21" height="21"></rect>
                                <rect id="矩形" stroke-opacity="0" stroke="#FFFFFF" stroke-width="0.875" fill="none" x="0.4375" y="0.4375" width="20.125" height="20.125"></rect>
                                <path d="M11.1125875,2.625 L11.1125875,3.7624825 L16.6250875,3.7624825 C16.732275,3.7624825 16.8370125,3.77351625 16.9393875,3.79558375 C17.0295125,3.81502625 17.1178,3.84304375 17.2043375,3.8796275 C17.2900875,3.915905 17.3712,3.9593575 17.4474125,4.00997625 C17.5294875,4.06441 17.6059625,4.12713875 17.6770125,4.1981625 C17.747975,4.2691775 17.8107125,4.345705 17.865225,4.4277275 C17.9158,4.5039925 17.9592,4.58500875 17.9955125,4.67079375 C18.032175,4.75729625 18.0600875,4.8456625 18.0796,4.93586625 C18.10165,5.03819458 18.112675,5.1429 18.112675,5.2499825 L18.112675,9.9892625 C18.112675,10.3322625 17.843175,10.6017625 17.5000875,10.6017625 C17.157175,10.6017625 16.887675,10.3322625 16.887675,9.9892625 L16.887675,5.2499825 C16.887675,5.21374 16.8812583,5.18015167 16.868425,5.1492175 C16.8555625,5.1182775 16.7516125,5.03232625 16.725975,5.0066975 C16.695,4.9938875 16.6613708,4.9874825 16.6250875,4.9874825 L10.5051625,4.9874825 L10.5,4.9875 L10.4950125,4.9874825 L4.375105,4.9874825 C4.3389325,4.9874825 4.30535875,4.9938875 4.27438375,5.0066975 L4.27438375,5.0066975 L4.27438375,5.0066975 L4.27438375,5.0066975 C4.24340875,5.01951625 4.1575275,5.12358 4.13189875,5.14920875 C4.11908,5.18014875 4.112675,5.21374 4.112675,5.2499825 L4.112675,14 C4.112675,14.0361667 4.11904792,14.0697083 4.13179375,14.100625 L4.13189875,14.1007125 L4.13189875,14.1007125 C4.1447175,14.1316875 4.24874625,14.2176125 4.27438375,14.24325 C4.30528875,14.2560833 4.3388625,14.2625 4.375105,14.2625 L16.6250875,14.2625 C16.6614,14.2625 16.695,14.2561125 16.725975,14.24325 C16.756775,14.230475 16.8427875,14.12635 16.868425,14.1007125 C16.8812,14.069825 16.887675,14.036225 16.887675,14 L16.887675,12.062225 C16.887675,11.719225 17.157175,11.449725 17.5000875,11.449725 C17.843175,11.449725 18.112675,11.719225 18.112675,12.062225 L18.112675,14 C18.112675,14.1071 18.10165,14.2118083 18.0796,14.314125 C18.0600875,14.4043375 18.032175,14.492625 17.9955125,14.5791625 C17.9592875,14.6649125 17.9158583,14.7459083 17.865225,14.82215 C17.8107125,14.904225 17.747975,14.9807875 17.6770125,15.0518375 C17.6059625,15.1228 17.5294,15.1855375 17.447325,15.24005 C17.3711125,15.290625 17.2900875,15.334025 17.2043375,15.3703375 C17.1178,15.4069125 17.0295125,15.4349125 16.9393875,15.4543375 C16.8370125,15.476475 16.732275,15.4875 16.6250875,15.4875 L16.336425,15.4875 L17.9244625,17.075625 C18.1670125,17.318175 18.1670125,17.699325 17.9244625,17.941875 C17.6819125,18.184425 17.3007625,18.184425 17.0583,17.941875 L14.6040125,15.4875 L6.3961975,15.4875 L3.94177,17.941875 C3.6992025,18.184425 3.31809625,18.184425 3.07552875,17.941875 C2.83306625,17.699325 2.83306625,17.318175 3.07552875,17.075625 L4.663715,15.4875 L4.375105,15.4875 C4.26808083,15.4875 4.1634075,15.476475 4.061085,15.454425 L4.06097125,15.4543375 L4.06097125,15.4543375 C3.97082875,15.4349125 3.88248875,15.4069125 3.7959775,15.3703375 C3.71016917,15.3340542 3.6291325,15.2905958 3.5528675,15.2399625 L3.5528675,15.2399625 C3.47083917,15.1855375 3.39432917,15.1228292 3.3233375,15.0518375 C3.25234,14.9807875 3.18960542,14.9042542 3.13513375,14.8222375 L3.13513375,14.8222375 C3.08450625,14.7459958 3.04106833,14.6649708 3.00482,14.5791625 C2.96822167,14.4926542 2.94020125,14.4043083 2.92075875,14.314125 L2.92075875,14.314125 C2.89868542,14.2118083 2.88764875,14.1071 2.88764875,14 L2.88764875,5.2499825 C2.88764875,5.1428825 2.89868542,5.0381625 2.92075875,4.9358225 C2.94020125,4.8456275 2.96818375,4.7572875 3.00482,4.67079375 C3.0410275,4.58500875 3.08450625,4.503975 3.13513375,4.42771 C3.1896025,4.3456875 3.252305,4.2691775 3.3233375,4.1981625 C3.39436125,4.1271475 3.47083625,4.06441875 3.5528675,4.009985 C3.6291325,3.95936625 3.71020125,3.91591375 3.7959775,3.8796275 C3.88248875,3.84304375 3.97082875,3.81502625 4.06097125,3.795575 L4.061085,3.79556625 C4.1634075,3.77351042 4.26808083,3.7624825 4.375105,3.7624825 L9.8875,3.7624825 L9.8875,2.625 C9.8875,2.282 10.157,2.0125 10.5,2.0125 C10.8430875,2.0125 11.1125875,2.282 11.1125875,2.625 Z M12.285175,11.413325 L15.3139875,8.302245 C15.5532125,8.056475 15.5481375,7.6753775 15.30235,7.4361175 C15.0565625,7.19684875 14.6755875,7.20195 14.4361875,7.44772 L11.872875,10.0807875 L9.554825,7.4118275 C9.4269,7.30114875 9.2785875,7.251895 9.1098875,7.26406625 C8.9411875,7.27624625 8.80145,7.34628125 8.69082375,7.47417125 L5.66197625,10.9741625 C5.437565,11.2335125 5.46501375,11.6137 5.72434625,11.8381375 C5.9836875,12.062575 6.36383125,12.0351875 6.5882425,11.77575 L9.1539875,8.8109875 L11.3831375,11.3869 C11.4937375,11.514825 11.633475,11.584825 11.8022625,11.5969875 C11.970875,11.60915 12.15725,11.5240125 12.285175,11.413325 Z" id="合并" stroke="none" fill="#FFFFFF" fill-rule="evenodd"></path>
                            </g>
                        </g>
                    </g>
                </g>
            </g>
        </g>
    </g>
</svg>