<?xml version="1.0" encoding="UTF-8"?>
<svg width="24px" height="24px" viewBox="0 0 24 24" version="1.1" xmlns="http://www.w3.org/2000/svg" xmlns:xlink="http://www.w3.org/1999/xlink">
    <title>icon活动（卡片内）</title>
    <defs>
        <circle id="path-1" cx="12" cy="12" r="12"></circle>
    </defs>
    <g id="首页" stroke="none" stroke-width="1" fill="none" fill-rule="evenodd">
        <g id="首页1.4" transform="translate(-1073.000000, -2233.000000)">
            <g id="编组-71" transform="translate(252.000000, 1970.000000)">
                <g id="编组-63备份-2" transform="translate(0.000000, 96.000000)">
                    <g id="icon活动（卡片内）" transform="translate(821.000000, 167.000000)">
                        <mask id="mask-2" fill="white">
                            <use xlink:href="#path-1"></use>
                        </mask>
                        <use id="蒙版" fill="#FFA122" xlink:href="#path-1"></use>
                        <g id="活动备份" mask="url(#mask-2)">
                            <g transform="translate(1.000000, 1.000000)">
                                <rect id="矩形" stroke="none" fill-opacity="0" fill="#FFFFFF" fill-rule="nonzero" x="0" y="0" width="22" height="22"></rect>
                                <rect id="矩形" stroke-opacity="0" stroke="#FFFFFF" stroke-width="0.916666667" fill="none" x="0.458333333" y="0.458333333" width="21.0833333" height="21.0833333"></rect>
                                <path d="M17.248275,9.77368333 L16.66225,10.310575 C16.3972417,10.5533083 16.379825,10.95215 16.6225583,11.2171583 C16.8653833,11.482075 17.2641333,11.4995833 17.5291417,11.25685 L18.1151667,10.72005 L18.9838,9.9242 C19.1165333,9.80265 19.2235083,9.66716667 19.304725,9.51775 C19.3680667,9.40115 19.415825,9.27611667 19.4479083,9.1426225 C19.4791667,9.01270333 19.4937417,8.88305917 19.4915417,8.75369 C19.488975,8.6009825 19.4633083,8.44866 19.4142667,8.29671333 C19.365225,8.144785 19.2971167,8.00613 19.2099417,7.88074833 C19.1360583,7.77451583 19.0485167,7.6778075 18.947225,7.59062333 C18.8431833,7.5010375 18.73135,7.42746583 18.6118167,7.36992667 C18.45855,7.29611667 18.2926333,7.24866083 18.1138833,7.22756833 L14.2630583,6.77296583 C14.2416083,6.76459667 14.1536083,6.73671167 14.1342667,6.72277833 C14.1196,6.70503167 14.0562583,6.63784917 14.046175,6.61628917 L12.41185,3.11890333 C12.3363167,2.95739278 12.2400667,2.81581056 12.1231,2.69415667 L12.1231,2.6941475 C12.0317083,2.599025 11.9274833,2.51607583 11.8107917,2.4453275 C11.6970639,2.37644306 11.5785694,2.32337722 11.4553083,2.28613 L11.4552167,2.2861025 C11.3101083,2.24224917 11.1583083,2.22033167 11,2.22033167 C10.8415083,2.22033167 10.6898,2.24224917 10.5446917,2.2861025 L10.5446917,2.28613 C10.4213694,2.32337722 10.302875,2.37644306 10.1892083,2.4453275 C10.0723333,2.51607583 9.96829167,2.599025 9.8769,2.6941475 C9.75993333,2.81580139 9.66368333,2.95738667 9.58815,3.11890333 L7.95380667,6.61628917 C7.93914917,6.63403583 7.8849925,6.708845 7.8656325,6.72277833 C7.84425583,6.73113833 7.760555,6.77017 7.73695083,6.77296583 L3.88609833,7.22756833 C3.70739417,7.24866083 3.54145,7.29611667 3.38815583,7.36992667 L3.38803667,7.36995417 C3.26853389,7.42749639 3.15674944,7.50105583 3.05268333,7.5906325 C2.95141917,7.6778075 2.86391417,7.77450667 2.78994833,7.88074833 C2.7027825,8.00613 2.6347475,8.144785 2.58573333,8.29671333 C2.53671917,8.44865083 2.51087833,8.60096417 2.5084125,8.7536625 C2.50624917,8.88304083 2.52079667,9.01269417 2.552055,9.1426225 C2.58416583,9.27611667 2.6318325,9.40115 2.69528417,9.51775 C2.77651917,9.66716667 2.88349417,9.80265 3.01609,9.9242 L5.84766417,12.5180917 C5.860195,12.5377083 5.91580917,12.6126 5.9233075,12.635425 C5.92364667,12.6415667 5.924655,12.6525667 5.92599333,12.6657667 C5.9295775,12.7027083 5.93494917,12.7574333 5.931475,12.77485 L5.18019333,16.5297917 C5.14517667,16.7052417 5.13879667,16.8768417 5.1610625,17.0445917 C5.17840583,17.175675 5.21332167,17.3044667 5.26580083,17.430875 C5.3168225,17.5538917 5.38105333,17.6669167 5.45859417,17.7700417 C5.5500225,17.8915917 5.65979333,17.9993 5.78802583,18.093075 C5.91625833,18.1869417 6.05209917,18.2589917 6.1955575,18.3093167 C6.3173,18.3520333 6.44453333,18.379075 6.57723917,18.3905333 C6.71345583,18.4022056 6.84657722,18.3964312 6.97660333,18.373575 L6.9770525,18.3734833 C7.14377583,18.3439667 7.30546667,18.2859417 7.462015,18.1994083 L10.8669917,16.3177667 C10.8890833,16.3120833 10.9762583,16.2834833 11,16.2834833 C11.0221833,16.2892583 11.1123833,16.3064 11.1329167,16.3177667 L14.4539083,18.153025 C14.6139583,18.2413917 14.77905,18.30015 14.9490917,18.3291167 L14.9496417,18.3292083 C15.0813972,18.3516361 15.2162083,18.3562194 15.354075,18.3429583 C15.4882139,18.3300639 15.6165472,18.30125 15.739075,18.2565167 L15.739075,18.2565167 C15.8843667,18.2034417 16.0213167,18.128 16.1502,18.0301 C16.2790833,17.9322917 16.3885333,17.8204583 16.4786417,17.6947833 C16.5546639,17.5888167 16.616875,17.4729194 16.665275,17.3470917 C16.71505,17.21775 16.7468583,17.0864833 16.7606083,16.9532917 C16.7783917,16.7816917 16.7661083,16.606975 16.7239417,16.4291417 L15.2911,10.3934417 C15.20805,10.043825 14.86815,9.83436667 14.5185333,9.917325 C14.1689167,10.0002833 13.9594583,10.340275 14.0424167,10.6898917 L15.4752583,16.7255917 C15.4891,16.7836167 15.4875417,16.8362333 15.470675,16.88335 C15.4537167,16.930375 15.4215417,16.9719917 15.3740583,17.0081083 C15.3264833,17.044225 15.2778083,17.064025 15.2279417,17.0676917 C15.178075,17.0712667 15.126925,17.0587083 15.0747667,17.0298333 L11.753775,15.194575 C11.6365028,15.1297972 11.5150444,15.0812139 11.3894,15.048825 L11.3894,15.0487333 C11.263725,15.016375 11.133925,15.00015 11,15.00015 C10.8659833,15.00015 10.7361833,15.016375 10.6106,15.0487333 C10.484925,15.0811833 10.3635583,15.1297667 10.246225,15.194575 L6.84132167,17.0762167 C6.79006778,17.1045111 6.73982528,17.1171 6.69059417,17.1139833 C6.64136,17.1108667 6.593125,17.0919833 6.5459075,17.057425 C6.49869,17.0228667 6.46613,16.9825333 6.44821833,16.9366083 C6.43031583,16.8905917 6.42718083,16.8388917 6.4386025,16.7815083 L7.18988417,13.0266583 C7.21662333,12.8929167 7.22613833,12.760275 7.21830083,12.6286417 C7.2104725,12.4970083 7.18540167,12.3663833 7.14310667,12.2368583 C7.10081167,12.1072417 7.04385,11.9870667 6.97246,11.8762417 C6.90096,11.7654167 6.8150225,11.6639417 6.7145375,11.5718167 L3.88296333,8.97793417 C3.83966,8.9381875 3.81157333,8.89438917 3.7989325,8.84652083 C3.7862825,8.7986525 3.78896833,8.74672333 3.8071,8.69072417 C3.8251125,8.63473417 3.85330917,8.59100917 3.89147,8.5595675 C3.92974083,8.52812583 3.97807667,8.50894917 4.03648667,8.50205583 L7.88733917,8.04744417 C8.0212825,8.03163167 8.14906583,8.00003417 8.27069833,7.95263333 C8.39233083,7.90524167 8.5078125,7.842065 8.61713417,7.76309417 C8.726465,7.68411417 8.82280667,7.59433583 8.90594833,7.49375 C8.9892,7.39317333 9.0593525,7.28179833 9.11642417,7.15961583 L10.7507583,3.66223 C10.7755083,3.609375 10.8086917,3.56972917 10.850125,3.54330167 C10.89165,3.51687417 10.9416083,3.503665 11,3.503665 C11.0583,3.503665 11.1081667,3.51687417 11.149875,3.54330167 C11.1913083,3.56972917 11.2244917,3.609375 11.2490583,3.66223 L12.8835667,7.15961583 C12.940675,7.28179833 13.0108,7.39317333 13.0939417,7.49375 C13.177175,7.59433583 13.273425,7.68411417 13.382875,7.763085 C13.4922333,7.842065 13.6076417,7.90525083 13.7292833,7.9526425 C13.850925,8.00003417 13.9787083,8.03163167 14.1126333,8.04744417 L17.9633667,8.50205583 C18.0219417,8.50894917 18.0701583,8.52811667 18.1083833,8.5595675 C18.1467,8.59100917 18.1748417,8.63473417 18.1929,8.69072417 C18.21105,8.74672333 18.2137083,8.7986525 18.2010583,8.84652083 C18.1883167,8.89438917 18.1603583,8.9381875 18.1169083,8.97793417 L17.248275,9.77368333 Z M6.8798125,10.5369917 L8.25458333,11.9120833 C8.50859167,12.1661833 8.90784583,12.1661833 9.16196417,11.9120833 C9.41609167,11.658075 9.41618333,11.258775 9.16208333,11.004675 L7.78730333,9.629675 C7.533295,9.375575 7.13393083,9.37548333 6.8798125,9.62958333 C6.62569417,9.88368333 6.62569417,10.2828917 6.8798125,10.5369917 Z" id="合并" stroke="none" fill="#FFFFFF" fill-rule="evenodd"></path>
                            </g>
                        </g>
                    </g>
                </g>
            </g>
        </g>
    </g>
</svg>