<?xml version="1.0" encoding="UTF-8"?>
<svg width="32px" height="32px" viewBox="0 0 32 32" version="1.1" xmlns="http://www.w3.org/2000/svg" xmlns:xlink="http://www.w3.org/1999/xlink">
    <g id="页面-1" stroke="none" stroke-width="1" fill="none" fill-rule="evenodd">
        <g id="编组-46">
            <rect id="矩形备份-12" fill-opacity="0" fill="#D8D8D8" fill-rule="nonzero" x="0" y="0" width="32" height="32"></rect>
            <rect id="矩形备份-12" stroke-opacity="0" stroke="#979797" x="0.5" y="0.5" width="31" height="31"></rect>
            <g id="编组" opacity="0.2" transform="translate(3.000000, 3.000000)" fill="#002FA7">
                <path d="M1.97,0 L23.631,0 C24.719,0 25.6,0.882 25.6,1.969 L25.6,23.631 C25.6,24.718 24.719,25.6 23.631,25.6 L1.97,25.6 C0.882,25.6 0,24.718 0,23.631 L0,1.969 C0,0.882 0.882,0 1.97,0 Z M7.399,13.123 L11.831,13.123 C12.205,13.123 12.508,13.426 12.508,13.8 C12.508,14.174 12.205,14.477 11.831,14.477 L7.399,14.477 C7.025,14.477 6.722,14.174 6.722,13.8 C6.722,13.426 7.025,13.123 7.399,13.123 Z M7.399,16.742 L15.523,16.742 C15.897,16.742 16.2,17.045 16.2,17.419 C16.2,17.792 15.897,18.096 15.523,18.096 L7.399,18.096 C7.025,18.096 6.722,17.792 6.722,17.419 C6.722,17.045 7.025,16.742 7.399,16.742 Z" id="减去顶层"></path>
            </g>
            <path d="M24,13 L19,13 C18.44,13 18,12.55 18,12 L18,7 L24,13 Z" id="矩形-54" fill="#002FA7"></path>
            <path d="M17.4,6.8 L9.8,6.8 C8.695,6.8 7.8,7.695 7.8,8.8 L7.8,22.8 C7.8,23.904 8.695,24.8 9.8,24.8 L21.8,24.8 C22.905,24.8 23.8,23.904 23.8,22.8 L23.8,13.6 L19,13.6 C18.116,13.6 17.4,12.884 17.4,12 L17.4,6.8 Z M10.399,16.123 L14.831,16.123 C15.205,16.123 15.508,16.426 15.508,16.8 C15.508,17.174 15.205,17.477 14.831,17.477 L10.399,17.477 C10.025,17.477 9.722,17.174 9.722,16.8 C9.722,16.426 10.025,16.123 10.399,16.123 Z M10.399,19.742 L18.523,19.742 C18.897,19.742 19.2,20.045 19.2,20.419 C19.2,20.793 18.897,21.096 18.523,21.096 L10.399,21.096 C10.025,21.096 9.722,20.793 9.722,20.419 C9.722,20.045 10.025,19.742 10.399,19.742 Z" id="减去顶层" fill="#002FA7"></path>
        </g>
    </g>
</svg>