<?xml version="1.0" encoding="UTF-8"?>
<svg width="32px" height="32px" viewBox="0 0 32 32" version="1.1" xmlns="http://www.w3.org/2000/svg" xmlns:xlink="http://www.w3.org/1999/xlink">
    <defs>
        <rect id="path-1" x="0" y="0" width="32" height="32"></rect>
        <rect id="path-3" x="0.5" y="0.5" width="31" height="31"></rect>
        <rect id="path-5" x="0" y="0" width="32" height="32"></rect>
        <rect id="path-7" x="0.5" y="0.5" width="31" height="31"></rect>
        <rect id="path-9" x="0" y="0" width="32" height="32"></rect>
        <rect id="path-11" x="0.5" y="0.5" width="31" height="31"></rect>
    </defs>
    <g id="页面-1" stroke="none" stroke-width="1" fill="none" fill-rule="evenodd">
        <g id="编组-71">
            <g id="Clipped">
                <mask id="mask-2" fill="white">
                    <use xlink:href="#path-1"></use>
                </mask>
                <g id="蒙版"></g>
                <g id="编组" opacity="0.2" mask="url(#mask-2)" fill="#002FA7">
                    <g transform="translate(3.364000, 2.752000)" id="减去顶层">
                        <path d="M1.978,-1.42108547e-14 L23.736,-1.42108547e-14 C24.829,-1.42108547e-14 25.714,0.885 25.714,1.978 L25.714,23.736 C25.714,24.828 24.829,25.714 23.736,25.714 L1.978,25.714 C0.886,25.714 0,24.828 0,23.736 L0,1.978 C0,0.885 0.886,-1.42108547e-14 1.978,-1.42108547e-14 Z M18.636,22.998 L6.636,22.998 C6.36,22.998 6.136,23.222 6.136,23.498 C6.136,23.774 6.36,23.998 6.636,23.998 L18.636,23.998 C18.912,23.998 19.136,23.774 19.136,23.498 C19.136,23.222 18.912,22.998 18.636,22.998 Z"></path>
                    </g>
                </g>
                <mask id="mask-4" fill="white">
                    <use xlink:href="#path-3"></use>
                </mask>
                <g id="蒙版"></g>
            </g>
            <g id="Clipped">
                <mask id="mask-6" fill="white">
                    <use xlink:href="#path-5"></use>
                </mask>
                <g id="蒙版"></g>
                <path d="M15.46,24.87 L9.85,18.4 C9.29,17.75 9.75,16.75 10.61,16.75 L21.82,16.75 C22.68,16.75 23.14,17.75 22.58,18.4 L16.97,24.87 C16.57,25.33 15.86,25.33 15.46,24.87 Z" id="多边形-5" fill="#002FA7" mask="url(#mask-6)"></path>
                <mask id="mask-8" fill="white">
                    <use xlink:href="#path-7"></use>
                </mask>
                <g id="蒙版"></g>
            </g>
            <g id="Clipped">
                <mask id="mask-10" fill="white">
                    <use xlink:href="#path-9"></use>
                </mask>
                <g id="蒙版"></g>
                <g id="编组" opacity="0.8" mask="url(#mask-10)" fill="#002FA7" fill-rule="nonzero">
                    <g transform="translate(14.219971, 5.750000)" id="矩形-53">
                        <rect x="0" y="0" width="4" height="10" rx="2"></rect>
                    </g>
                </g>
                <mask id="mask-12" fill="white">
                    <use xlink:href="#path-11"></use>
                </mask>
                <g id="蒙版"></g>
            </g>
        </g>
    </g>
</svg>