<?xml version="1.0" encoding="UTF-8"?>
<svg width="32px" height="32px" viewBox="0 0 32 32" version="1.1" xmlns="http://www.w3.org/2000/svg" xmlns:xlink="http://www.w3.org/1999/xlink">
    <g id="页面-1" stroke="none" stroke-width="1" fill="none" fill-rule="evenodd">
        <g id="编组-72">
            <rect id="矩形备份-12" fill-opacity="0" fill="#D8D8D8" fill-rule="nonzero" x="0" y="0" width="32" height="32"></rect>
            <rect id="矩形备份-12" stroke-opacity="0" stroke="#979797" x="0.5" y="0.5" width="31" height="31"></rect>
            <g id="编组" opacity="0.2" transform="translate(3.200000, 3.200000)" fill="#002FA7">
                <path d="M23.631,1.42108547e-14 L1.969,1.42108547e-14 C0.882,1.42108547e-14 0,0.882 0,1.969 L0,23.631 C0,24.718 0.882,25.6 1.969,25.6 L23.631,25.6 C24.718,25.6 25.6,24.718 25.6,23.631 L25.6,1.969 C25.6,0.882 24.718,1.42108547e-14 23.631,1.42108547e-14 Z M14.992,15.633 L17.024,13.601 C17.301,13.324 17.301,12.888 17.024,12.611 C16.747,12.334 16.311,12.334 16.034,12.611 L14.002,14.644 C13.725,14.921 13.725,15.356 14.002,15.633 C14.279,15.911 14.715,15.911 14.992,15.633 Z" id="减去顶层"></path>
            </g>
            <path d="M11.8,20.98 L7.808,16.918 C7.513,16.617 7.256,16.292 7.037,15.944 L7.037,15.944 C6.856,15.654 6.701,15.348 6.573,15.026 C6.444,14.701 6.345,14.37 6.278,14.032 C6.203,13.656 6.166,13.273 6.16792306,12.882 C6.169,12.491 6.209,12.108 6.288,11.734 C6.358,11.397 6.46,11.066 6.592,10.742 C6.723,10.421 6.88,10.117 7.064,9.829 L7.064,9.829 L7.064,9.829 C7.286,9.482 7.546,9.159 7.844,8.861 C8.144,8.561 8.469,8.3 8.818,8.077 C9.107,7.893 9.414,7.736 9.737,7.604 C10.063,7.472 10.395,7.372 10.733,7.302 C11.111,7.224 11.496,7.186 11.89,7.186 C12.283,7.186 12.668,7.224 13.046,7.302 C13.384,7.372 13.717,7.472 14.042,7.604 C14.366,7.736 14.672,7.893 14.961,8.077 C15.311,8.3 15.635,8.561 15.936,8.861 L16.011,8.937 L16.102,8.846 C16.4,8.548 16.724,8.287 17.072,8.066 C17.36,7.882 17.666,7.725 17.987,7.594 C18.312,7.463 18.643,7.362 18.98,7.293 C19.356,7.216 19.74,7.177 20.132,7.177 C20.524,7.177 20.908,7.216 21.284,7.293 C21.621,7.362 21.952,7.463 22.277,7.594 C22.599,7.725 22.904,7.882 23.192,8.066 C23.54,8.287 23.864,8.548 24.162,8.846 C24.461,9.146 24.722,9.469 24.943,9.817 L24.943,9.817 L24.943,9.817 L24.943,9.817 C25.127,10.105 25.284,10.41 25.415,10.732 C25.546,11.057 25.647,11.388 25.716,11.725 L25.716,11.726 L25.716,11.726 C25.793,12.102 25.832,12.485 25.832,12.877 C25.832,13.269 25.793,13.653 25.716,14.029 C25.647,14.366 25.546,14.697 25.415,15.021 C25.284,15.344 25.127,15.649 24.943,15.937 C24.722,16.285 24.461,16.609 24.162,16.907 L16.498,24.572 C16.455,24.615 16.409,24.652 16.359,24.685 C16.312,24.715 16.262,24.741 16.209,24.762 C16.158,24.782 16.106,24.798 16.053,24.808 C15.997,24.819 15.941,24.823 15.883,24.823 C15.828,24.823 15.774,24.817 15.72,24.806 C15.667,24.795 15.614,24.779 15.562,24.757 C15.511,24.736 15.462,24.71 15.417,24.68 C15.369,24.648 15.324,24.612 15.282,24.57 L11.8,20.98 Z M18.192,18.833 L20.224,16.801 C20.501,16.524 20.501,16.088 20.224,15.811 C19.947,15.534 19.511,15.534 19.234,15.811 L17.202,17.844 C16.925,18.121 16.925,18.556 17.202,18.833 C17.479,19.111 17.915,19.111 18.192,18.833 Z" id="减去顶层" fill="#002FA7"></path>
        </g>
    </g>
</svg>