<?xml version="1.0" encoding="UTF-8"?>
<svg width="32px" height="32px" viewBox="0 0 32 32" version="1.1" xmlns="http://www.w3.org/2000/svg" xmlns:xlink="http://www.w3.org/1999/xlink">
    <defs>
        <rect id="path-1" x="0" y="0" width="32" height="32"></rect>
        <rect id="path-3" x="0.5" y="0.5" width="31" height="31"></rect>
        <rect id="path-5" x="0" y="0" width="32" height="32"></rect>
        <rect id="path-7" x="0.5" y="0.5" width="31" height="31"></rect>
    </defs>
    <g id="页面-1" stroke="none" stroke-width="1" fill="none" fill-rule="evenodd">
        <g id="编组-73">
            <g id="Clipped">
                <mask id="mask-2" fill="white">
                    <use xlink:href="#path-1"></use>
                </mask>
                <g id="蒙版"></g>
                <g id="编组" opacity="0.2" mask="url(#mask-2)" fill="#002FA7">
                    <g transform="translate(3.365000, 3.750000)" id="减去顶层">
                        <path d="M23.737,0 L1.979,0 C0.886,0 0,0.886 0,1.979 L0,23.737 C0,24.829 0.886,25.715 1.979,25.715 L23.737,25.715 C24.829,25.715 25.715,24.829 25.715,23.737 L25.715,1.979 C25.715,0.886 24.829,0 23.737,0 Z M8.168,8 L17.832,8 C18.243,8 18.576,8.333 18.576,8.743 C18.576,9.154 18.243,9.487 17.832,9.487 L8.168,9.487 C7.758,9.487 7.425,9.154 7.425,8.743 C7.425,8.333 7.758,8 8.168,8 Z M8.168,10.974 L15.23,10.974 C15.641,10.974 15.974,11.307 15.974,11.717 C15.974,12.128 15.641,12.46 15.23,12.46 L8.168,12.46 C7.758,12.46 7.425,12.128 7.425,11.717 C7.425,11.307 7.758,10.974 8.168,10.974 Z"></path>
                    </g>
                </g>
                <mask id="mask-4" fill="white">
                    <use xlink:href="#path-3"></use>
                </mask>
                <g id="蒙版"></g>
            </g>
            <g id="Clipped">
                <mask id="mask-6" fill="white">
                    <use xlink:href="#path-5"></use>
                </mask>
                <g id="蒙版"></g>
                <path d="M24.165,7.75 L8.565,7.75 C7.902,7.75 7.365,8.265 7.365,8.899 L7.365,20.392 C7.365,21.027 7.902,21.541 8.565,21.541 L10.372,21.541 L10.372,25.462 C10.372,25.716 10.69,25.845 10.88,25.669 L15.34,21.541 L24.165,21.541 C24.828,21.541 25.365,21.027 25.365,20.392 L25.365,8.899 C25.365,8.265 24.828,7.75 24.165,7.75 Z M11.533,11.75 L21.197,11.75 C21.608,11.75 21.94,12.083 21.94,12.493 C21.94,12.904 21.608,13.237 21.197,13.237 L11.533,13.237 C11.123,13.237 10.79,12.904 10.79,12.493 C10.79,12.083 11.123,11.75 11.533,11.75 Z M11.533,14.724 L18.595,14.724 C19.006,14.724 19.339,15.056 19.339,15.467 C19.339,15.878 19.006,16.21 18.595,16.21 L11.533,16.21 C11.123,16.21 10.79,15.878 10.79,15.467 C10.79,15.056 11.123,14.724 11.533,14.724 Z" id="减去顶层" fill="#002FA7" mask="url(#mask-6)"></path>
                <mask id="mask-8" fill="white">
                    <use xlink:href="#path-7"></use>
                </mask>
                <g id="蒙版"></g>
            </g>
        </g>
    </g>
</svg>