<?xml version="1.0" encoding="UTF-8"?>
<svg width="32px" height="32px" viewBox="0 0 32 32" version="1.1" xmlns="http://www.w3.org/2000/svg" xmlns:xlink="http://www.w3.org/1999/xlink">
    <defs>
        <rect id="path-1" x="0" y="0" width="32" height="32"></rect>
    </defs>
    <g id="页面-1" stroke="none" stroke-width="1" fill="none" fill-rule="evenodd">
        <g id="编组-73备份" transform="translate(0.000000, 0.000000)">
            <g id="Clipped">
                <mask id="mask-2" fill="white">
                    <use xlink:href="#path-1"></use>
                </mask>
                <g id="蒙版"></g>
                <g id="编组" opacity="0.2" mask="url(#mask-2)" fill="#4374F2">
                    <g transform="translate(3.365000, 3.750000)" id="减去顶层">
                        <path d="M23.737,0 L1.979,0 C0.886,0 0,0.886 0,1.979 L0,23.737 C0,24.829 0.886,25.715 1.979,25.715 L23.737,25.715 C24.829,25.715 25.715,24.829 25.715,23.737 L25.715,1.979 C25.715,0.886 24.829,0 23.737,0 Z M8.168,8 L17.832,8 C18.243,8 18.576,8.333 18.576,8.743 C18.576,9.154 18.243,9.487 17.832,9.487 L8.168,9.487 C7.758,9.487 7.425,9.154 7.425,8.743 C7.425,8.333 7.758,8 8.168,8 Z M8.168,10.974 L15.23,10.974 C15.641,10.974 15.974,11.307 15.974,11.717 C15.974,12.128 15.641,12.46 15.23,12.46 L8.168,12.46 C7.758,12.46 7.425,12.128 7.425,11.717 C7.425,11.307 7.758,10.974 8.168,10.974 Z"></path>
                    </g>
                </g>
            </g>
            <g id="Clipped" transform="translate(7.365000, 7.750000)" fill="#4374F2">
                <path d="M16.8,0 L1.2,0 C0.537,0 0,0.515 0,1.149 L0,12.642 C0,13.277 0.537,13.791 1.2,13.791 L3.007,13.791 L3.007,17.712 C3.007,17.966 3.325,18.095 3.515,17.919 L7.975,13.791 L16.8,13.791 C17.463,13.791 18,13.277 18,12.642 L18,1.149 C18,0.515 17.463,0 16.8,0 Z M4.168,4 L13.832,4 C14.243,4 14.575,4.333 14.575,4.743 C14.575,5.154 14.243,5.487 13.832,5.487 L4.168,5.487 C3.758,5.487 3.425,5.154 3.425,4.743 C3.425,4.333 3.758,4 4.168,4 Z M4.168,6.974 L11.23,6.974 C11.641,6.974 11.974,7.306 11.974,7.717 C11.974,8.128 11.641,8.46 11.23,8.46 L4.168,8.46 C3.758,8.46 3.425,8.128 3.425,7.717 C3.425,7.306 3.758,6.974 4.168,6.974 Z" id="减去顶层"></path>
            </g>
        </g>
    </g>
</svg>