<?xml version="1.0" encoding="UTF-8"?>
<svg width="32px" height="32px" viewBox="0 0 32 32" version="1.1" xmlns="http://www.w3.org/2000/svg" xmlns:xlink="http://www.w3.org/1999/xlink">
    <g id="页面-1" stroke="none" stroke-width="1" fill="none" fill-rule="evenodd">
        <g id="编组-70备份" transform="translate(0.000000, 0.000000)">
            <rect id="矩形备份-12" fill-opacity="0" fill="#D8D8D8" fill-rule="nonzero" x="0" y="0" width="32" height="32"></rect>
            <rect id="矩形备份-12" stroke-opacity="0" stroke="#979797" x="0.5" y="0.5" width="31" height="31"></rect>
            <g id="编组" opacity="0.2" transform="translate(3.007000, 3.000000)" fill="#4374F2">
                <path d="M1.969,0 L23.631,0 C24.718,0 25.6,0.882 25.6,1.969 L25.6,23.631 C25.6,24.718 24.718,25.6 23.631,25.6 L1.969,25.6 C0.881,25.6 0,24.718 0,23.631 L0,1.969 C0,0.882 0.881,0 1.969,0 Z M8.394,8.319 L16.193,8.319 C16.525,8.319 16.794,8.587 16.794,8.919 C16.794,9.25 16.525,9.519 16.193,9.519 L8.394,9.519 C8.062,9.519 7.794,9.25 7.794,8.919 C7.794,8.587 8.062,8.319 8.394,8.319 Z M12.193,11.319 L8.394,11.319 C8.062,11.319 7.794,11.587 7.794,11.919 C7.794,12.25 8.062,12.519 8.394,12.519 L12.193,12.519 C12.525,12.519 12.794,12.25 12.794,11.919 C12.794,11.587 12.525,11.319 12.193,11.319 Z" id="减去顶层"></path>
            </g>
            <path d="M22.807,7.3 C23.01,7.3 23.207,7.33 23.392,7.387 C23.31,7.411 23.23,7.439 23.151,7.473 C23.026,7.525 22.909,7.588 22.798,7.661 C22.674,7.743 22.558,7.837 22.451,7.944 C22.344,8.052 22.25,8.167 22.168,8.291 C22.095,8.402 22.032,8.519 21.98,8.644 C21.928,8.76666667 21.8876667,8.89233333 21.859,9.021 C21.8243333,9.17633333 21.807,9.336 21.807,9.5 L21.807,12.5 L21.807,12.5 L21.807,21.3 C21.807,22.377 21.239,23.322 20.387,23.851 C20.291,23.828 20.198,23.797 20.106,23.759 C20.006,23.716 19.911,23.666 19.821,23.607 C19.719,23.54 19.623,23.461 19.534,23.373 C19.445,23.284 19.367,23.188 19.3,23.085 C19.241,22.996 19.191,22.901 19.148,22.801 C19.107,22.702 19.074,22.602 19.051,22.5 C19.022,22.37 19.007,22.237 19.007,22.1 L19.007,20.9 L8.807,20.9 L8.807,9.3 C8.807,8.196 9.702,7.3 10.807,7.3 L22.807,7.3 Z M22.207,9.5 L22.207,12.3 L24.807,12.3 L24.807,9.3 C24.807,8.646 24.493,8.065 24.007,7.7 C23.8703333,7.7 23.737,7.71466667 23.607,7.744 C23.505,7.767 23.404,7.8 23.306,7.841 C23.206,7.884 23.111,7.934 23.021,7.993 L23.021,7.993 L23.021,7.993 C22.9183333,8.06033333 22.8226667,8.13833333 22.734,8.227 C22.645,8.316 22.567,8.412 22.5,8.514 C22.441,8.604 22.391,8.699 22.348,8.799 C22.307,8.897 22.274,8.998 22.251,9.1 L22.251,9.1 L22.251,9.1 C22.2216667,9.23 22.207,9.36333333 22.207,9.5 Z M11.401,11.3 L19.201,11.3 C19.532,11.3 19.801,11.569 19.801,11.9 C19.801,12.231 19.532,12.5 19.201,12.5 L11.401,12.5 C11.069,12.5 10.801,12.231 10.801,11.9 C10.801,11.569 11.069,11.3 11.401,11.3 Z M15.201,14.3 L11.401,14.3 C11.069,14.3 10.801,14.569 10.801,14.9 C10.801,15.231 11.069,15.5 11.401,15.5 L15.201,15.5 C15.532,15.5 15.801,15.231 15.801,14.9 C15.801,14.569 15.532,14.3 15.201,14.3 Z M8.807,21.3 L8.807,21.3 L6.807,21.3 L6.807,22.3 C6.807,23.405 7.702,24.3 8.807,24.3 L18.807,24.3 C19.188,24.3 19.553,24.229 19.888,24.099 C19.7866667,24.053 19.69,23.9996667 19.598,23.939 L19.598,23.939 C19.474,23.857 19.358,23.763 19.251,23.656 C19.144,23.548 19.05,23.433 18.968,23.309 C18.895,23.198 18.832,23.081 18.78,22.956 C18.728,22.833 18.688,22.708 18.659,22.579 C18.624,22.423 18.607,22.264 18.607,22.1 L18.607,21.3 L8.807,21.3 Z" id="减去顶层" fill="#4374F2"></path>
        </g>
    </g>
</svg>