<?xml version="1.0" encoding="UTF-8"?>
<svg width="32px" height="32px" viewBox="0 0 32 32" version="1.1" xmlns="http://www.w3.org/2000/svg" xmlns:xlink="http://www.w3.org/1999/xlink">
    <g id="页面-1" stroke="none" stroke-width="1" fill="none" fill-rule="evenodd">
        <g id="编组-43">
            <rect id="矩形" fill-opacity="0" fill="#D8D8D8" fill-rule="nonzero" x="0" y="0" width="32" height="32"></rect>
            <rect id="矩形" stroke-opacity="0" stroke="#979797" x="0.5" y="0.5" width="31" height="31"></rect>
            <rect id="矩形-31" fill="#002FA7" fill-rule="nonzero" x="3.200073" y="3.199951" width="12.126317" height="12.126316" rx="2.357895"></rect>
            <path d="M27.34,17.72 C26.92,17.48 26.44,17.34 25.92,17.34 C24.33,17.34 23.04,18.63 23.04,20.22 C23.04,20.53 23.09,20.83 23.18,21.11 L16.86,26.8 C16.62,27.01 16.6,27.38 16.82,27.61 L17.59,28.47 C17.8,28.7 18.16,28.72 18.4,28.51 L24.71,22.83 C25.07,23 25.48,23.1 25.92,23.1 C27.51,23.1 28.8,21.81 28.8,20.22 C28.8,19.78 28.7,19.36 28.52,18.99 L26.7,20.62 L25.55,19.34 L27.34,17.72 Z" id="形状结合" fill="#002FA7"></path>
            <g id="编组" opacity="0.8" transform="translate(17.018985, 17.632905)" fill="#002FA7">
                <path d="M3.42301456,5.15709452 L0.157014563,1.69809452 C-0.0499854374,1.47809452 -0.0529854374,1.13509452 0.152014563,0.913094517 L0.821014563,0.186094517 C1.04001456,-0.0529054826 1.41301456,-0.0629054826 1.64601456,0.163094517 L5.20201456,3.62009452 L3.42301456,5.15709452 Z M7.65701456,6.08409452 L10.8430146,8.88909452 C11.0980146,9.11409452 11.1050146,9.50909452 10.8570146,9.74109452 L9.59601456,10.9280945 C9.36701456,11.1430945 9.00901456,11.1350945 8.78901456,10.9110945 L5.71201456,7.75909452 L7.65701456,6.08409452 Z" id="合并"></path>
            </g>
            <g id="编组" opacity="0.3" transform="translate(3.200012, 16.673584)" fill="#002FA7" fill-rule="nonzero">
                <rect id="矩形-37" x="0" y="0" width="12.126317" height="12.126316" rx="2.357895"></rect>
            </g>
            <g id="编组" opacity="0.5" transform="translate(16.673706, 3.199951)" fill="#002FA7" fill-rule="nonzero">
                <rect id="矩形-31" x="0" y="0" width="12.126317" height="12.126316" rx="2.357895"></rect>
            </g>
        </g>
    </g>
</svg>