<?xml version="1.0" encoding="UTF-8"?>
<svg width="32px" height="32px" viewBox="0 0 32 32" version="1.1" xmlns="http://www.w3.org/2000/svg" xmlns:xlink="http://www.w3.org/1999/xlink">
    <g id="页面-1" stroke="none" stroke-width="1" fill="none" fill-rule="evenodd">
        <g id="编组-42" transform="translate(0.000000, 0.000000)">
            <rect id="矩形备份-23" fill-opacity="0" fill="#D8D8D8" fill-rule="nonzero" x="0" y="0" width="32" height="32"></rect>
            <rect id="矩形备份-24" stroke-opacity="0" stroke="#979797" x="0.5" y="0.5" width="31" height="31"></rect>
            <g id="编组备份-6" opacity="0.2" transform="translate(3.143000, 3.143000)" fill="#4374F2">
                <path d="M23.736,0 L1.978,0 C0.885,0 0,0.885 0,1.978 L0,23.736 C0,24.828 0.885,25.714 1.978,25.714 L23.736,25.714 C24.829,25.714 25.714,24.828 25.714,23.736 L25.714,1.978 C25.714,0.885 24.829,0 23.736,0 Z M9.89,21.099 L21.758,21.099 C22.122,21.099 22.417,21.394 22.417,21.758 C22.417,22.122 22.122,22.417 21.758,22.417 L9.89,22.417 C9.526,22.417 9.231,22.122 9.231,21.758 C9.231,21.394 9.526,21.099 9.89,21.099 Z" id="减去顶层"></path>
            </g>
            <rect id="矩形-34备份" fill="#4374F2" fill-rule="nonzero" x="6.238525" y="10.069336" width="10.07653" height="2.519132" rx="1.259566"></rect>
            <rect id="矩形-39备份" fill="#4374F2" fill-rule="nonzero" x="6.238525" y="13.8479" width="7.557397" height="2.519132" rx="1.259566"></rect>
            <path d="M21.211,8.619 C22.003,7.484 23.562,7.208 24.694,8.005 C25.827,8.802 26.103,10.368 25.311,11.504 L24.554,12.59 L20.454,9.705 L21.211,8.619 Z M12.911,20.53 L19.737,10.735 L23.837,13.62 L17.012,23.415 C16.875,23.611 16.686,23.764 16.466,23.855 L13.407,25.133 C12.982,25.311 12.516,24.983 12.537,24.521 L12.686,21.196 C12.697,20.957 12.775,20.726 12.911,20.53 Z" id="减去顶层备份" fill="#4374F2"></path>
        </g>
    </g>
</svg>