<!-- Generated by IcoMoon.io -->
<svg version="1.1" xmlns="http://www.w3.org/2000/svg" width="32" height="32" viewBox="0 0 32 32">
    <path fill="currentColor"
        d="M24.667 2.733c1.043 0 1.893 0.826 1.932 1.859l0.001 0.074v7.013c0 0.331-0.269 0.6-0.6 0.6-0.315 0-0.573-0.242-0.598-0.551l-0.002-0.049v-7.013c0-0.387-0.3-0.705-0.681-0.732l-0.052-0.002h-18.815c-0.305 0-0.559 0.243-0.583 0.556l-0.002 0.050v22.794c0 0.387 0.3 0.705 0.681 0.732l0.052 0.002h5.675c0.331 0 0.6 0.269 0.6 0.6 0 0.315-0.242 0.573-0.551 0.598l-0.049 0.002h-5.675c-1.043 0-1.893-0.826-1.932-1.859l-0.001-0.074v-22.794c0-0.971 0.758-1.767 1.713-1.805l0.072-0.001h18.815z">
    </path>
    <path fill="currentColor"
        d="M22 6.733h-13.333c-0.331 0-0.6 0.269-0.6 0.6v4c0 0.331 0.269 0.6 0.6 0.6h13.333c0.331 0 0.6-0.269 0.6-0.6v-4c0-0.331-0.269-0.6-0.6-0.6zM21.4 7.933v2.8h-12.133v-2.8h12.133z">
    </path>
    <path fill="currentColor"
        d="M19.333 14.233c0.331 0 0.6 0.269 0.6 0.6 0 0.315-0.242 0.573-0.551 0.598l-0.049 0.002h-10.667c-0.331 0-0.6-0.269-0.6-0.6 0-0.315 0.242-0.573 0.551-0.598l0.049-0.002h10.667z">
    </path>
    <path fill="currentColor"
        d="M14.667 17.9c0.331 0 0.6 0.269 0.6 0.6 0 0.315-0.242 0.573-0.551 0.598l-0.049 0.002h-6c-0.331 0-0.6-0.269-0.6-0.6 0-0.315 0.242-0.573 0.551-0.598l0.049-0.002h6z">
    </path>
    <path fill="currentColor"
        d="M24.502 13.545c0.223-0.223 0.577-0.234 0.812-0.033l0.036 0.033 3.771 3.771c0.223 0.223 0.234 0.577 0.033 0.812l-0.033 0.036-1.949 1.949c-0.22 0.22-0.57 0.234-0.806 0.038l-0.036-0.033-3.398-3.307-6.416 6.416-0.882 3.929 3.796-0.998 5.458-5.458c0.223-0.223 0.577-0.234 0.812-0.033l0.036 0.033c0.223 0.223 0.234 0.577 0.033 0.812l-0.033 0.036-5.573 5.573c-0.060 0.060-0.132 0.107-0.211 0.137l-0.061 0.019-4.907 1.29c-0.418 0.11-0.806-0.244-0.747-0.661l0.009-0.050 1.136-5.061c0.021-0.092 0.063-0.178 0.123-0.251l0.038-0.042 8.957-8.957zM24.926 14.818l-1.145 1.145 2.962 2.883 1.106-1.106-2.923-2.923z">
    </path>
</svg>