<!-- Generated by IcoMoon.io -->
<svg version="1.1" xmlns="http://www.w3.org/2000/svg" width="32" height="32" viewBox="0 0 32 32">
<path fill="currentColor" d="M28 21.084c0.315 0 0.573 0.242 0.598 0.551l0.002 0.049v5.053c0 1.005-0.795 1.823-1.79 1.862l-0.073 0.001h-5.053c-0.331 0-0.6-0.269-0.6-0.6 0-0.315 0.242-0.573 0.551-0.598l0.049-0.002h5.053c0.35 0 0.636-0.271 0.661-0.614l0.002-0.049v-5.053c0-0.331 0.269-0.6 0.6-0.6zM4 21.084c0.315 0 0.573 0.242 0.598 0.551l0.002 0.049v5.053c0 0.35 0.271 0.636 0.614 0.661l0.050 0.002h5.053c0.331 0 0.6 0.269 0.6 0.6 0 0.315-0.242 0.573-0.551 0.598l-0.049 0.002h-5.053c-1.005 0-1.823-0.795-1.862-1.79l-0.001-0.073v-5.053c0-0.331 0.269-0.6 0.6-0.6zM21.053 23.295c0.331 0 0.6 0.269 0.6 0.6 0 0.315-0.242 0.573-0.551 0.598l-0.049 0.002h-10.105c-0.331 0-0.6-0.269-0.6-0.6 0-0.315 0.242-0.573 0.551-0.598l0.049-0.002h10.105zM16 7.4c2.541 0 4.6 2.059 4.6 4.6 0 1.399-0.63 2.693-1.683 3.558l-0.001 1.316 3.822 0c1.005 0 1.823 0.795 1.862 1.79l0.001 0.073v2.105c0 0.773-0.608 1.404-1.372 1.44l-0.070 0.002h-14.316c-0.773 0-1.404-0.608-1.44-1.372l-0.002-0.070v-2.105c0-1.005 0.795-1.823 1.79-1.862l0.073-0.001 3.821-0 0-1.315c-1.054-0.864-1.684-2.159-1.684-3.558 0-2.54 2.059-4.6 4.6-4.6zM16 8.6c-1.878 0-3.4 1.522-3.4 3.4 0 1.121 0.546 2.15 1.446 2.783 0.207 0.146 0.294 0.4 0.238 0.632l0.001 2.037c0 0.007 0 0.014 0 0.022 0 0.227-0.126 0.424-0.312 0.526-0.006 0.002-0.011 0.005-0.017 0.008-0.016 0.009-0.033 0.017-0.051 0.023-0.003 0.001-0.006 0.002-0.009 0.003-0.016 0.007-0.033 0.012-0.050 0.017-0.010 0.002-0.019 0.005-0.029 0.007-0.011 0.003-0.023 0.005-0.035 0.007s-0.023 0.003-0.035 0.005c-0.004 0.001-0.008 0.001-0.013 0.001l-0.049 0.002h-4.422c-0.35 0-0.636 0.271-0.661 0.614l-0.002 0.049v2.105c0 0.123 0.091 0.224 0.209 0.24l0.033 0.002h14.316c0.123 0 0.224-0.091 0.24-0.209l0.002-0.033v-2.105c0-0.35-0.271-0.636-0.614-0.661l-0.049-0.002-4.499-0.005c-0.296-0.037-0.525-0.289-0.525-0.595l0.002-0.036 0-2.070c0-0.030 0.002-0.059 0.006-0.088-0.008-0.195 0.080-0.39 0.251-0.511 0.889-0.635 1.427-1.656 1.427-2.769 0-1.878-1.522-3.4-3.4-3.4zM26.737 3.4c1.005 0 1.823 0.795 1.862 1.79l0.001 0.073v5.053c0 0.331-0.269 0.6-0.6 0.6-0.315 0-0.573-0.242-0.598-0.551l-0.002-0.049v-5.053c0-0.35-0.271-0.636-0.614-0.661l-0.049-0.002h-5.053c-0.331 0-0.6-0.269-0.6-0.6 0-0.315 0.242-0.573 0.551-0.598l0.049-0.002h5.053zM10.316 3.4c0.331 0 0.6 0.269 0.6 0.6 0 0.315-0.242 0.573-0.551 0.598l-0.049 0.002h-5.053c-0.35 0-0.636 0.271-0.661 0.614l-0.002 0.050v5.053c0 0.331-0.269 0.6-0.6 0.6-0.315 0-0.573-0.242-0.598-0.551l-0.002-0.049v-5.053c0-1.005 0.795-1.823 1.79-1.862l0.073-0.001h5.053z"></path>
</svg>
