<!-- Generated by IcoMoon.io -->
<svg version="1.1" xmlns="http://www.w3.org/2000/svg" width="32" height="32" viewBox="0 0 32 32">
<path fill="currentColor" d="M15.986 11.165c1.958-1.058 3.858-1.22 4.917-0.161 0.807 0.807 0.905 2.104 0.436 3.543l-0.066 0.193c-0.392 1.096-1.104 2.264-2.073 3.355l-0.174 0.192c-0.118 0.127-0.239 0.253-0.363 0.378s-0.25 0.246-0.378 0.363l-0.192 0.174c-0.375 0.333-0.759 0.636-1.146 0.906 1.397 0.639 2.633 0.704 3.247 0.090 0.411-0.411 0.534-1.127 0.322-2.056-0.061-0.269 0.107-0.537 0.376-0.599s0.537 0.107 0.599 0.376c0.281 1.233 0.099 2.296-0.59 2.985-0.807 0.807-2.105 0.905-3.543 0.436l-0.193-0.066c-0.322-0.115-0.651-0.258-0.982-0.427l-0.199-0.105c-0.011-0.006-0.023-0.012-0.034-0.018l-0.031 0.018-0.199 0.105c-0.331 0.169-0.66 0.312-0.982 0.427l-0.193 0.066c-1.439 0.469-2.736 0.371-3.543-0.436-1.023-1.023-0.907-2.831 0.057-4.718l0.105-0.199c0.108-0.199 0.225-0.399 0.35-0.598l0.129-0.199c0.022-0.033 0.044-0.066 0.067-0.1l0.138-0.199 0.143-0.198c0.366-0.495 0.784-0.982 1.251-1.449s0.954-0.886 1.449-1.251l0.198-0.143 0.066-0.046-0.34-0.146-0.187-0.071-0.184-0.064c-1.096-0.361-2.027-0.317-2.534 0.191-0.429 0.429-0.544 1.192-0.293 2.176 0.068 0.268-0.094 0.54-0.361 0.608s-0.54-0.094-0.608-0.361c-0.329-1.294-0.161-2.414 0.555-3.13 1.059-1.059 2.959-0.897 4.917 0.161l0.033 0.017zM11.8 16.947l-0.010 0.027c-0.63 1.386-0.69 2.611-0.080 3.222 0.614 0.614 1.851 0.55 3.248-0.092-0.387-0.267-0.771-0.57-1.146-0.903l-0.192-0.174c-0.127-0.118-0.253-0.239-0.378-0.363-0.544-0.544-1.030-1.123-1.443-1.716zM15.954 12.343l-0.325 0.211c-0.566 0.384-1.135 0.852-1.679 1.396-0.704 0.704-1.28 1.45-1.713 2.177l0.105-0.174c0.431 0.69 0.975 1.371 1.608 2.004 0.648 0.648 1.331 1.187 2.003 1.607 0.671-0.419 1.355-0.958 2.004-1.607s1.188-1.333 1.608-2.005c-0.432-0.689-0.976-1.37-1.608-2.002-0.648-0.648-1.331-1.187-2.003-1.607zM20.196 11.711c-0.507-0.507-1.439-0.551-2.534-0.191l-0.184 0.064-0.187 0.071c-0.112 0.045-0.226 0.093-0.34 0.146l0.066 0.047 0.198 0.143c0.495 0.366 0.982 0.784 1.449 1.251 0.544 0.544 1.028 1.121 1.441 1.714 0.641-1.397 0.705-2.633 0.091-3.246z"></path>
<path fill="currentColor" d="M14.735 3.018c0.758-0.422 1.673-0.438 2.443-0.047l0.088 0.047 9.667 5.386c0.796 0.444 1.3 1.271 1.333 2.177l0.002 0.094v10.65c0 0.912-0.477 1.754-1.253 2.224l-0.081 0.047-0.518 0.289c-0.289 0.161-0.655 0.057-0.816-0.232-0.153-0.274-0.068-0.617 0.188-0.789l0.044-0.027 0.518-0.289c0.421-0.235 0.691-0.669 0.717-1.147l0.002-0.076v-10.65c0-0.482-0.248-0.929-0.653-1.184l-0.065-0.039-9.667-5.386c-0.4-0.223-0.882-0.235-1.291-0.037l-0.071 0.037-9.667 5.386c-0.421 0.235-0.691 0.669-0.717 1.147l-0.002 0.076v10.65c0 0.482 0.248 0.929 0.653 1.184l0.065 0.039 9.667 5.386c0.4 0.223 0.882 0.235 1.291 0.037l0.071-0.037 5.282-2.943c0.289-0.161 0.655-0.057 0.816 0.232 0.153 0.274 0.068 0.617-0.188 0.789l-0.044 0.027-5.282 2.943c-0.758 0.422-1.673 0.438-2.443 0.047l-0.088-0.047-9.667-5.386c-0.796-0.444-1.3-1.271-1.333-2.177l-0.002-0.094v-10.65c0-0.912 0.477-1.754 1.253-2.224l0.081-0.047 9.667-5.386z"></path>
</svg>
