<?xml version="1.0" encoding="UTF-8"?>
<svg width="16px" height="16px" viewBox="0 0 16 16" version="1.1" xmlns="http://www.w3.org/2000/svg"
    xmlns:xlink="http://www.w3.org/1999/xlink">
    <g id="画板备份" stroke="none" stroke-width="1" fill="none" fill-rule="evenodd">
        <g id="编组">
            <rect id="矩形" x="0" y="0" width="16" height="16"></rect>
            <path
                d="M7.99294109,5.58229803 C8.97202139,5.0531607 9.92215338,4.97240591 10.4514821,5.50173461 C10.8552073,5.90545988 10.9040291,6.5539788 10.6696928,7.27342848 L10.6367763,7.36976017 C10.4408122,7.91784864 10.0850237,8.50201773 9.60035579,9.04727697 L9.51349461,9.14308002 C9.45470366,9.2066591 9.3941541,9.26963857 9.33189634,9.33189634 C9.26963857,9.3941541 9.2066591,9.45470366 9.14308002,9.51349461 L9.04727697,9.60035579 C8.85986434,9.76694239 8.66785495,9.91830338 8.47429385,10.0531822 C9.17285883,10.3727223 9.79090332,10.404954 10.0979287,10.0979287 C10.3034593,9.89239803 10.3648605,9.53431881 10.259066,9.0698939 C10.2283994,8.93527141 10.3126723,8.80127816 10.4472948,8.77061159 C10.5819173,8.73994502 10.7159105,8.82421794 10.7465771,8.95884043 C10.8870717,9.57559443 10.7959467,10.1070175 10.4514821,10.4514821 C10.0477568,10.8552073 9.39923788,10.9040291 8.6797882,10.6696928 L8.58345651,10.6367763 C8.42225402,10.5791398 8.25793037,10.5076777 8.09239352,10.4231772 L7.99294109,10.3709186 C7.98729893,10.3678694 7.98165581,10.3648052 7.9760118,10.3617262 L7.9602756,10.3709186 L7.86082316,10.4231772 C7.69528631,10.5076777 7.53096266,10.5791398 7.36976017,10.6367763 L7.27342848,10.6696928 C6.5539788,10.9040291 5.90545988,10.8552073 5.50173461,10.4514821 C4.99034926,9.94009673 5.04838684,9.03595358 5.53003946,8.09239352 L5.58229803,7.99294109 C5.63610861,7.8933736 5.69455629,7.79350673 5.75747102,7.6937526 L5.82186847,7.59405132 C5.83284744,7.57744579 5.84394893,7.56084721 5.85517214,7.54425748 L5.92396577,7.44484065 L5.99564295,7.34572794 C6.17840884,7.09840262 6.38785372,6.85478697 6.62132034,6.62132034 C6.85478697,6.38785372 7.09840262,6.17840884 7.34572794,5.99564295 L7.44484065,5.92396577 L7.47779548,5.90079548 L7.30777509,5.82762265 L7.21435537,5.79195364 L7.12232183,5.76000726 C6.57454673,5.57955609 6.10885064,5.60172535 5.855288,5.855288 C5.64069526,6.06988074 5.58345869,6.45116255 5.708668,6.9435253 C5.74269682,7.07733746 5.66180646,7.21339945 5.52799431,7.24742828 C5.39418216,7.28145711 5.25812016,7.20056674 5.22409133,7.06675459 C5.05951372,6.41958318 5.14352452,5.85994469 5.50173461,5.50173461 C6.0310633,4.97240591 6.98119529,5.0531607 7.9602756,5.58229803 L7.97679548,5.59079548 Z M5.9000455,8.47365694 L5.8952631,8.48702507 C5.58012588,9.18013939 5.5500737,9.79271439 5.855288,10.0979287 C6.16239406,10.4050347 6.78068276,10.3727054 7.47908892,10.0520609 C7.28536173,9.91830338 7.09335234,9.76694239 6.90593971,9.60035579 L6.81013666,9.51349461 C6.74655759,9.45470366 6.68357811,9.3941541 6.62132034,9.33189634 C6.34915492,9.05973091 6.1065386,8.77035453 5.9000455,8.47365694 Z M7.97696219,6.17132253 L7.81431466,6.27692721 C7.53132166,6.46914568 7.24694299,6.70280448 6.97487373,6.97487373 C6.62278411,7.32696336 6.33502203,7.69966806 6.11815417,8.06330633 L6.17079632,7.97652348 C6.38634358,8.32156342 6.65852639,8.6619956 6.97487373,8.97834295 C7.29894753,9.30241675 7.64048623,9.57199282 7.97634481,9.78195061 C8.3120521,9.57252817 8.65394733,9.30273857 8.97834295,8.97834295 C9.30273857,8.65394733 9.57252817,8.3120521 9.78257592,7.97587132 C9.56649355,7.63112983 9.29439053,7.29092132 8.97834295,6.97487373 C8.6542982,6.65082898 8.31279167,6.38127219 7.97696219,6.17132253 Z M10.0979287,5.855288 C9.84436604,5.60172535 9.37866995,5.57955609 8.83089486,5.76000726 L8.73886132,5.79195364 L8.6454416,5.82762265 C8.58936546,5.84998942 8.53262174,5.87432473 8.47533801,5.90060036 L8.50837603,5.92396577 L8.60748874,5.99564295 C8.85481406,6.17840884 9.09842971,6.38785372 9.33189634,6.62132034 C9.60365663,6.89308063 9.84602351,7.18205951 10.0524559,7.47853685 C10.3727363,6.78009032 10.4048876,6.16224691 10.0979287,5.855288 Z"
                id="形状结合" fill="#8702B3" fill-rule="nonzero"></path>
            <path
                d="M7.36728719,1.50909224 C7.74606297,1.29806002 8.20402384,1.29024401 8.58866517,1.48564421 L8.63271281,1.50909224 L13.4660461,4.20194938 C13.8642487,4.42380509 14.1161358,4.83729056 14.1324858,5.29056191 L14.1333333,5.33758775 L14.1333333,10.6624122 C14.1333333,11.1182469 13.8947197,11.5395317 13.5067139,11.7744227 L13.4660461,11.7980506 L13.2069629,11.942397 C13.0622254,12.0230365 12.8795213,11.9710748 12.7988818,11.8263373 C12.7224865,11.6892176 12.7651017,11.5180225 12.8928651,11.4318165 L12.9149416,11.4182562 L13.1740248,11.2739098 C13.3847448,11.1565087 13.5193727,10.9394498 13.5323087,10.7003386 L13.5333333,10.6624122 L13.5333333,5.33758775 C13.5333333,5.09637021 13.4092413,4.87312047 13.2066574,4.74544405 L13.1740248,4.72609017 L8.34069151,2.03323302 C8.14065756,1.92178554 7.89960964,1.91559401 7.69501858,2.01465844 L7.65930849,2.03323302 L2.82597516,4.72609017 C2.61525524,4.84349127 2.48062725,5.06055018 2.46769125,5.2996614 L2.46666667,5.33758775 L2.46666667,10.6624122 C2.46666667,10.9036298 2.59075865,11.1268795 2.79334258,11.254556 L2.82597516,11.2739098 L7.65930849,13.966767 C7.85934244,14.0782145 8.10039036,14.084406 8.30498142,13.9853416 L8.34069151,13.966767 L10.9814576,12.495483 C11.126195,12.4148436 11.3088991,12.4668053 11.3895386,12.6115428 C11.4659339,12.7486625 11.4233187,12.9198575 11.2955553,13.0060635 L11.2734789,13.0196238 L8.63271281,14.4909078 C8.25393703,14.70194 7.79597616,14.709756 7.41133483,14.5143558 L7.36728719,14.4909078 L2.53395386,11.7980506 C2.13575131,11.5761949 1.88386421,11.1627094 1.86751419,10.7094381 L1.86666667,10.6624122 L1.86666667,5.33758775 C1.86666667,4.8817531 2.10528034,4.46046833 2.49328609,4.22557732 L2.53395386,4.20194938 L7.36728719,1.50909224 Z"
                id="路径" fill="#8702B3"></path>
        </g>
    </g>
</svg>