<?xml version="1.0" encoding="UTF-8"?>
<svg width="16px" height="16px" viewBox="0 0 16 16" version="1.1" xmlns="http://www.w3.org/2000/svg" xmlns:xlink="http://www.w3.org/1999/xlink">
    <title>画板备份</title>
    <g id="画板备份" stroke="none" stroke-width="1" fill="none" fill-rule="evenodd">
        <g id="编组">
            <rect id="矩形" x="0" y="0" width="16" height="16"></rect>
            <path d="M13.4469736,7.9524423 C13.4762802,8.00356862 13.5050628,8.05462705 13.5333192,8.10560894 L13.6165077,8.25831634 C13.6709115,8.35995668 13.7232023,8.46125631 13.7733633,8.56214611 L13.8470055,8.71316479 C14.8675825,10.8479969 14.92269,12.7821594 13.8524247,13.8524247 C12.8189334,14.8859159 10.9768656,14.874359 8.90586857,13.9363866 L8.82711424,13.9003223 L9.07918233,13.3558393 C10.9794374,14.2355614 12.5990876,14.2572336 13.4281606,13.4281606 C14.3729689,12.4833523 14.2036026,10.5171787 12.9694103,8.32645846 L12.92643,8.25082859 L13.4469736,7.9524423 Z M10.8854668,4.70937762 L10.9879876,4.80921737 L11.0898324,4.91016765 L10.6655683,5.33443172 C10.6004001,5.26926357 10.5347927,5.20480543 10.4687672,5.14107364 C7.48726457,2.26314352 3.96976219,1.17391664 2.57183941,2.57183941 C1.13843399,4.00524483 2.32131034,7.6524469 5.33443172,10.6655683 C5.97609505,11.3072316 6.65803532,11.8777061 7.35591763,12.3605727 L7.49569944,12.4559731 L7.16066079,12.9537171 C6.3817812,12.429442 5.62168356,11.8013483 4.91016765,11.0898324 C1.69319383,7.87285853 0.402360767,3.89278992 2.14757534,2.14757534 C3.8526935,0.442457191 7.69884415,1.63345303 10.8854668,4.70937762 Z" id="形状" fill="#009CE5" fill-rule="nonzero" transform="translate(8.000220, 8.000291) rotate(90.000000) translate(-8.000220, -8.000291) "></path>
            <path d="M11.0898324,4.91016765 C14.3068062,8.12714147 15.5976392,12.1072101 13.8524247,13.8524247 C12.2393052,15.4655441 8.69635207,14.491715 5.59686696,11.7374428 C5.47301575,11.6273859 5.46183331,11.4377658 5.57189028,11.3139146 C5.68194725,11.1900634 5.8715673,11.1788809 5.99541852,11.2889379 C8.88743779,13.8588513 12.1113371,14.7449841 13.4281606,13.4281606 C14.861566,11.9947552 13.6786897,8.3475531 10.6655683,5.33443172 C10.548411,5.21727443 10.548411,5.02732494 10.6655683,4.91016765 C10.7827256,4.79301036 10.9726751,4.79301036 11.0898324,4.91016765 Z M7.19088458,2.10803104 C7.34110706,2.17792286 7.40622792,2.35636075 7.3363361,2.50658323 C7.26644428,2.65680571 7.08800639,2.72192658 6.93778391,2.65203476 C5.03065269,1.76473166 3.40350537,1.74017346 2.57183941,2.57183941 C1.63151162,3.51216721 1.79371911,5.46507924 3.01684286,7.64905875 C3.09780211,7.79361759 3.04624446,7.97643613 2.90168562,8.05739538 C2.75712677,8.13835464 2.57430824,8.08679699 2.49334898,7.94223814 C2.43575386,7.83939771 2.38029399,7.73686358 2.32698599,7.63470591 L2.24863998,7.48176052 C2.210276,7.40543777 2.17312712,7.32934651 2.13720034,7.25351633 L2.06697834,7.10221286 C2.05554695,7.07705656 2.04425186,7.05193146 2.03309334,7.02683865 L1.96778313,6.87667819 C1.90411588,6.72692284 1.84538378,6.57840916 1.79164288,6.43137392 L1.73956779,6.28484025 C1.14308255,4.55689776 1.24812099,3.0470297 2.14757534,2.14757534 C3.19723414,1.09791655 5.08089337,1.12634623 7.19088458,2.10803104 Z" id="形状" fill="#009CE5" fill-rule="nonzero" transform="translate(7.999772, 7.999649) scale(-1, 1) rotate(90.000000) translate(-7.999772, -7.999649) "></path>
            <path d="M10.6666667,10.4166667 C10.0683582,10.4166667 9.58333333,10.9016915 9.58333333,11.5 C9.58333333,12.0983085 10.0683582,12.5833333 10.6666667,12.5833333 C11.2649751,12.5833333 11.75,12.0983085 11.75,11.5 C11.75,10.9016915 11.2649751,10.4166667 10.6666667,10.4166667 Z M10.6666667,10.9166667 C10.9888328,10.9166667 11.25,11.1778339 11.25,11.5 C11.25,11.8221661 10.9888328,12.0833333 10.6666667,12.0833333 C10.3445006,12.0833333 10.0833333,11.8221661 10.0833333,11.5 C10.0833333,11.1778339 10.3445006,10.9166667 10.6666667,10.9166667 Z" id="椭圆形" fill="#009CE5" fill-rule="nonzero"></path>
            <path d="M11,3.91666667 C10.4016915,3.91666667 9.91666667,4.40169152 9.91666667,5 C9.91666667,5.59830848 10.4016915,6.08333333 11,6.08333333 C11.5983085,6.08333333 12.0833333,5.59830848 12.0833333,5 C12.0833333,4.40169152 11.5983085,3.91666667 11,3.91666667 Z M11,4.41666667 C11.3221661,4.41666667 11.5833333,4.6778339 11.5833333,5 C11.5833333,5.3221661 11.3221661,5.58333333 11,5.58333333 C10.6778339,5.58333333 10.4166667,5.3221661 10.4166667,5 C10.4166667,4.6778339 10.6778339,4.41666667 11,4.41666667 Z" id="椭圆形备份-3" fill="#009CE5" fill-rule="nonzero"></path>
            <path d="M2.66666667,6.91666667 C2.06835819,6.91666667 1.58333333,7.40169152 1.58333333,8 C1.58333333,8.59830848 2.06835819,9.08333333 2.66666667,9.08333333 C3.26497515,9.08333333 3.75,8.59830848 3.75,8 C3.75,7.40169152 3.26497515,6.91666667 2.66666667,6.91666667 Z M2.66666667,7.41666667 C2.98883277,7.41666667 3.25,7.6778339 3.25,8 C3.25,8.3221661 2.98883277,8.58333333 2.66666667,8.58333333 C2.34450056,8.58333333 2.08333333,8.3221661 2.08333333,8 C2.08333333,7.6778339 2.34450056,7.41666667 2.66666667,7.41666667 Z" id="椭圆形备份-4" fill="#009CE5" fill-rule="nonzero"></path>
            <path d="M7.30630631,6.33333333 L6.69369369,6.33333333 C6.4026247,6.33333333 6.16666667,6.56929137 6.16666667,6.86036036 L6.16666667,7.47297297 C6.16666667,7.76404196 6.4026247,8 6.69369369,8 L7.30630631,8 C7.5973753,8 7.83333333,7.76404196 7.83333333,7.47297297 L7.83333333,6.86036036 C7.83333333,6.56929137 7.5973753,6.33333333 7.30630631,6.33333333 Z M6.69369369,6.66666667 L7.30630631,6.66666667 C7.41328038,6.66666667 7.5,6.75338629 7.5,6.86036036 L7.5,7.47297297 C7.5,7.57994705 7.41328038,7.66666667 7.30630631,7.66666667 L6.69369369,7.66666667 C6.58671962,7.66666667 6.5,7.57994705 6.5,7.47297297 L6.5,6.86036036 C6.5,6.75338629 6.58671962,6.66666667 6.69369369,6.66666667 Z" id="矩形" fill="#009CE5" fill-rule="nonzero"></path>
            <path d="M9.30630631,8.16666667 L8.69369369,8.16666667 C8.4026247,8.16666667 8.16666667,8.4026247 8.16666667,8.69369369 L8.16666667,9.30630631 C8.16666667,9.5973753 8.4026247,9.83333333 8.69369369,9.83333333 L9.30630631,9.83333333 C9.5973753,9.83333333 9.83333333,9.5973753 9.83333333,9.30630631 L9.83333333,8.69369369 C9.83333333,8.4026247 9.5973753,8.16666667 9.30630631,8.16666667 Z M8.69369369,8.5 L9.30630631,8.5 C9.41328038,8.5 9.5,8.58671962 9.5,8.69369369 L9.5,9.30630631 C9.5,9.41328038 9.41328038,9.5 9.30630631,9.5 L8.69369369,9.5 C8.58671962,9.5 8.5,9.41328038 8.5,9.30630631 L8.5,8.69369369 C8.5,8.58671962 8.58671962,8.5 8.69369369,8.5 Z" id="矩形备份-2" fill="#009CE5" fill-rule="nonzero"></path>
            <path d="M8.62733562,6.63696212 L8.38696212,6.87733562 C8.18114527,7.08315247 8.18114527,7.41684753 8.38696212,7.62266438 L8.62733562,7.86303788 C8.83315247,8.06885473 9.16684753,8.06885473 9.37266438,7.86303788 L9.61303788,7.62266438 C9.81885473,7.41684753 9.81885473,7.08315247 9.61303788,6.87733562 L9.37266438,6.63696212 C9.16684753,6.43114527 8.83315247,6.43114527 8.62733562,6.63696212 Z M9.13696212,6.87266438 L9.37733562,7.11303788 C9.45297771,7.18867997 9.45297771,7.31132003 9.37733562,7.38696212 L9.13696212,7.62733562 C9.06132003,7.70297771 8.93867997,7.70297771 8.86303788,7.62733562 L8.62266438,7.38696212 C8.54702229,7.31132003 8.54702229,7.18867997 8.62266438,7.11303788 L8.86303788,6.87266438 C8.93867997,6.79702229 9.06132003,6.79702229 9.13696212,6.87266438 Z" id="矩形备份-4" fill="#009CE5" fill-rule="nonzero"></path>
            <path d="M7.30630631,8.16666667 L6.69369369,8.16666667 C6.4026247,8.16666667 6.16666667,8.4026247 6.16666667,8.69369369 L6.16666667,9.30630631 C6.16666667,9.5973753 6.4026247,9.83333333 6.69369369,9.83333333 L7.30630631,9.83333333 C7.5973753,9.83333333 7.83333333,9.5973753 7.83333333,9.30630631 L7.83333333,8.69369369 C7.83333333,8.4026247 7.5973753,8.16666667 7.30630631,8.16666667 Z M6.69369369,8.5 L7.30630631,8.5 C7.41328038,8.5 7.5,8.58671962 7.5,8.69369369 L7.5,9.30630631 C7.5,9.41328038 7.41328038,9.5 7.30630631,9.5 L6.69369369,9.5 C6.58671962,9.5 6.5,9.41328038 6.5,9.30630631 L6.5,8.69369369 C6.5,8.58671962 6.58671962,8.5 6.69369369,8.5 Z" id="矩形备份-3" fill="#009CE5" fill-rule="nonzero"></path>
        </g>
    </g>
</svg>