<?xml version="1.0" encoding="UTF-8"?>
<svg width="16px" height="16px" viewBox="0 0 16 16" version="1.1" xmlns="http://www.w3.org/2000/svg" xmlns:xlink="http://www.w3.org/1999/xlink">
    <title>画板备份</title>
    <g id="画板备份" stroke="none" stroke-width="1" fill="none" fill-rule="evenodd">
        <g id="编组">
            <rect id="矩形" x="0" y="0" width="16" height="16"></rect>
            <path d="M13.3333333,1.7 C13.8547929,1.7 14.2798155,2.11289564 14.299302,2.62958774 L14.3,2.66666667 L14.3,9.34129172 C14.3,9.50697715 14.1656854,9.64129172 14,9.64129172 C13.8425988,9.64129172 13.7135099,9.52007282 13.7009945,9.36589639 L13.7,9.34129172 L13.7,2.66666667 C13.7,2.4729668 13.5498024,2.31434746 13.3595192,2.30092064 L13.3333333,2.3 L2.66666667,2.3 C2.4729668,2.3 2.31434746,2.45019761 2.30092064,2.64048083 L2.3,2.66666667 L2.3,13.3333333 C2.3,13.5270332 2.45019761,13.6856525 2.64048083,13.6990794 L2.66666667,13.7 L13.3333333,13.7 C13.5270332,13.7 13.6856525,13.5498024 13.6990794,13.3595192 L13.7,13.3333333 L13.7,10.8125 C13.7,10.6468146 13.8343146,10.5125 14,10.5125 C14.1574012,10.5125 14.2864901,10.6337189 14.2990055,10.7878953 L14.3,10.8125 L14.3,13.3333333 C14.3,13.8547929 13.8871044,14.2798155 13.3704123,14.299302 L13.3333333,14.3 L2.66666667,14.3 C2.14520711,14.3 1.7201845,13.8871044 1.70069803,13.3704123 L1.7,13.3333333 L1.7,2.66666667 C1.7,2.14520711 2.11289564,1.7201845 2.62958774,1.70069803 L2.66666667,1.7 L13.3333333,1.7 Z" id="路径" fill="#FA7305" fill-rule="nonzero"></path>
            <path d="M1.78817397,3.26831473 C1.89898191,3.15782579 2.07456798,3.15193175 2.19228895,3.25045581 L2.2124376,3.2689263 L8.87910427,9.95484064 C8.99609255,10.0721667 8.99581874,10.262116 8.87849269,10.3791043 C8.76768476,10.4895932 8.59209868,10.4954872 8.47437772,10.3969632 L8.45422907,10.3784927 L1.7875624,3.69257835 C1.67057411,3.57525231 1.67084793,3.38530301 1.78817397,3.26831473 Z" id="路径-168" fill="#FA7305" fill-rule="nonzero"></path>
            <path d="M10.032135,11.4604269 C10.1397101,11.346788 10.3150532,11.3358322 10.4355668,11.43092 L10.4562398,11.4488017 L12.7714453,13.6404683 C12.8917688,13.7543714 12.8969736,13.9442496 12.7830705,14.0645731 C12.6754954,14.178212 12.5001523,14.1891678 12.3796387,14.09408 L12.3589657,14.0761983 L10.0437602,11.8845317 C9.92343671,11.7706286 9.91823192,11.5807504 10.032135,11.4604269 Z" id="路径-243" fill="#FA7305" fill-rule="nonzero"></path>
            <path d="M8.54337754,11.4491646 C8.66350063,11.3350501 8.85338766,11.3399211 8.96750209,11.4600442 C9.07527683,11.5734938 9.07691953,11.7491711 8.97557519,11.864473 L8.95662246,11.8841688 L6.6495544,14.0758354 C6.52943131,14.1899499 6.33954428,14.1850789 6.22542985,14.0649558 C6.11765511,13.9515062 6.11601241,13.7758289 6.21735675,13.660527 L6.23630948,13.6408312 L8.54337754,11.4491646 Z" id="路径-244" fill="#FA7305" fill-rule="nonzero"></path>
            <path d="M12.3602165,1.78095772 C12.4811902,1.66774544 12.6710355,1.67403731 12.7842478,1.79501102 C12.8911705,1.90926397 12.8914984,2.08494864 12.7892941,2.19948895 L12.7701945,2.21904228 L10.454989,4.38570894 C10.3340153,4.49892123 10.14417,4.49262935 10.0309577,4.37165564 C9.92403501,4.25740269 9.92370706,4.08171803 10.0259114,3.96717772 L10.045011,3.94762439 L12.3602165,1.78095772 Z" id="路径-245" fill="#FA7305" fill-rule="nonzero"></path>
            <path d="M8.4587504,5.45040102 C8.57819062,5.33557204 8.76810333,5.33931019 8.88293231,5.4587504 C8.9913819,5.57155505 8.99407255,5.74721942 8.89341782,5.86312388 L8.87458293,5.88293231 L6.6508482,8.02081518 C6.53140799,8.13564416 6.34149528,8.13190602 6.2266663,8.0124658 C6.1182167,7.89966115 6.11552606,7.72399678 6.21618078,7.60809232 L6.23501568,7.58828389 L8.4587504,5.45040102 Z" id="路径-246" fill="#FA7305" fill-rule="nonzero"></path>
            <path d="M6.9300174,2.49720724 C7.03579456,2.38189291 7.21094391,2.36818468 7.33293601,2.46136807 L7.35388728,2.47892287 L8.95279276,3.94558954 C9.07489029,4.05758889 9.08307648,4.2473619 8.97107713,4.36945943 C8.86529997,4.48477376 8.69015061,4.49848199 8.56815851,4.4052986 L8.54720724,4.38774379 L6.94830176,2.92107713 C6.82620424,2.80907778 6.81801805,2.61930477 6.9300174,2.49720724 Z" id="路径-247" fill="#FA7305" fill-rule="nonzero"></path>
            <path d="M10.0966841,5.49720724 C10.2024612,5.38189291 10.3776106,5.36818468 10.4996027,5.46136807 L10.5205539,5.47892287 L12.1194594,6.94558954 C12.241557,7.05758889 12.2497431,7.2473619 12.1377438,7.36945943 C12.0319666,7.48477376 11.8568173,7.49848199 11.7348252,7.4052986 L11.7138739,7.38774379 L10.1149684,5.92107713 C9.9928709,5.80907778 9.98468471,5.61930477 10.0966841,5.49720724 Z" id="路径-247备份" fill="#FA7305" fill-rule="nonzero"></path>
            <path d="M9.91666667,9.86666667 L9.08333333,9.86666667 C8.73355299,9.86666667 8.45,10.1502197 8.45,10.5 L8.45,11.3333333 C8.45,11.6831137 8.73355299,11.9666667 9.08333333,11.9666667 L9.91666667,11.9666667 C10.266447,11.9666667 10.55,11.6831137 10.55,11.3333333 L10.55,10.5 C10.55,10.1502197 10.266447,9.86666667 9.91666667,9.86666667 Z M9.08333333,10.4666667 L9.91666667,10.4666667 C9.93507616,10.4666667 9.95,10.4815905 9.95,10.5 L9.95,11.3333333 C9.95,11.3517428 9.93507616,11.3666667 9.91666667,11.3666667 L9.08333333,11.3666667 C9.06492384,11.3666667 9.05,11.3517428 9.05,11.3333333 L9.05,10.5 C9.05,10.4815905 9.06492384,10.4666667 9.08333333,10.4666667 Z" id="矩形备份" fill="#FA7305" fill-rule="nonzero"></path>
            <path d="M9.91666667,3.86666667 L9.08333333,3.86666667 C8.73355299,3.86666667 8.45,4.15021966 8.45,4.5 L8.45,5.33333333 C8.45,5.68311367 8.73355299,5.96666667 9.08333333,5.96666667 L9.91666667,5.96666667 C10.266447,5.96666667 10.55,5.68311367 10.55,5.33333333 L10.55,4.5 C10.55,4.15021966 10.266447,3.86666667 9.91666667,3.86666667 Z M9.08333333,4.46666667 L9.91666667,4.46666667 C9.93507616,4.46666667 9.95,4.48159051 9.95,4.5 L9.95,5.33333333 C9.95,5.35174282 9.93507616,5.36666667 9.91666667,5.36666667 L9.08333333,5.36666667 C9.06492384,5.36666667 9.05,5.35174282 9.05,5.33333333 L9.05,4.5 C9.05,4.48159051 9.06492384,4.46666667 9.08333333,4.46666667 Z" id="矩形备份-2" fill="#FA7305" fill-rule="nonzero"></path>
        </g>
    </g>
</svg>