<!-- Generated by IcoMoon.io -->
<svg version="1.1" xmlns="http://www.w3.org/2000/svg" width="32" height="32" viewBox="0 0 32 32">
<path fill="currentColor" d="M26.667 3.4c1.043 0 1.893 0.826 1.932 1.859l0.001 0.074v13.349c0 0.331-0.269 0.6-0.6 0.6-0.315 0-0.573-0.242-0.598-0.551l-0.002-0.049v-13.349c0-0.387-0.3-0.705-0.681-0.732l-0.052-0.002h-21.333c-0.387 0-0.705 0.3-0.732 0.681l-0.002 0.052v21.333c0 0.387 0.3 0.705 0.681 0.732l0.052 0.002h21.333c0.387 0 0.705-0.3 0.732-0.681l0.002-0.052v-5.042c0-0.331 0.269-0.6 0.6-0.6 0.315 0 0.573 0.242 0.598 0.551l0.002 0.049v5.042c0 1.043-0.826 1.893-1.859 1.932l-0.074 0.001h-21.333c-1.043 0-1.893-0.826-1.932-1.859l-0.001-0.074v-21.333c0-1.043 0.826-1.893 1.859-1.932l0.074-0.001h21.333z"></path>
<path fill="currentColor" d="M3.576 6.537c0.222-0.221 0.573-0.233 0.808-0.036l0.040 0.037 13.333 13.372c0.234 0.235 0.233 0.615-0.001 0.849-0.222 0.221-0.573 0.233-0.808 0.036l-0.040-0.037-13.333-13.372c-0.234-0.235-0.233-0.615 0.001-0.849z"></path>
<path fill="currentColor" d="M20.064 22.921c0.215-0.227 0.566-0.249 0.807-0.059l0.041 0.036 4.63 4.383c0.241 0.228 0.251 0.608 0.023 0.848-0.215 0.227-0.566 0.249-0.807 0.059l-0.041-0.036-4.63-4.383c-0.241-0.228-0.251-0.608-0.023-0.848z"></path>
<path fill="currentColor" d="M17.087 22.898c0.24-0.228 0.62-0.218 0.848 0.022 0.216 0.227 0.219 0.578 0.016 0.809l-0.038 0.039-4.614 4.383c-0.24 0.228-0.62 0.218-0.848-0.022-0.216-0.227-0.219-0.578-0.016-0.809l0.038-0.039 4.614-4.383z"></path>
<path fill="currentColor" d="M24.72 3.562c0.242-0.226 0.622-0.214 0.848 0.028 0.214 0.228 0.215 0.58 0.010 0.809l-0.038 0.039-4.63 4.333c-0.242 0.226-0.622 0.214-0.848-0.028-0.214-0.229-0.215-0.58-0.010-0.809l0.038-0.039 4.63-4.333z"></path>
<path fill="currentColor" d="M16.918 10.901c0.239-0.23 0.619-0.222 0.848 0.017 0.217 0.226 0.222 0.577 0.021 0.809l-0.038 0.040-4.447 4.276c-0.239 0.23-0.619 0.222-0.848-0.017-0.217-0.226-0.222-0.577-0.021-0.809l0.038-0.040 4.447-4.276z"></path>
<path fill="currentColor" d="M13.86 4.994c0.212-0.231 0.562-0.258 0.806-0.072l0.042 0.035 3.198 2.933c0.244 0.224 0.261 0.604 0.037 0.848-0.212 0.231-0.562 0.258-0.806 0.072l-0.042-0.035-3.198-2.933c-0.244-0.224-0.261-0.604-0.037-0.848z"></path>
<path fill="currentColor" d="M20.193 10.994c0.212-0.231 0.562-0.258 0.806-0.072l0.042 0.035 3.198 2.933c0.244 0.224 0.261 0.604 0.037 0.848-0.212 0.231-0.562 0.258-0.806 0.072l-0.042-0.035-3.198-2.933c-0.244-0.224-0.261-0.604-0.037-0.848z"></path>
<path fill="currentColor" d="M19.833 19.733h-1.667c-0.7 0-1.267 0.567-1.267 1.267v1.667c0 0.7 0.567 1.267 1.267 1.267h1.667c0.7 0 1.267-0.567 1.267-1.267v-1.667c0-0.7-0.567-1.267-1.267-1.267zM18.167 20.933h1.667c0.037 0 0.067 0.030 0.067 0.067v1.667c0 0.037-0.030 0.067-0.067 0.067h-1.667c-0.037 0-0.067-0.030-0.067-0.067v-1.667c0-0.037 0.030-0.067 0.067-0.067z"></path>
<path fill="currentColor" d="M19.833 7.733h-1.667c-0.7 0-1.267 0.567-1.267 1.267v1.667c0 0.7 0.567 1.267 1.267 1.267h1.667c0.7 0 1.267-0.567 1.267-1.267v-1.667c0-0.7-0.567-1.267-1.267-1.267zM18.167 8.933h1.667c0.037 0 0.067 0.030 0.067 0.067v1.667c0 0.037-0.030 0.067-0.067 0.067h-1.667c-0.037 0-0.067-0.030-0.067-0.067v-1.667c0-0.037 0.030-0.067 0.067-0.067z"></path>
</svg>
