<?xml version="1.0" encoding="UTF-8"?>
<svg width="16px" height="16px" viewBox="0 0 16 16" version="1.1" xmlns="http://www.w3.org/2000/svg" xmlns:xlink="http://www.w3.org/1999/xlink">
    <title>画板备份</title>
    <g id="画板备份" stroke="none" stroke-width="1" fill="none" fill-rule="evenodd">
        <g id="编组">
            <rect id="矩形" x="0" y="0" width="16" height="16"></rect>
            <path d="M8.08333333,2.36666667 C9.86386841,2.36666667 11.446702,3.43821125 12.1253799,5.05154122 C12.1896255,5.20426372 12.1179008,5.38015113 11.9651784,5.44439675 C11.8124559,5.50864236 11.6365684,5.43691769 11.5723228,5.28419519 C10.9864829,3.89155657 9.62028051,2.96666667 8.08333333,2.96666667 C6.55115647,2.96666667 5.1883792,3.88581139 4.59949648,5.27200659 L4.58668826,5.29543041 C4.55544785,5.40483602 4.46300907,5.49159935 4.34316915,5.50981062 L4.30985118,5.51502609 C2.48977076,5.80827189 1.13333333,7.38642332 1.13333333,9.25 C1.13333333,11.3394773 2.82718936,13.0333333 4.91666667,13.0333333 C5.08235209,13.0333333 5.21666667,13.1676479 5.21666667,13.3333333 C5.21666667,13.4990188 5.08235209,13.6333333 4.91666667,13.6333333 C2.49581851,13.6333333 0.533333333,11.6708482 0.533333333,9.25 C0.533333333,7.13435203 2.04184832,5.33654587 4.08727752,4.94506712 L4.04726205,5.03740665 C4.72945666,3.43156075 6.30833038,2.36666667 8.08333333,2.36666667 Z" id="形状结合" fill="#00B385" fill-rule="nonzero"></path>
            <path d="M11.8143653,13.189297 C12.1097752,12.8833911 12.597238,12.8748824 12.9031439,13.1702923 C13.2090498,13.4657022 13.2175585,13.953165 12.9221486,14.2590709 C12.6267387,14.5649768 12.1392759,14.5734855 11.83337,14.2780756 C11.5274641,13.9826657 11.5189554,13.4952029 11.8143653,13.189297 Z M8.5886222,11.7928464 C8.98617731,12.8605316 10.0083239,13.5833333 11.1666667,13.5833333 C11.3047379,13.5833333 11.4166667,13.6952621 11.4166667,13.8333333 C11.4166667,13.9714045 11.3047379,14.0833333 11.1666667,14.0833333 C9.79779564,14.0833333 8.58991069,13.2291884 8.12005101,11.9673199 C8.07187146,11.8379276 8.13770745,11.6939771 8.26709981,11.6457976 C8.39649218,11.597618 8.54044265,11.663454 8.5886222,11.7928464 Z M12.5558147,13.5299622 C12.448549,13.4263769 12.2776205,13.4293605 12.1740352,13.5366262 C12.0704499,13.6438919 12.0734335,13.8148204 12.1806992,13.9184057 C12.2879649,14.021991 12.4588934,14.0190074 12.5624787,13.9117417 C12.666064,13.804476 12.6630804,13.6335475 12.5558147,13.5299622 Z M14.0804117,9.39218048 C14.3005411,9.83645527 14.4166667,10.3268651 14.4166667,10.8333333 C14.4166667,11.6639206 14.1034993,12.4461643 13.5500031,13.0429247 C13.4561106,13.1441564 13.2979312,13.1501059 13.1966996,13.0562134 C13.0954679,12.9623209 13.0895183,12.8041415 13.1834109,12.7029098 C13.6519741,12.1977212 13.9166667,11.53656 13.9166667,10.8333333 C13.9166667,10.4043077 13.8185177,9.98981473 13.6323911,9.61416589 C13.5710915,9.49044842 13.6216912,9.34046246 13.7454087,9.27916288 C13.8691262,9.2178633 14.0191121,9.268463 14.0804117,9.39218048 Z M7.48103194,10.069297 C7.77644184,9.7633911 8.26390462,9.75488241 8.56981053,10.0502923 C8.87571644,10.3457022 8.88422514,10.833165 8.58881523,11.1390709 C8.29340533,11.4449768 7.80594255,11.4534855 7.50003664,11.1580756 C7.19413073,10.8626657 7.18562204,10.3752029 7.48103194,10.069297 Z M8.22248135,10.4099622 C8.11521564,10.3063769 7.94428713,10.3093605 7.84070184,10.4166262 C7.73711655,10.5238919 7.74010012,10.6948204 7.84736583,10.7984057 C7.95463154,10.901991 8.12556004,10.8990074 8.22914533,10.7917417 C8.33273062,10.684476 8.32974706,10.5135475 8.22248135,10.4099622 Z M11.1666667,7.58333333 C11.4749129,7.58333333 11.7776875,7.62632077 12.0684934,7.71015318 C12.201162,7.74839838 12.2777073,7.88695138 12.2394621,8.01961999 C12.2012169,8.15228859 12.0626639,8.22883388 11.9299953,8.19058869 C11.6840976,8.11970226 11.4279394,8.08333333 11.1666667,8.08333333 C10.1755943,8.08333333 9.27677765,8.61178156 8.78753554,9.45313392 C8.71812926,9.57249229 8.56510527,9.61298645 8.4457469,9.54358017 C8.32638853,9.47417389 8.28589436,9.3211499 8.35530065,9.20179153 C8.93317031,8.20802588 9.9956851,7.58333333 11.1666667,7.58333333 Z M13.6838527,7.94356873 C13.9897586,8.23897863 13.9982673,8.72644141 13.7028574,9.03234732 C13.4074475,9.33825323 12.9199847,9.34676192 12.6140788,9.05135202 C12.3081729,8.75594212 12.2996642,8.26847934 12.5950741,7.96257343 C12.890484,7.65666752 13.3779468,7.64815882 13.6838527,7.94356873 Z M12.954744,8.30990261 C12.8511587,8.41716832 12.8541423,8.58809683 12.961408,8.69168212 C13.0686737,8.79526741 13.2396022,8.79228384 13.3431875,8.68501813 C13.4467728,8.57775242 13.4437892,8.40682392 13.3365235,8.30323863 C13.2292578,8.19965334 13.0583293,8.2026369 12.954744,8.30990261 Z" id="形状结合" fill="#00B385" fill-rule="nonzero"></path>
        </g>
    </g>
</svg>