<!-- Generated by IcoMoon.io -->
<svg version="1.1" xmlns="http://www.w3.org/2000/svg" width="32" height="32" viewBox="0 0 32 32">
<path fill="currentColor" d="M16.167 4.733c3.561 0 6.727 2.143 8.084 5.37 0.128 0.305-0.015 0.657-0.32 0.786s-0.657-0.015-0.786-0.32c-1.172-2.785-3.904-4.635-6.978-4.635-3.064 0-5.79 1.838-6.968 4.611l-0.026 0.047c-0.062 0.219-0.247 0.392-0.487 0.429l-0.067 0.010c-3.64 0.586-6.353 3.743-6.353 7.47 0 4.179 3.388 7.567 7.567 7.567 0.331 0 0.6 0.269 0.6 0.6s-0.269 0.6-0.6 0.6c-4.842 0-8.767-3.925-8.767-8.767 0-4.231 3.017-7.827 7.108-8.61l-0.080 0.185c1.364-3.212 4.522-5.341 8.072-5.341z"></path>
<path fill="currentColor" d="M23.629 26.379c0.591-0.612 1.566-0.629 2.178-0.038s0.629 1.566 0.038 2.178c-0.591 0.612-1.566 0.629-2.178 0.038s-0.629-1.566-0.038-2.178zM17.177 23.586c0.795 2.135 2.839 3.581 5.156 3.581 0.276 0 0.5 0.224 0.5 0.5s-0.224 0.5-0.5 0.5c-2.738 0-5.154-1.708-6.093-4.232-0.096-0.259 0.035-0.547 0.294-0.643s0.547 0.035 0.643 0.294zM25.112 27.060c-0.215-0.207-0.556-0.201-0.764 0.013s-0.201 0.556 0.013 0.764c0.215 0.207 0.556 0.201 0.764-0.013s0.201-0.556-0.013-0.764zM28.161 18.784c0.44 0.889 0.672 1.869 0.672 2.882 0 1.661-0.626 3.226-1.733 4.419-0.188 0.202-0.504 0.214-0.707 0.027s-0.214-0.504-0.027-0.707c0.937-1.010 1.466-2.333 1.466-3.739 0-0.858-0.196-1.687-0.569-2.438-0.123-0.247-0.021-0.547 0.226-0.67s0.547-0.021 0.67 0.226zM14.962 20.139c0.591-0.612 1.566-0.629 2.178-0.038s0.629 1.566 0.038 2.178c-0.591 0.612-1.566 0.629-2.178 0.038s-0.629-1.566-0.038-2.178zM16.445 20.82c-0.215-0.207-0.556-0.201-0.764 0.013s-0.201 0.556 0.013 0.764c0.215 0.207 0.556 0.201 0.764-0.013s0.201-0.556-0.013-0.764zM22.333 15.167c0.616 0 1.222 0.086 1.804 0.254 0.265 0.076 0.418 0.354 0.342 0.619s-0.354 0.418-0.619 0.342c-0.492-0.142-1.004-0.215-1.527-0.215-1.982 0-3.78 1.057-4.758 2.74-0.139 0.239-0.445 0.32-0.684 0.181s-0.32-0.445-0.181-0.684c1.156-1.988 3.281-3.237 5.623-3.237zM27.368 15.887c0.612 0.591 0.629 1.566 0.038 2.178s-1.566 0.629-2.178 0.038c-0.612-0.591-0.629-1.566-0.038-2.178s1.566-0.629 2.178-0.038zM25.91 16.62c-0.207 0.215-0.201 0.556 0.013 0.764s0.556 0.201 0.764-0.013c0.207-0.215 0.201-0.556-0.013-0.764s-0.556-0.201-0.764 0.013z"></path>
</svg>
