<!-- Generated by IcoMoon.io -->
<svg version="1.1" xmlns="http://www.w3.org/2000/svg" width="32" height="32" viewBox="0 0 32 32">
<path fill="currentColor" d="M17.49 2.733c0.975 0 1.797 0.726 1.918 1.694l0.247 1.976 0.042 0.016c0.922 0.356 1.787 0.844 2.569 1.447l0.041 0.033 1.415-0.597c0.873-0.369 1.881-0.049 2.384 0.745l0.042 0.069 1.823 3.157c0.488 0.844 0.27 1.92-0.507 2.508l-1.273 0.963 0.012 0.097c0.034 0.306 0.055 0.614 0.062 0.924l0.003 0.233c0 0.234-0.008 0.467-0.023 0.699-0.004 0.33-0.272 0.598-0.604 0.598s-0.6-0.269-0.6-0.6c0-0.012 0-0.023 0.001-0.035l-0 0.035c0.012-0.16 0.020-0.321 0.024-0.483l0.003-0.215c0-0.481-0.037-0.958-0.112-1.427-0.035-0.219 0.054-0.438 0.231-0.572l1.553-1.176c0.295-0.223 0.377-0.631 0.192-0.951l-1.823-3.157c-0.185-0.32-0.579-0.453-0.92-0.309l-1.746 0.736c-0.207 0.087-0.446 0.052-0.619-0.093-0.86-0.722-1.846-1.279-2.911-1.64-0.218-0.074-0.374-0.266-0.403-0.494l-0.293-2.342c-0.046-0.367-0.358-0.642-0.728-0.642h-3.646c-0.37 0-0.682 0.275-0.728 0.642l-0.326 2.61c-0.026 0.211-0.163 0.393-0.359 0.477-0.816 0.35-1.575 0.818-2.255 1.388-0.172 0.145-0.411 0.181-0.619 0.093l-1.746-0.737c-0.341-0.144-0.735-0.011-0.92 0.309l-1.823 3.157c-0.185 0.32-0.102 0.728 0.192 0.951l1.554 1.176c0.176 0.134 0.265 0.353 0.231 0.572-0.074 0.469-0.111 0.945-0.111 1.426 0 0.667 0.072 1.325 0.213 1.965 0.051 0.229-0.037 0.466-0.224 0.608l-1.663 1.259c-0.295 0.223-0.377 0.631-0.192 0.951l1.823 3.157c0.185 0.32 0.579 0.453 0.92 0.309l2.293-0.967c0.193-0.082 0.415-0.056 0.585 0.067 0.542 0.392 1.126 0.724 1.741 0.988 0.196 0.084 0.332 0.265 0.359 0.477l0.327 2.61c0.046 0.367 0.358 0.642 0.728 0.642l1.756-0.001c0.302-0.001 0.54 0.196 0.602 0.461l0.016 0.138c0 0.331-0.269 0.6-0.6 0.6l-1.774 0.003c-0.9 0-1.67-0.619-1.878-1.475l-0.040-0.219-0.285-2.277-0.097-0.045c-0.409-0.198-0.805-0.422-1.184-0.672l-0.093-0.063-1.988 0.839c-0.873 0.369-1.881 0.049-2.384-0.745l-0.042-0.069-1.823-3.157c-0.487-0.844-0.27-1.92 0.507-2.508l1.363-1.032-0.019-0.105c-0.083-0.489-0.132-0.985-0.144-1.487l-0.003-0.251c0-0.389 0.022-0.775 0.064-1.157l0.012-0.097-1.273-0.964c-0.755-0.572-0.982-1.603-0.547-2.435l0.040-0.073 1.823-3.157c0.487-0.844 1.527-1.194 2.426-0.815l1.415 0.597 0.047-0.037c0.568-0.437 1.18-0.814 1.826-1.124l0.075-0.035 0.285-2.276c0.118-0.941 0.899-1.654 1.84-1.692l3.725-0.002zM16 10.733c2.909 0 5.267 2.358 5.267 5.267 0 0.648-0.117 1.281-0.344 1.875-0.118 0.31-0.465 0.465-0.774 0.347s-0.465-0.465-0.347-0.774c0.175-0.458 0.265-0.946 0.265-1.448 0-2.246-1.821-4.067-4.067-4.067s-4.067 1.821-4.067 4.067c0 2.136 1.652 3.904 3.77 4.056 0.331 0.024 0.579 0.311 0.555 0.642s-0.311 0.579-0.642 0.555c-2.744-0.197-4.884-2.487-4.884-5.253 0-2.909 2.358-5.267 5.267-5.267z"></path>
<path fill="currentColor" d="M27.333 19.5c1.013 0 1.833 0.821 1.833 1.833v6c0 1.013-0.821 1.833-1.833 1.833h-7.333c-1.013 0-1.833-0.821-1.833-1.833v-6c0-1.013 0.821-1.833 1.833-1.833zM27.333 20.5h-7.333c-0.46 0-0.833 0.373-0.833 0.833v6c0 0.46 0.373 0.833 0.833 0.833h7.333c0.46 0 0.833-0.373 0.833-0.833v-6c0-0.46-0.373-0.833-0.833-0.833zM22.951 22.11l1.749 3.504 0.605-1.281c0.076-0.16 0.23-0.267 0.404-0.284l0.048-0.002h1.242c0.276 0 0.5 0.224 0.5 0.5s-0.224 0.5-0.5 0.5l-0.926-0-0.909 1.926c-0.171 0.362-0.671 0.382-0.875 0.053l-0.024-0.043-1.753-3.512-0.603 1.255c-0.076 0.159-0.23 0.264-0.403 0.281l-0.048 0.002h-1.125c-0.276 0-0.5-0.224-0.5-0.5s0.224-0.5 0.5-0.5h0.81l0.91-1.891c0.18-0.375 0.712-0.378 0.898-0.007z"></path>
</svg>
