<!-- Generated by IcoMoon.io -->
<svg version="1.1" xmlns="http://www.w3.org/2000/svg" width="32" height="32" viewBox="0 0 32 32">
<path fill="currentColor" d="M27.431 15.4l0.073 0.001c1.045 0.039 1.881 0.898 1.881 1.953v8.6l-0.001 0.073c-0.039 1.045-0.898 1.881-1.953 1.881l-0.483-0-1.294 1.079-0.045 0.034c-0.23 0.158-0.541 0.137-0.749-0.056l-1.132-1.057-9.495-0.001c-1.045-0.039-1.881-0.898-1.881-1.953v-5.289l0.002-0.049c0.025-0.308 0.283-0.551 0.598-0.551 0.331 0 0.6 0.269 0.6 0.6v5.289l0.002 0.052c0.027 0.392 0.353 0.703 0.752 0.703l9.714 0.003c0.131 0.012 0.255 0.068 0.353 0.159l0.918 0.856 1.054-0.879 0.042-0.032c0.1-0.070 0.22-0.107 0.343-0.107h0.701l0.052-0.002c0.392-0.027 0.703-0.353 0.703-0.752v-8.6l-0.002-0.052c-0.027-0.392-0.353-0.703-0.752-0.703h-1.343l-0.049-0.002c-0.308-0.025-0.551-0.283-0.551-0.598 0-0.331 0.269-0.6 0.6-0.6h1.343zM17.354 21.417c0.561 0 1.016 0.455 1.016 1.016s-0.455 1.016-1.016 1.016c-0.561 0-1.016-0.455-1.016-1.016s0.455-1.016 1.016-1.016zM21.281 21.417c0.561 0 1.016 0.455 1.016 1.016s-0.455 1.016-1.016 1.016c-0.561 0-1.016-0.455-1.016-1.016s0.455-1.016 1.016-1.016zM25.208 21.417c0.561 0 1.016 0.455 1.016 1.016s-0.455 1.016-1.016 1.016c-0.561 0-1.016-0.455-1.016-1.016s0.455-1.016 1.016-1.016zM22.768 2.874c1.079 0 1.954 0.875 1.954 1.954v12.526c0 1.079-0.875 1.954-1.954 1.954l-12.225-0-1.585 1.48c-0.207 0.193-0.519 0.214-0.749 0.056l-0.045-0.034-1.801-1.502-1.196 0c-1.055 0-1.914-0.836-1.953-1.881l-0.001-0.073v-12.526c0-1.079 0.875-1.954 1.954-1.954h17.601zM22.768 4.074h-17.601c-0.417 0-0.754 0.338-0.754 0.754v12.526c0 0.416 0.338 0.754 0.754 0.754h1.414c0.14 0 0.276 0.049 0.384 0.139l1.561 1.301 1.372-1.279c0.097-0.091 0.221-0.146 0.353-0.159l0.057-0.003h12.461c0.416 0 0.754-0.338 0.754-0.754v-12.526c0-0.417-0.338-0.754-0.754-0.754zM16.508 12.184c0.331 0 0.6 0.269 0.6 0.6 0 0.315-0.242 0.573-0.551 0.598l-0.049 0.002h-9.987c-0.331 0-0.6-0.269-0.6-0.6 0-0.315 0.242-0.573 0.551-0.598l0.049-0.002h9.987zM20.232 8.46c0.331 0 0.6 0.269 0.6 0.6 0 0.315-0.242 0.573-0.551 0.598l-0.049 0.002h-13.711c-0.331 0-0.6-0.269-0.6-0.6 0-0.315 0.242-0.573 0.551-0.598l0.049-0.002h13.711z"></path>
</svg>
