<?xml version="1.0" encoding="UTF-8"?>
<svg width="16px" height="16px" viewBox="0 0 16 16" version="1.1" xmlns="http://www.w3.org/2000/svg" xmlns:xlink="http://www.w3.org/1999/xlink">
    <title>画板备份</title>
    <g id="画板备份" stroke="none" stroke-width="1" fill="none" fill-rule="evenodd">
        <g id="编组">
            <rect id="矩形" x="0" y="0" width="16" height="16"></rect>
            <path d="M8.00132478,1.10287626 C8.75444035,1.10287626 9.36496115,1.71339706 9.36496115,2.46651262 C9.36496115,2.96489793 9.09759423,3.40083634 8.69846924,3.63871902 L8.69829448,4.75027466 L8.69187248,4.78787626 L10.474129,5.81700484 C10.7202435,5.95909911 10.883669,6.2066368 10.9206799,6.48388285 L10.9286745,6.60430066 L10.9286656,8.9388102 C11.0433674,8.87870089 11.1573064,8.8685857 11.236158,8.91857082 L11.256262,8.93327644 L11.9631844,9.52510136 C12.4182411,9.33611108 12.9603468,9.40105333 13.3638903,9.73966655 C13.9408103,10.2237599 14.0160612,11.0838812 13.5319678,11.6608012 C13.0478745,12.2377212 12.1877532,12.312972 11.6108332,11.8288787 C11.1334438,11.4283014 10.9995584,10.7702496 11.2418552,10.228238 L10.6134744,9.69932089 L10.575483,9.65412594 C10.5435119,9.67882595 10.5096833,9.70155375 10.474129,9.72208101 L8.65519999,10.772537 C8.59877113,10.8492536 8.49128378,10.9091399 8.35890617,10.9363364 C8.09760736,11.0476699 7.79647485,11.031485 7.54677933,10.8873233 L5.65087248,9.79287626 L4.82637548,10.4855504 C4.93402744,10.9666024 4.77602583,11.4899188 4.37206916,11.8288787 C3.79514916,12.312972 2.93502789,12.2377212 2.45093454,11.6608012 C1.96684118,11.0838812 2.04209204,10.2237599 2.61901204,9.73966655 C3.09661001,9.33891427 3.76829164,9.32149208 4.26005221,9.65467882 L5.07587248,8.96987626 L5.07397507,8.93478519 L5.07397507,6.60430066 C5.07397507,6.27951376 5.24724682,5.97939829 5.52852053,5.81700484 L7.54677933,4.65176258 C7.59531771,4.62373893 7.64579977,4.60055122 7.69755469,4.58219945 L7.69781217,3.79624909 C7.09078516,3.65827432 6.63768842,3.11530668 6.63768842,2.46651262 C6.63768842,1.71339706 7.24820921,1.10287626 8.00132478,1.10287626 Z M12.9743221,10.2039359 C12.7618253,10.0256299 12.4801706,9.98391593 12.2360895,10.0694562 C12.2096765,10.1464798 12.1649439,10.224676 12.1039948,10.2973123 C12.0064327,10.4135823 11.8876257,10.491406 11.7791138,10.5200577 C11.668181,10.8103729 11.7475919,11.1524769 12.0004014,11.3646093 C12.3209126,11.6335501 12.7987577,11.591744 13.0676985,11.2712329 C13.3366392,10.9507218 13.2948332,10.4728767 12.9743221,10.2039359 Z M3.00858029,10.2039359 C2.68806918,10.4728767 2.64626314,10.9507218 2.9152039,11.2712329 C3.18414465,11.591744 3.6619898,11.6335501 3.98250091,11.3646093 C4.30301202,11.0956686 4.34481805,10.6178234 4.0758773,10.2973123 C3.80693654,9.97680119 3.32909139,9.93499516 3.00858029,10.2039359 Z M5.67987248,6.88887626 L5.68003568,8.93478519 C5.68003568,9.04304749 5.73779293,9.14308598 5.83155083,9.19721713 L7.69787248,10.2748763 L7.69787248,8.23387626 L5.67987248,6.88887626 Z M10.3218725,6.88887626 L8.67754675,7.98590743 C8.68729471,8.00573656 8.69378364,8.02641683 8.69663699,8.04772003 L8.69829448,8.07257323 L8.69787248,10.0468763 L10.1710987,9.19721713 C10.2461051,9.15391221 10.298071,9.08122659 10.3158571,8.99845424 L10.3226139,8.93478519 L10.3218725,6.88887626 Z M7.84980963,5.17662646 L5.89487248,6.30387626 L8.00116667,7.70833333 L10.1068725,6.30387626 L8.15283993,5.17662646 C8.05908203,5.12249531 7.94356753,5.12249531 7.84980963,5.17662646 Z M8.00132478,1.70893687 C7.58292725,1.70893687 7.24374903,2.04811509 7.24374903,2.46651262 C7.24374903,2.88491016 7.58292725,3.22408838 8.00132478,3.22408838 C8.41972232,3.22408838 8.75890054,2.88491016 8.75890054,2.46651262 C8.75890054,2.04811509 8.41972232,1.70893687 8.00132478,1.70893687 Z" id="形状结合" fill="#007AF0" fill-rule="nonzero"></path>
            <path d="M1.99702846,3.98041601 C2.35499481,3.44970907 3.07540685,3.30967516 3.60611379,3.6676415 C4.00999076,3.94005996 4.18761071,4.42238768 4.09167016,4.87126943 C4.20374729,4.77077656 4.32515004,4.72839767 4.40649103,4.76816328 L4.42711864,4.78067247 L5.32864962,5.4457765 C5.4398282,5.52779844 5.40863804,5.76971833 5.25898445,5.9861197 C5.11813401,6.18979158 4.92254682,6.29826926 4.80733363,6.24194436 L4.78670602,6.22943517 L3.88517504,5.56433115 C3.84090214,5.53166884 3.81920531,5.47365077 3.81857501,5.40198538 C3.44060511,5.82753277 2.79569465,5.91723941 2.30980297,5.58950133 C1.77909603,5.23153498 1.63906211,4.51112294 1.99702846,3.98041601 Z M3.32651734,4.08216029 C3.0247428,3.8786108 2.61509674,3.95823793 2.41154725,4.26001246 C2.20799776,4.56178699 2.28762489,4.97143305 2.58939942,5.17498255 C2.89117395,5.37853204 3.30082001,5.29890491 3.5043695,4.99713038 C3.707919,4.69535584 3.62829187,4.28570978 3.32651734,4.08216029 Z M14.0043507,3.98041601 C14.3623171,4.51112294 14.2222831,5.23153498 13.6915762,5.58950133 C13.31908,5.84075318 12.8531266,5.84666766 12.4846391,5.64435649 L11.6899962,6.22943517 L11.6693686,6.24194436 C11.5541554,6.29826926 11.3585682,6.18979158 11.2177178,5.9861197 C11.0680642,5.76971833 11.036874,5.52779844 11.1480526,5.4457765 L11.911891,4.88126117 C11.8111437,4.42956076 11.9883901,3.94208237 12.3952654,3.6676415 C12.9259723,3.30967516 13.6463844,3.44970907 14.0043507,3.98041601 Z M12.6748618,4.08216029 C12.3786036,4.28198899 12.2964455,4.6804484 12.4861308,4.98047524 L12.521862,5.02398794 C12.5259684,5.02992578 12.5299855,5.03588284 12.533913,5.04185528 L12.4970097,4.99713038 C12.7005592,5.29890491 13.1102052,5.37853204 13.4119798,5.17498255 C13.7137543,4.97143305 13.7933814,4.56178699 13.5898319,4.26001246 C13.3862824,3.95823793 12.9766364,3.8786108 12.6748618,4.08216029 Z M8.28444145,11.2336965 C8.53205566,11.2365749 8.7313587,11.3380641 8.74908965,11.4650767 L8.75025387,11.4891728 L8.70298736,12.6084973 C8.70154595,12.6426315 8.68713044,12.6750159 8.66226732,12.7043825 C9.00452088,12.9052796 9.23423113,13.2775313 9.23423113,13.7034346 C9.23423113,14.3435828 8.71528845,14.8625255 8.07514022,14.8625255 C7.43499199,14.8625255 6.91604931,14.3435828 6.91604931,13.7034346 C6.91604931,13.176361 7.26785337,12.7314556 7.74945364,12.5907263 L7.79752037,11.4780975 C7.80334937,11.3400602 8.02135136,11.2306382 8.28444145,11.2336965 Z M8.07514022,13.0443437 C7.71113436,13.0443437 7.41604931,13.3394287 7.41604931,13.7034346 C7.41604931,14.0674405 7.71113436,14.3625255 8.07514022,14.3625255 C8.43914608,14.3625255 8.73423113,14.0674405 8.73423113,13.7034346 C8.73423113,13.3394287 8.43914608,13.0443437 8.07514022,13.0443437 Z" id="形状结合" fill="#007AF0" fill-rule="nonzero"></path>
        </g>
    </g>
</svg>