<!-- Generated by IcoMoon.io -->
<svg version="1.1" xmlns="http://www.w3.org/2000/svg" width="32" height="32" viewBox="0 0 32 32">
<path fill="currentColor" d="M18.82 5.5c3.285 0 5.947 2.663 5.947 5.947 0 3.075-2.346 5.639-5.397 5.922l-0.282 0.020-0.579 0.012c-4.473 0.161-8.052 3.841-8.052 8.356 0 0.411-0.333 0.744-0.744 0.744s-0.744-0.333-0.744-0.744c0-3.967 2.377-7.529 5.994-9.067l0.335-0.135 0.037-0.289-0.16-0.118c-1.284-0.993-2.109-2.472-2.273-4.097l-0.023-0.313-0.007-0.294c0-3.28 2.663-5.943 5.947-5.943zM26.96 24.19c0.405 0 0.733 0.328 0.733 0.733s-0.328 0.733-0.733 0.733h-7.2c-0.405 0-0.733-0.328-0.733-0.733s0.328-0.733 0.733-0.733zM11.665 7.224c0.357 0 0.646 0.289 0.646 0.646s-0.289 0.646-0.646 0.646c-1.978 0-3.581 1.603-3.581 3.581s1.603 3.581 3.581 3.581c0.357 0 0.646 0.289 0.646 0.646s-0.289 0.646-0.646 0.646c-3.235 0-5.858 2.623-5.858 5.858 0 0.357-0.289 0.646-0.646 0.646s-0.646-0.289-0.646-0.646c0-2.628 1.438-5.027 3.719-6.275l0.266-0.139 0.242-0.114 0.030-0.283-0.158-0.121c-0.997-0.799-1.644-1.963-1.79-3.241l-0.024-0.283-0.008-0.281c0-2.687 2.182-4.869 4.874-4.869zM26.96 20.19c0.405 0 0.733 0.328 0.733 0.733s-0.328 0.733-0.733 0.733h-4.533c-0.405 0-0.733-0.328-0.733-0.733s0.328-0.733 0.733-0.733zM18.82 6.988c-2.463 0-4.459 1.997-4.459 4.459s1.997 4.459 4.459 4.459c2.463 0 4.459-1.997 4.459-4.459s-1.997-4.459-4.459-4.459z"></path>
</svg>
