<?xml version="1.0" encoding="UTF-8"?>
<svg width="16px" height="16px" viewBox="0 0 16 16" version="1.1" xmlns="http://www.w3.org/2000/svg" xmlns:xlink="http://www.w3.org/1999/xlink">
    <title>画板备份</title>
    <g id="画板备份" stroke="none" stroke-width="1" fill="none" fill-rule="evenodd">
        <g id="正常/辅助修饰类/电脑-&amp;-开发/编译1备份-10">
            <polygon id="矩形" points="16 0 16 16 0 16 0 0"></polygon>
            <path d="M9.40985261,2.75 C11.052114,2.75 12.3834298,4.08131588 12.3834298,5.72357724 C12.3834298,7.26111727 11.2106566,8.5429228 9.68513735,8.68438687 L9.54408581,8.694161 L9.25480323,8.6999321 C7.01853947,8.78056371 5.2289583,10.6203167 5.2289583,12.8780488 C5.2289583,13.0834718 5.06243007,13.25 4.85700708,13.25 C4.65158409,13.25 4.48505586,13.0834718 4.48505586,12.8780488 C4.48505586,10.894701 5.67345688,9.11334321 7.48211534,8.34464945 L7.64983241,8.27694735 L7.66812859,8.13263271 L7.58817196,8.07360274 C6.94626023,7.57711558 6.53367366,6.83752731 6.45146874,6.02517493 L6.43975082,5.8687078 L6.43625036,5.72153578 C6.43627537,4.08131588 7.76759125,2.75 9.40985261,2.75 Z M13.4798873,12.0949595 C13.6823917,12.0949595 13.846554,12.2591217 13.846554,12.4616261 C13.846554,12.6641305 13.6823917,12.8282928 13.4798873,12.8282928 L9.87988729,12.8282928 C9.67738288,12.8282928 9.51322063,12.6641305 9.51322063,12.4616261 C9.51322063,12.2591217 9.67738288,12.0949595 9.87988729,12.0949595 Z M5.83261684,3.61178862 C6.0110991,3.61178862 6.15578757,3.75647708 6.15578757,3.93495935 C6.15578757,4.11344162 6.0110991,4.25813008 5.83261684,4.25813008 C4.84366792,4.25813008 4.04196643,5.05983158 4.04196643,6.04878049 C4.04196643,7.0377294 4.84366792,7.83943089 5.83261684,7.83943089 C6.0110991,7.83943089 6.15578757,7.98411936 6.15578757,8.16260163 C6.15578757,8.34108389 6.0110991,8.48577236 5.83261684,8.48577236 C4.21505114,8.48577236 2.90375505,9.79706845 2.90375505,11.4146341 C2.90375505,11.5931164 2.75906658,11.7378049 2.58058432,11.7378049 C2.40210205,11.7378049 2.25741358,11.5931164 2.25741358,11.4146341 C2.25741358,10.1007256 2.97617655,8.90102699 4.11676997,8.27699304 L4.2498766,8.2077473 L4.37088249,8.15084008 L4.38584912,8.00913411 L4.30664478,7.94885504 C3.80809439,7.54953096 3.4848649,6.96749928 3.41156663,6.32828522 L3.39947154,6.18701911 L3.395591,6.04640125 C3.39562497,4.70286704 4.48670339,3.61178862 5.83261684,3.61178862 Z M13.4798873,10.0949595 C13.6823917,10.0949595 13.846554,10.2591217 13.846554,10.4616261 C13.846554,10.6641305 13.6823917,10.8282928 13.4798873,10.8282928 L11.2132206,10.8282928 C11.0107162,10.8282928 10.846554,10.6641305 10.846554,10.4616261 C10.846554,10.2591217 11.0107162,10.0949595 11.2132206,10.0949595 Z M9.40985261,3.49390244 C8.17843722,3.49390244 7.18017781,4.49216185 7.18017781,5.72357724 C7.18017781,6.95499262 8.17843722,7.95325203 9.40985261,7.95325203 C10.641268,7.95325203 11.6395274,6.95499262 11.6395274,5.72357724 C11.6395274,4.49216185 10.641268,3.49390244 9.40985261,3.49390244 Z" id="形状结合" fill="#3D14BF"></path>
        </g>
    </g>
</svg>