<?xml version="1.0" encoding="UTF-8"?>
<svg width="16px" height="16px" viewBox="0 0 16 16" version="1.1" xmlns="http://www.w3.org/2000/svg" xmlns:xlink="http://www.w3.org/1999/xlink">
    <title>画板备份</title>
    <g id="画板备份" stroke="none" stroke-width="1" fill="none" fill-rule="evenodd">
        <g id="编组">
            <rect id="矩形" x="0" y="0" width="16" height="16"></rect>
            <path d="M8.74481185,1.36666667 C9.23232435,1.36666667 9.64354532,1.72968523 9.70401525,2.21344464 L9.82733333,3.20166667 L9.84831119,3.20957094 C10.3094605,3.38761249 10.7418251,3.63159192 11.1326019,3.933015 L11.1533333,3.94933333 L11.8610097,3.65097168 C12.2977049,3.46672906 12.8013418,3.62666345 13.0529869,4.02367413 L13.0739319,4.05828172 L13.9854104,5.63700883 C14.2291667,6.05920703 14.1203939,6.59684412 13.7316841,6.89108989 L13.095,7.37283333 L13.1010624,7.42141813 C13.1182261,7.57433153 13.1285813,7.72847788 13.1320368,7.88353829 L13.1333333,8 C13.1333333,8.11702344 13.1294127,8.23357254 13.1216106,8.34951108 C13.119845,8.5144162 12.9855304,8.64873078 12.819845,8.64873078 C12.6541596,8.64873078 12.519845,8.5144162 12.519845,8.34873078 C12.519845,8.3428992 12.5200114,8.33710648 12.5203397,8.33135712 L12.5201213,8.3489001 C12.5262188,8.26871185 12.5302142,8.18816282 12.5320899,8.10730762 L12.5333333,8 C12.5333333,7.75926044 12.5145952,7.52099867 12.4775716,7.28663755 C12.4603049,7.17733823 12.504607,7.06740847 12.592836,7.00062434 L13.3695565,6.412693 C13.5169958,6.30108428 13.5582545,6.09715297 13.4657952,5.93700883 L12.5543167,4.35828172 C12.4618574,4.19813757 12.2646184,4.13190296 12.0941993,4.20380313 L11.2212483,4.57194133 C11.117542,4.61567606 10.998081,4.59768424 10.9118564,4.52534436 C10.4818263,4.16456174 9.98862489,3.88601737 9.45631881,3.70556587 C9.34742324,3.66865033 9.26920739,3.57274166 9.25494998,3.4586464 L9.10864708,2.28785393 C9.08571075,2.10436336 8.92973039,1.96666667 8.74481185,1.96666667 L6.92185481,1.96666667 C6.73693628,1.96666667 6.58095591,2.10436336 6.55801978,2.28785244 L6.39490454,3.59282728 C6.3816874,3.69856867 6.31336847,3.78936223 6.21542474,3.83134987 C5.80762315,4.00617094 5.42783676,4.24032574 5.08798659,4.5254761 C5.00174923,4.59783332 4.88226219,4.61582268 4.77854306,4.57206434 L3.90562082,4.20378481 C3.73524517,4.13190296 3.53800615,4.19813757 3.44554688,4.35828172 L2.53406836,5.93700883 C2.44160909,6.09715297 2.48286775,6.30108428 2.63031731,6.41270075 L3.407154,7.00080337 C3.49536961,7.06758682 3.53966489,7.17750491 3.5224037,7.28679386 C3.48539646,7.52110467 3.46666667,7.75931401 3.46666667,8 C3.46666667,8.33375502 3.50268306,8.66263002 3.57340958,8.9827345 C3.59869886,9.09719246 3.55500843,9.21589599 3.46155036,9.28664739 L2.63030708,9.91593088 C2.48286775,10.0275396 2.44160909,10.2314709 2.53406836,10.3916151 L3.44554688,11.9703422 C3.53800615,12.1304863 3.73524517,12.1967209 3.90565075,12.1248264 L5.05212469,11.6412729 C5.14876543,11.6005123 5.25967654,11.6131823 5.34463476,11.6746881 C5.61567112,11.8709057 5.90758159,12.0366634 6.21523132,12.1685672 C6.31315398,12.2105512 6.38146261,12.3013216 6.39469275,12.4070404 L6.55801959,13.7121461 C6.58095591,13.8956366 6.73693628,14.0333333 6.92185481,14.0333333 L7.79987113,14.0326667 C7.95105011,14.0320173 8.07001822,14.1306974 8.10111082,14.26323 L8.10903403,14.3320173 C8.10903403,14.4977027 7.97471946,14.6320173 7.80903403,14.6320173 L6.92185481,14.6333333 C6.47184328,14.6333333 6.08683754,14.3240157 5.98271275,13.8959809 L5.96265816,13.7866093 L5.82016667,12.6483333 L5.77187553,12.6257948 C5.56719749,12.5270367 5.36939209,12.4147701 5.17971245,12.2898299 L5.133,12.2581667 L4.13885385,12.6776522 C3.70215867,12.8618948 3.19852178,12.7019604 2.94687666,12.3049497 L2.92593164,12.2703422 L2.01445312,10.6916151 C1.77069687,10.2694168 1.87946968,9.73177976 2.26816452,9.43754529 L2.9495,8.92166667 L2.93998039,8.86909438 C2.89827983,8.62466747 2.8742028,8.37637401 2.86817468,8.125592 L2.86666667,8 C2.86666667,7.8056714 2.87747819,7.61264584 2.89892328,7.42154574 L2.90483333,7.37316667 L2.26817338,6.89108529 C1.8905755,6.60525101 1.77714098,6.08973046 1.99442137,5.67347158 L2.01445312,5.63700883 L2.92593164,4.05828172 C3.16968789,3.63608351 3.68968167,3.46146499 4.13885164,3.65097075 L4.84633333,3.9495 L4.86993375,3.93106162 C5.15377327,3.71240825 5.45977066,3.52385108 5.78302963,3.3688402 L5.82033333,3.35133333 L5.96265286,2.21343309 C6.02148706,1.74275949 6.41237037,1.38637748 6.88249937,1.3674574 L8.74481185,1.36666667 Z M8,5.36666667 C9.45434984,5.36666667 10.6333333,6.54565016 10.6333333,8 C10.6333333,8.32414495 10.5746077,8.64065573 10.4614299,8.93761805 C10.4024242,9.09244049 10.2290822,9.17011532 10.0742598,9.11110964 C9.91943734,9.05210395 9.84176251,8.87876201 9.9007682,8.72393956 C9.98803906,8.49495336 10.0333333,8.25083304 10.0333333,8 C10.0333333,6.87702101 9.12297899,5.96666667 8,5.96666667 C6.87702101,5.96666667 5.96666667,6.87702101 5.96666667,8 C5.96666667,9.06782365 6.79283649,9.9518527 7.85168576,10.0280198 C8.01694417,10.0399075 8.14127572,10.1835128 8.12938805,10.3487712 C8.11750038,10.5140296 7.9738951,10.6383611 7.80863669,10.6264735 C6.43647487,10.5277686 5.36666667,9.3830384 5.36666667,8 C5.36666667,6.54565016 6.54565016,5.36666667 8,5.36666667 Z" id="形状结合" fill="#1F3FB3" fill-rule="nonzero"></path>
            <path d="M13.6666667,9.75 C14.1729277,9.75 14.5833333,10.1604056 14.5833333,10.6666667 L14.5833333,13.6666667 C14.5833333,14.1729277 14.1729277,14.5833333 13.6666667,14.5833333 L10,14.5833333 C9.49373898,14.5833333 9.08333333,14.1729277 9.08333333,13.6666667 L9.08333333,10.6666667 C9.08333333,10.1604056 9.49373898,9.75 10,9.75 Z M13.6666667,10.25 L10,10.25 C9.76988135,10.25 9.58333333,10.436548 9.58333333,10.6666667 L9.58333333,13.6666667 C9.58333333,13.8967853 9.76988135,14.0833333 10,14.0833333 L13.6666667,14.0833333 C13.8967853,14.0833333 14.0833333,13.8967853 14.0833333,13.6666667 L14.0833333,10.6666667 C14.0833333,10.436548 13.8967853,10.25 13.6666667,10.25 Z M11.4756119,11.0550053 L12.3501667,12.8068333 L12.6528712,12.166101 C12.6907345,12.0859433 12.7678637,12.0323944 12.8549466,12.0240263 L12.8789212,12.0228782 L13.5,12.0228782 C13.6380712,12.0228782 13.75,12.134807 13.75,12.2728782 C13.75,12.4109494 13.6380712,12.5228782 13.5,12.5228782 L13.0371667,12.5228333 L12.5824403,13.4858669 C12.4968812,13.6669977 12.2470203,13.6769194 12.1447102,13.512245 L12.1327125,13.4907511 L11.256,11.7346667 L10.9543095,12.3620462 C10.9161333,12.4414048 10.8393677,12.4942756 10.7528406,12.5025363 L10.7290219,12.5036696 L10.1666667,12.5036696 C10.0285955,12.5036696 9.91666667,12.3917408 9.91666667,12.2536696 C9.91666667,12.1155984 10.0285955,12.0036696 10.1666667,12.0036696 L10.5716667,12.0036667 L11.0266465,11.0582901 C11.1167496,10.8709884 11.3827779,10.8690421 11.4756119,11.0550053 Z" id="形状结合" fill="#1F3FB3" fill-rule="nonzero"></path>
        </g>
    </g>
</svg>