<!-- Generated by IcoMoon.io -->
<svg version="1.1" xmlns="http://www.w3.org/2000/svg" width="32" height="32" viewBox="0 0 32 32">
<path fill="currentColor" d="M16.003 2.206c1.506 0 2.727 1.221 2.727 2.727 0 0.997-0.535 1.869-1.333 2.344l-0 2.223-0.013 0.075 3.564 2.058c0.492 0.284 0.819 0.779 0.893 1.334l0.016 0.241-0 4.669c0.229-0.12 0.457-0.14 0.615-0.040l0.040 0.029 1.414 1.184c0.91-0.378 1.994-0.248 2.801 0.429 1.154 0.968 1.304 2.688 0.336 3.842s-2.688 1.304-3.842 0.336c-0.955-0.801-1.223-2.117-0.738-3.201l-1.257-1.058-0.076-0.090c-0.064 0.049-0.132 0.095-0.203 0.136l-3.638 2.101c-0.113 0.153-0.328 0.273-0.593 0.328-0.523 0.223-1.125 0.19-1.624-0.098l-3.792-2.189-1.649 1.385c0.215 0.962-0.101 2.009-0.909 2.687-1.154 0.968-2.874 0.818-3.842-0.336s-0.818-2.874 0.336-3.842c0.955-0.802 2.299-0.836 3.282-0.17l1.632-1.37-0.004-0.070v-4.661c0-0.65 0.347-1.25 0.909-1.575l4.037-2.331c0.097-0.056 0.198-0.102 0.302-0.139l0.001-1.572c-1.214-0.276-2.12-1.362-2.12-2.659 0-1.506 1.221-2.727 2.727-2.727zM25.949 20.408c-0.425-0.357-0.988-0.44-1.476-0.269-0.053 0.154-0.142 0.31-0.264 0.456-0.195 0.233-0.433 0.388-0.65 0.445-0.222 0.581-0.063 1.265 0.443 1.689 0.641 0.538 1.597 0.454 2.135-0.187s0.454-1.597-0.187-2.135zM6.017 20.408c-0.641 0.538-0.725 1.494-0.187 2.135s1.494 0.725 2.135 0.187c0.641-0.538 0.725-1.494 0.187-2.135s-1.494-0.725-2.135-0.187zM11.36 13.778l0 4.092c0 0.217 0.116 0.417 0.303 0.525l3.733 2.155v-4.082l-4.036-2.69zM20.644 13.778l-3.289 2.194c0.020 0.040 0.032 0.081 0.038 0.124l0.003 0.050-0.001 3.949 2.946-1.699c0.15-0.087 0.254-0.232 0.29-0.398l0.014-0.127-0.001-4.092zM15.7 10.353l-3.91 2.255 4.213 2.809 4.211-2.809-3.908-2.255c-0.188-0.108-0.419-0.108-0.606 0zM16.003 3.418c-0.837 0-1.515 0.678-1.515 1.515s0.678 1.515 1.515 1.515c0.837 0 1.515-0.678 1.515-1.515s-0.678-1.515-1.515-1.515z"></path>
<path fill="currentColor" d="M3.994 7.961c0.716-1.061 2.157-1.341 3.218-0.626 0.808 0.545 1.163 1.51 0.971 2.407 0.224-0.201 0.467-0.286 0.63-0.206l0.041 0.025 1.803 1.33c0.222 0.164 0.16 0.648-0.139 1.081-0.282 0.407-0.673 0.624-0.903 0.512l-0.041-0.025-1.803-1.33c-0.089-0.065-0.132-0.181-0.133-0.325-0.756 0.851-2.046 1.030-3.018 0.375-1.061-0.716-1.341-2.157-0.626-3.218zM6.653 8.164c-0.604-0.407-1.423-0.248-1.83 0.356s-0.248 1.423 0.356 1.83c0.604 0.407 1.423 0.248 1.83-0.356s0.248-1.423-0.356-1.83zM28.009 7.961c0.716 1.061 0.436 2.502-0.626 3.218-0.745 0.502-1.677 0.514-2.414 0.11l-1.589 1.17-0.041 0.025c-0.23 0.113-0.622-0.104-0.903-0.512-0.299-0.433-0.362-0.917-0.139-1.081l1.528-1.129c-0.201-0.903 0.153-1.878 0.967-2.427 1.061-0.716 2.502-0.436 3.218 0.626zM25.35 8.164c-0.593 0.4-0.757 1.197-0.377 1.797l0.071 0.087c0.008 0.012 0.016 0.024 0.024 0.036l-0.074-0.089c0.407 0.604 1.226 0.763 1.83 0.356s0.763-1.226 0.356-1.83c-0.407-0.604-1.226-0.763-1.83-0.356zM16.569 22.467c0.495 0.006 0.894 0.209 0.929 0.463l0.002 0.048-0.095 2.239c-0.003 0.068-0.032 0.133-0.081 0.192 0.684 0.402 1.144 1.146 1.144 1.998 0 1.28-1.038 2.318-2.318 2.318s-2.318-1.038-2.318-2.318c0-1.054 0.704-1.944 1.667-2.225l0.096-2.225c0.012-0.276 0.448-0.495 0.974-0.489zM16.15 26.089c-0.728 0-1.318 0.59-1.318 1.318s0.59 1.318 1.318 1.318c0.728 0 1.318-0.59 1.318-1.318s-0.59-1.318-1.318-1.318z"></path>
</svg>
