<?xml version="1.0" encoding="UTF-8"?>
<svg width="16px" height="16px" viewBox="0 0 16 16" version="1.1" xmlns="http://www.w3.org/2000/svg" xmlns:xlink="http://www.w3.org/1999/xlink">
    <title>画板备份</title>
    <g id="画板备份" stroke="none" stroke-width="1" fill="none" fill-rule="evenodd">
        <g id="编组">
            <rect id="矩形" x="0" y="0" width="16" height="16"></rect>
            <path d="M6.68468468,1.7 C7.20860887,1.7 7.63333333,2.12472447 7.63333333,2.64864865 L7.63333333,6.68468468 C7.63333333,7.20860887 7.20860887,7.63333333 6.68468468,7.63333333 L2.64864865,7.63333333 C2.12472447,7.63333333 1.7,7.20860887 1.7,6.68468468 L1.7,2.64864865 C1.7,2.12472447 2.12472447,1.7 2.64864865,1.7 Z M3.15116667,5.494 L2.30002385,6.6888052 C2.30223179,6.87945999 2.4574707,7.03333333 2.64864865,7.03333333 L4.434,7.03240452 L3.15116667,5.494 Z M4.74883333,4.976 L4.046,5.94240452 L4.82030977,6.87196174 C4.85920224,6.91863185 4.87323609,6.97778259 4.86387312,7.03333253 L6.68468468,7.03333333 C6.70600309,7.03333333 6.7268746,7.03141997 6.74713687,7.02775561 L4.74883333,4.976 Z M6.68468468,2.3 L2.64864865,2.3 C2.45609532,2.3 2.3,2.45609532 2.3,2.64864865 L2.3,5.99940452 L2.97590349,5.05071463 C3.04747116,4.95013439 3.1903933,4.93892256 3.27696364,5.02195434 L3.29250402,5.0386284 L3.781,5.62540452 L4.56485746,4.54902511 C4.63320674,4.45505365 4.76543832,4.43998044 4.8529703,4.51161225 L4.86984852,4.52709699 L7.027,6.74140452 L7.03333333,6.68468468 L7.03333333,2.64864865 C7.03333333,2.45609532 6.87723802,2.3 6.68468468,2.3 Z M5.91666667,3.13333333 C6.34928972,3.13333333 6.7,3.48404361 6.7,3.91666667 C6.7,4.34928972 6.34928972,4.7 5.91666667,4.7 C5.48404361,4.7 5.13333333,4.34928972 5.13333333,3.91666667 C5.13333333,3.48404361 5.48404361,3.13333333 5.91666667,3.13333333 Z M5.91666667,3.53333333 C5.70495751,3.53333333 5.53333333,3.70495751 5.53333333,3.91666667 C5.53333333,4.12837582 5.70495751,4.3 5.91666667,4.3 C6.12837582,4.3 6.3,4.12837582 6.3,3.91666667 C6.3,3.70495751 6.12837582,3.53333333 5.91666667,3.53333333 Z M13.3513514,8.36666667 L9.31531532,8.36666667 C8.79139113,8.36666667 8.36666667,8.79139113 8.36666667,9.31531532 L8.36666667,13.3513514 C8.36666667,13.8752755 8.79139113,14.3 9.31531532,14.3 L13.3513514,14.3 C13.8752755,14.3 14.3,13.8752755 14.3,13.3513514 L14.3,9.31531532 C14.3,8.79139113 13.8752755,8.36666667 13.3513514,8.36666667 Z M9.31531532,8.96666667 L13.3513514,8.96666667 C13.5439047,8.96666667 13.7,9.12276198 13.7,9.31531532 L13.7,13.3513514 C13.7,13.5439047 13.5439047,13.7 13.3513514,13.7 L9.31531532,13.7 C9.12276198,13.7 8.96666667,13.5439047 8.96666667,13.3513514 L8.96666667,9.31531532 C8.96666667,9.12276198 9.12276198,8.96666667 9.31531532,8.96666667 Z M6.68468468,8.36666667 L2.64864865,8.36666667 C2.12472447,8.36666667 1.7,8.79139113 1.7,9.31531532 L1.7,13.3513514 C1.7,13.8752755 2.12472447,14.3 2.64864865,14.3 L6.68468468,14.3 C7.20860887,14.3 7.63333333,13.8752755 7.63333333,13.3513514 L7.63333333,9.31531532 C7.63333333,8.79139113 7.20860887,8.36666667 6.68468468,8.36666667 Z M2.64864865,8.96666667 L6.68468468,8.96666667 C6.87723802,8.96666667 7.03333333,9.12276198 7.03333333,9.31531532 L7.03333333,13.3513514 C7.03333333,13.5439047 6.87723802,13.7 6.68468468,13.7 L2.64864865,13.7 C2.45609532,13.7 2.3,13.5439047 2.3,13.3513514 L2.3,9.31531532 C2.3,9.12276198 2.45609532,8.96666667 2.64864865,8.96666667 Z M10.885499,1.85690356 L8.69023689,4.05216571 C8.44290484,4.29949776 8.44290484,4.70050224 8.69023689,4.94783429 L10.885499,7.14309644 C11.1328311,7.39042849 11.5338356,7.39042849 11.7811676,7.14309644 L13.9764298,4.94783429 C14.2237618,4.70050224 14.2237618,4.29949776 13.9764298,4.05216571 L11.7811676,1.85690356 C11.5338356,1.60957151 11.1328311,1.60957151 10.885499,1.85690356 Z M11.3569036,2.28116763 L13.5521657,4.47642977 C13.5651832,4.48944725 13.5651832,4.51055275 13.5521657,4.52357023 L11.3569036,6.71883237 C11.3438861,6.73184985 11.3227806,6.73184985 11.3097631,6.71883237 L9.11450096,4.52357023 C9.10148349,4.51055275 9.10148349,4.48944725 9.11450096,4.47642977 L11.3097631,2.28116763 C11.3227806,2.26815015 11.3438861,2.26815015 11.3569036,2.28116763 Z" id="形状结合" fill="#A7C900" fill-rule="nonzero"></path>
        </g>
    </g>
</svg>