<!-- Generated by IcoMoon.io -->
<svg version="1.1" xmlns="http://www.w3.org/2000/svg" width="32" height="32" viewBox="0 0 32 32">
<path fill="currentColor" d="M13.369 3.4c1.048 0 1.897 0.849 1.897 1.897v8.072c0 1.048-0.849 1.897-1.897 1.897h-8.072c-1.048 0-1.897-0.849-1.897-1.897v-8.072c0-1.048 0.849-1.897 1.897-1.897zM6.302 10.988l-1.702 2.39c0.004 0.381 0.315 0.689 0.697 0.689l3.571-0.002-2.566-3.077zM9.498 9.952l-1.406 1.933 1.549 1.859c0.078 0.093 0.106 0.212 0.087 0.323h3.642c0.043 0 0.084-0.004 0.125-0.011l-3.997-4.104zM13.369 4.6h-8.072c-0.385 0-0.697 0.312-0.697 0.697v6.702l1.352-1.897c0.143-0.201 0.429-0.224 0.602-0.058l0.031 0.033 0.977 1.174 1.568-2.153c0.137-0.188 0.401-0.218 0.576-0.075l0.034 0.031 4.314 4.429 0.013-0.113v-8.072c0-0.385-0.312-0.697-0.697-0.697zM11.833 6.267c0.865 0 1.567 0.701 1.567 1.567s-0.701 1.567-1.567 1.567c-0.865 0-1.567-0.701-1.567-1.567s0.701-1.567 1.567-1.567zM11.833 7.067c-0.423 0-0.767 0.343-0.767 0.767s0.343 0.767 0.767 0.767c0.423 0 0.767-0.343 0.767-0.767s-0.343-0.767-0.767-0.767zM26.703 16.733h-8.072c-1.048 0-1.897 0.849-1.897 1.897v8.072c0 1.048 0.849 1.897 1.897 1.897h8.072c1.048 0 1.897-0.849 1.897-1.897v-8.072c0-1.048-0.849-1.897-1.897-1.897zM18.631 17.933h8.072c0.385 0 0.697 0.312 0.697 0.697v8.072c0 0.385-0.312 0.697-0.697 0.697h-8.072c-0.385 0-0.697-0.312-0.697-0.697v-8.072c0-0.385 0.312-0.697 0.697-0.697zM13.369 16.733h-8.072c-1.048 0-1.897 0.849-1.897 1.897v8.072c0 1.048 0.849 1.897 1.897 1.897h8.072c1.048 0 1.897-0.849 1.897-1.897v-8.072c0-1.048-0.849-1.897-1.897-1.897zM5.297 17.933h8.072c0.385 0 0.697 0.312 0.697 0.697v8.072c0 0.385-0.312 0.697-0.697 0.697h-8.072c-0.385 0-0.697-0.312-0.697-0.697v-8.072c0-0.385 0.312-0.697 0.697-0.697zM21.771 3.714l-4.391 4.391c-0.495 0.495-0.495 1.297 0 1.791l4.391 4.391c0.495 0.495 1.297 0.495 1.791 0l4.391-4.391c0.495-0.495 0.495-1.297 0-1.791l-4.391-4.391c-0.495-0.495-1.297-0.495-1.791 0zM22.714 4.562l4.391 4.391c0.026 0.026 0.026 0.068 0 0.094l-4.391 4.391c-0.026 0.026-0.068 0.026-0.094 0l-4.391-4.391c-0.026-0.026-0.026-0.068 0-0.094l4.391-4.391c0.026-0.026 0.068-0.026 0.094 0z"></path>
</svg>
