<svg version="1.1" xmlns="http://www.w3.org/2000/svg" width="32" height="32" viewBox="0 0 32 32">
<path fill="currentColor" d="M15.5 2.4c3.921 0 7.1 3.179 7.1 7.1 0 2.758-1.573 5.149-3.871 6.325 1.249 0.334 2.437 0.863 3.526 1.569 0.278 0.18 0.357 0.552 0.177 0.83s-0.552 0.357-0.83 0.177c-1.803-1.169-3.905-1.801-6.103-1.801-6.204 0-11.233 5.029-11.233 11.233 0 0.331-0.269 0.6-0.6 0.6s-0.6-0.269-0.6-0.6c0-5.75 3.903-10.588 9.203-12.010-2.298-1.175-3.87-3.566-3.87-6.324 0-3.921 3.179-7.1 7.1-7.1zM15.5 3.6c-3.258 0-5.9 2.642-5.9 5.9s2.642 5.9 5.9 5.9c3.258 0 5.9-2.642 5.9-5.9s-2.642-5.9-5.9-5.9z"></path>
<path fill="currentColor" d="M25.722 20.877c-0.252-0.215-0.631-0.185-0.846 0.068-0.203 0.238-0.187 0.589 0.028 0.809l0.040 0.037 2.762 2.352-2.732 2.044c-0.251 0.187-0.313 0.533-0.152 0.795l0.031 0.045c0.187 0.251 0.533 0.313 0.795 0.152l0.045-0.031 3.333-2.494c0.294-0.22 0.321-0.646 0.068-0.902l-0.038-0.035-3.333-2.84zM18.278 20.877c0.252-0.215 0.631-0.185 0.846 0.068 0.203 0.238 0.187 0.589-0.028 0.809l-0.040 0.037-2.762 2.352 2.732 2.044c0.251 0.187 0.313 0.533 0.152 0.795l-0.031 0.045c-0.187 0.251-0.533 0.313-0.795 0.152l-0.045-0.031-3.333-2.494c-0.294-0.22-0.321-0.646-0.068-0.902l0.038-0.035 3.333-2.84zM23.11 19.777c0.123-0.308 0.472-0.457 0.78-0.334 0.291 0.117 0.441 0.436 0.351 0.731l-0.017 0.049-3.333 8.333c-0.123 0.308-0.472 0.457-0.78 0.334-0.291-0.117-0.441-0.436-0.351-0.731l0.017-0.049 3.333-8.333z"></path>
</svg>
