<!-- Generated by IcoMoon.io -->
<svg version="1.1" xmlns="http://www.w3.org/2000/svg" width="32" height="32" viewBox="0 0 32 32">
<path fill="currentColor" d="M4 28.539c-0.315 0-0.573-0.242-0.598-0.551l-0.002-0.049v-23.439c0-0.331 0.269-0.6 0.6-0.6 0.315 0 0.573 0.242 0.598 0.551l0.002 0.049v22.838l2.911-0 0-7.066c0-0.666 0.514-1.212 1.168-1.263l0.099-0.004h2c0.7 0 1.267 0.567 1.267 1.267l-0 7.066h2.578l0-11.399c0-0.666 0.514-1.212 1.168-1.263l0.099-0.004h2c0.7 0 1.267 0.567 1.267 1.267l-0 11.399h3.244l0.001-15.399c0-0.666 0.514-1.212 1.168-1.263l0.099-0.004h2c0.7 0 1.267 0.567 1.267 1.267l-0.001 15.399 1.072 0.001c0.315 0 0.573 0.242 0.598 0.551l0.002 0.049c0 0.315-0.242 0.573-0.551 0.598l-0.049 0.002h-24.004zM10.778 20.205h-2c-0.037 0-0.067 0.030-0.067 0.067l-0 7.066h2.133l0-7.066c0-0.031-0.021-0.057-0.049-0.064l-0.018-0.002zM25.667 11.872h-2c-0.037 0-0.067 0.030-0.067 0.067l-0 15.4h2.133l0-15.4c0-0.031-0.021-0.057-0.049-0.064l-0.018-0.002zM17.889 15.872h-2c-0.037 0-0.067 0.030-0.067 0.067l-0 11.4h2.133l0-11.4c0-0.031-0.021-0.057-0.049-0.064l-0.018-0.002z"></path>
<path fill="currentColor" d="M22.225 4.619l0.051 0.001 2.908 0.22c0.267 0.020 0.467 0.246 0.462 0.508l-0.003 0.050-0.336 2.845c-0.032 0.274-0.281 0.47-0.555 0.438-0.257-0.030-0.445-0.251-0.441-0.504l0.003-0.051 0.223-1.888-5.769 3.767c-0.159 0.104-0.361 0.108-0.523 0.015l-0.043-0.028-2.502-1.804-6.919 4.977c-0.211 0.152-0.5 0.116-0.668-0.076l-0.030-0.038c-0.152-0.211-0.115-0.5 0.076-0.668l0.038-0.030 7.211-5.187c0.161-0.116 0.374-0.125 0.543-0.026l0.041 0.027 2.516 1.814 4.997-3.263-1.304-0.098c-0.258-0.019-0.456-0.232-0.462-0.485l0.001-0.051c0.020-0.258 0.232-0.456 0.485-0.462z"></path>
</svg>
