<?xml version="1.0" encoding="UTF-8"?>
<svg width="16px" height="16px" viewBox="0 0 16 16" version="1.1" xmlns="http://www.w3.org/2000/svg" xmlns:xlink="http://www.w3.org/1999/xlink">
    <title>画板备份</title>
    <g id="画板备份" stroke="none" stroke-width="1" fill="none" fill-rule="evenodd">
        <g id="编组">
            <rect id="矩形" x="0" y="0" width="16" height="16"></rect>
            <path d="M14.1190476,2.36666667 C14.6336889,2.36666667 15.0470407,2.78917543 15.065988,3.31093775 L15.0666667,3.34837093 L15.0666667,8.68769498 C15.0666667,8.85338041 14.9323521,8.98769498 14.7666667,8.98769498 C14.6092655,8.98769498 14.4801766,8.86647608 14.4676612,8.71229965 L14.4666667,8.68769498 L14.4666667,3.34837093 C14.4666667,3.14352872 14.3210335,2.98132442 14.1434508,2.96760692 L14.1190476,2.96666667 L1.81428571,2.96666667 C1.63403344,2.96666667 1.48056317,3.11996479 1.46755868,3.32071212 L1.46666667,3.34837093 L1.46666667,11.6992481 C1.46666667,11.9040903 1.61229988,12.0662946 1.78988254,12.0800121 L1.81428571,12.0809524 L14.1190476,12.0809524 C14.2992999,12.0809524 14.4527702,11.9276543 14.4657747,11.7269069 L14.4666667,11.6992481 L14.4666667,10.0463638 C14.4666667,9.88067833 14.6009812,9.74636375 14.7666667,9.74636375 C14.9240678,9.74636375 15.0531568,9.86758266 15.0656722,10.0217591 L15.0666667,10.0463638 L15.0666667,11.6992481 C15.0666667,12.2255536 14.6652833,12.660302 14.1556315,12.6802382 L14.1190476,12.6809524 L1.81428571,12.6809524 C1.29964439,12.6809524 0.886292662,12.2584436 0.867345335,11.7366813 L0.866666667,11.6992481 L0.866666667,3.34837093 C0.866666667,2.82206549 1.26804999,2.38731707 1.77770184,2.36738086 L1.81428571,2.36666667 L14.1190476,2.36666667 Z M11.7656019,13.5583333 C11.9312873,13.5583333 12.0656019,13.782191 12.0656019,14.0583333 C12.0656019,14.3206686 11.944383,14.5358169 11.7902065,14.5566758 L11.7656019,14.5583333 L4.10759947,14.5583333 C3.94191404,14.5583333 3.80759947,14.3344757 3.80759947,14.0583333 C3.80759947,13.7959981 3.92881837,13.5808498 4.0829948,13.5599908 L4.10759947,13.5583333 L11.7656019,13.5583333 Z" id="形状结合" fill="#E00070" fill-rule="nonzero"></path>
            <path d="M7.14814815,3.91666667 L5.18518519,3.91666667 C4.85279159,3.91666667 4.58333333,4.18612492 4.58333333,4.51851852 L4.58333333,6.48148148 C4.58333333,6.81387508 4.85279159,7.08333333 5.18518519,7.08333333 L7.14814815,7.08333333 C7.48054175,7.08333333 7.75,6.81387508 7.75,6.48148148 L7.75,4.51851852 C7.75,4.18612492 7.48054175,3.91666667 7.14814815,3.91666667 Z M5.18518519,4.41666667 L7.14814815,4.41666667 C7.20439937,4.41666667 7.25,4.46226729 7.25,4.51851852 L7.25,6.48148148 C7.25,6.53773271 7.20439937,6.58333333 7.14814815,6.58333333 L5.18518519,6.58333333 C5.12893396,6.58333333 5.08333333,6.53773271 5.08333333,6.48148148 L5.08333333,4.51851852 C5.08333333,4.46226729 5.12893396,4.41666667 5.18518519,4.41666667 Z M7.14814815,7.58333333 L5.18518519,7.58333333 C4.85279159,7.58333333 4.58333333,7.85279159 4.58333333,8.18518519 L4.58333333,10.1481481 C4.58333333,10.4805417 4.85279159,10.75 5.18518519,10.75 L7.14814815,10.75 C7.48054175,10.75 7.75,10.4805417 7.75,10.1481481 L7.75,8.18518519 C7.75,7.85279159 7.48054175,7.58333333 7.14814815,7.58333333 Z M5.18518519,8.08333333 L7.14814815,8.08333333 C7.20439937,8.08333333 7.25,8.12893396 7.25,8.18518519 L7.25,10.1481481 C7.25,10.2043994 7.20439937,10.25 7.14814815,10.25 L5.18518519,10.25 C5.12893396,10.25 5.08333333,10.2043994 5.08333333,10.1481481 L5.08333333,8.18518519 C5.08333333,8.12893396 5.12893396,8.08333333 5.18518519,8.08333333 Z M10.8148148,7.58333333 L8.85185185,7.58333333 C8.51945825,7.58333333 8.25,7.85279159 8.25,8.18518519 L8.25,10.1481481 C8.25,10.4805417 8.51945825,10.75 8.85185185,10.75 L10.8148148,10.75 C11.1472084,10.75 11.4166667,10.4805417 11.4166667,10.1481481 L11.4166667,8.18518519 C11.4166667,7.85279159 11.1472084,7.58333333 10.8148148,7.58333333 Z M8.85185185,8.08333333 L10.8148148,8.08333333 C10.871066,8.08333333 10.9166667,8.12893396 10.9166667,8.18518519 L10.9166667,10.1481481 C10.9166667,10.2043994 10.871066,10.25 10.8148148,10.25 L8.85185185,10.25 C8.79560063,10.25 8.75,10.2043994 8.75,10.1481481 L8.75,8.18518519 C8.75,8.12893396 8.79560063,8.08333333 8.85185185,8.08333333 Z M9.19789278,3.94855383 L8.28188716,4.86455945 C7.93094304,5.21550357 7.93094304,5.78449643 8.28188716,6.13544055 L9.19789278,7.05144617 C9.54883691,7.4023903 10.1178298,7.4023903 10.4687739,7.05144617 L11.3847795,6.13544055 C11.7357236,5.78449643 11.7357236,5.21550357 11.3847795,4.86455945 L10.4687739,3.94855383 C10.1178298,3.5976097 9.54883691,3.5976097 9.19789278,3.94855383 Z M10.1152205,4.30210722 L11.0312261,5.21811284 C11.1869081,5.37379482 11.1869081,5.62620518 11.0312261,5.78188716 L10.1152205,6.69789278 C9.95953851,6.85357476 9.70712815,6.85357476 9.55144617,6.69789278 L8.63544055,5.78188716 C8.47975857,5.62620518 8.47975857,5.37379482 8.63544055,5.21811284 L9.55144617,4.30210722 C9.70712815,4.14642524 9.95953851,4.14642524 10.1152205,4.30210722 Z" id="形状结合" fill="#E00070" fill-rule="nonzero"></path>
        </g>
    </g>
</svg>