<!-- Generated by IcoMoon.io -->
<svg version="1.1" xmlns="http://www.w3.org/2000/svg" width="32" height="32" viewBox="0 0 32 32">
<path fill="currentColor" d="M28.238 4.733c1.029 0 1.856 0.845 1.894 1.889l0.001 0.075v10.679c0 0.331-0.269 0.6-0.6 0.6-0.315 0-0.573-0.242-0.598-0.551l-0.002-0.049v-10.679c0-0.41-0.291-0.734-0.646-0.762l-0.049-0.002h-24.61c-0.361 0-0.667 0.307-0.693 0.708l-0.002 0.055v16.702c0 0.41 0.291 0.734 0.646 0.762l0.049 0.002h24.61c0.36 0 0.667-0.307 0.693-0.708l0.002-0.055v-3.306c0-0.331 0.269-0.6 0.6-0.6 0.315 0 0.573 0.242 0.598 0.551l0.002 0.049v3.306c0 1.053-0.803 1.922-1.822 1.962l-0.073 0.001h-24.61c-1.029 0-1.856-0.845-1.894-1.889l-0.001-0.075v-16.702c0-1.053 0.803-1.922 1.822-1.962l0.073-0.001h24.61zM23.531 27.117c0.331 0 0.6 0.448 0.6 1 0 0.525-0.242 0.955-0.551 0.997l-0.049 0.003h-15.316c-0.331 0-0.6-0.448-0.6-1 0-0.525 0.242-0.955 0.551-0.997l0.049-0.003h15.316z"></path>
<path fill="currentColor" d="M14.296 7.833h-3.926c-0.665 0-1.204 0.539-1.204 1.204v3.926c0 0.665 0.539 1.204 1.204 1.204h3.926c0.665 0 1.204-0.539 1.204-1.204v-3.926c0-0.665-0.539-1.204-1.204-1.204zM10.37 8.833h3.926c0.113 0 0.204 0.091 0.204 0.204v3.926c0 0.113-0.091 0.204-0.204 0.204h-3.926c-0.113 0-0.204-0.091-0.204-0.204v-3.926c0-0.113 0.091-0.204 0.204-0.204zM14.296 15.167h-3.926c-0.665 0-1.204 0.539-1.204 1.204v3.926c0 0.665 0.539 1.204 1.204 1.204h3.926c0.665 0 1.204-0.539 1.204-1.204v-3.926c0-0.665-0.539-1.204-1.204-1.204zM10.37 16.167h3.926c0.113 0 0.204 0.091 0.204 0.204v3.926c0 0.113-0.091 0.204-0.204 0.204h-3.926c-0.113 0-0.204-0.091-0.204-0.204v-3.926c0-0.113 0.091-0.204 0.204-0.204zM21.63 15.167h-3.926c-0.665 0-1.204 0.539-1.204 1.204v3.926c0 0.665 0.539 1.204 1.204 1.204h3.926c0.665 0 1.204-0.539 1.204-1.204v-3.926c0-0.665-0.539-1.204-1.204-1.204zM17.704 16.167h3.926c0.113 0 0.204 0.091 0.204 0.204v3.926c0 0.113-0.091 0.204-0.204 0.204h-3.926c-0.113 0-0.204-0.091-0.204-0.204v-3.926c0-0.113 0.091-0.204 0.204-0.204zM18.396 7.897l-1.832 1.832c-0.702 0.702-0.702 1.84 0 2.542l1.832 1.832c0.702 0.702 1.84 0.702 2.542 0l1.832-1.832c0.702-0.702 0.702-1.84 0-2.542l-1.832-1.832c-0.702-0.702-1.84-0.702-2.542 0zM20.23 8.604l1.832 1.832c0.311 0.311 0.311 0.816 0 1.128l-1.832 1.832c-0.311 0.311-0.816 0.311-1.128 0l-1.832-1.832c-0.311-0.311-0.311-0.816 0-1.128l1.832-1.832c0.311-0.311 0.816-0.311 1.128 0z"></path>
</svg>
