<!-- Generated by IcoMoon.io -->
<svg version="1.1" xmlns="http://www.w3.org/2000/svg" width="32" height="32" viewBox="0 0 32 32">
<path fill="currentColor" d="M29.631 15.124c0.76 0.845 0.75 2.13-0.023 2.963l-1.719 1.843-0.803 0.854-0.813 0.859-0.702 0.733-0.523 0.539-0.322 0.326-0.33 0.327-0.227 0.219-0.116 0.108-0.069 0.063c-0.083 0.075-0.195 0.146-0.335 0.212l-0.098 0.044c-0.068 0.029-0.142 0.057-0.221 0.084l-0.124 0.040c-0.021 0.007-0.043 0.013-0.065 0.020l-0.137 0.038c-0.023 0.006-0.047 0.013-0.072 0.019l-0.15 0.037-0.158 0.035-0.167 0.034-0.176 0.033-0.185 0.032-0.194 0.031-0.202 0.030-0.211 0.029-0.22 0.027-0.229 0.026-0.238 0.025-0.374 0.036-0.261 0.023-0.27 0.021-0.422 0.030-0.595 0.037-0.471 0.025-0.492 0.022-0.513 0.020-0.534 0.018-0.745 0.020-0.783 0.017-0.822 0.013-0.641 0.007-0.889 0.006-0.928 0.003-0.722-0-0.524-0.002c-0.017 0.391-0.192 0.777-0.517 1.058l-1.39 1.202c-0.622 0.538-1.57 0.498-2.129-0.098l-4.576-4.875c-0.573-0.61-0.512-1.56 0.124-2.11l1.39-1.202c0.501-0.433 1.213-0.492 1.763-0.187l3.953-2.127c0.588-0.316 1.24-0.493 1.906-0.519l0.143-0.003 8.422-0.043c1.11-0.006 2.015 0.884 2.025 1.992 0.003 0.306-0.061 0.597-0.178 0.861l0.518-0.017 4.456-4.012c0.844-0.76 2.145-0.692 2.905 0.152zM4.972 19.945c-0.115-0.122-0.33-0.131-0.47-0.011l-1.39 1.202c-0.125 0.108-0.135 0.273-0.034 0.381l4.576 4.875c0.115 0.122 0.33 0.131 0.47 0.011l1.39-1.202c0.125-0.108 0.136-0.273 0.034-0.381zM27.573 15.826l-0.045 0.038-4.619 4.159c-0.092 0.083-0.207 0.135-0.329 0.15l-0.053 0.004-3.354 0.107-0.704 0.044c-0.060 0.004-0.119-0.002-0.174-0.015l-3.434 0.109c-0.331 0.011-0.608-0.249-0.619-0.58-0.010-0.315 0.224-0.58 0.531-0.615l0.049-0.004 4.315-0.139 0.762-0.046c0.471-0.029 0.836-0.419 0.832-0.887-0.004-0.427-0.34-0.775-0.763-0.801l-0.056-0.002-8.422 0.043c-0.479 0.002-0.951 0.113-1.38 0.324l-0.106 0.055-3.607 1.94 3.887 4.14 0.747 0.003 1.125 0 0.863-0.004 0.626-0.005 0.805-0.009 0.959-0.016 0.729-0.017 0.864-0.025 0.81-0.029 0.609-0.027 0.574-0.030 0.539-0.032 0.503-0.035 0.468-0.038 0.432-0.040 0.3-0.032 0.368-0.044 0.17-0.023 0.238-0.036 0.218-0.037 0.133-0.025 0.124-0.026 0.115-0.026c0.018-0.004 0.036-0.009 0.054-0.013l0.101-0.027c0.016-0.005 0.032-0.009 0.047-0.014l0.087-0.028c0.014-0.005 0.027-0.009 0.040-0.014l0.072-0.029 0.063-0.029c0.039-0.020 0.071-0.040 0.097-0.060l0.050-0.044 0.185-0.173 0.28-0.273 0.471-0.474 0.583-0.6 0.694-0.726 1.136-1.202 1.085-1.159 1.082-1.162c0.351-0.377 0.355-0.96 0.010-1.343-0.304-0.337-0.814-0.377-1.166-0.101zM18.742 4.263l0.333 0.051 0.17 0.028 0.346 0.060 0.355 0.067c0.060 0.012 0.12 0.023 0.181 0.036l0.368 0.076c0.062 0.013 0.124 0.027 0.187 0.040l0.381 0.085c0.064 0.015 0.129 0.030 0.194 0.045l0.394 0.094c0.333 0.081 0.53 0.423 0.434 0.752-0.038 0.131-0.077 0.261-0.116 0.389l-0.117 0.378-0.117 0.367-0.118 0.356c-0.020 0.059-0.040 0.117-0.059 0.174l-0.12 0.34c-0.941 2.625-1.967 4.267-3.133 4.94-0.889 0.513-1.904 0.706-2.9 0.568-0.328-0.045-0.558-0.348-0.512-0.677s0.348-0.558 0.677-0.512c0.734 0.101 1.48-0.040 2.136-0.419 0.486-0.28 0.977-0.854 1.463-1.719l0.112-0.205c0.15-0.28 0.299-0.587 0.447-0.922l0.111-0.256c0.018-0.044 0.037-0.088 0.055-0.132l0.111-0.272c0.037-0.092 0.074-0.186 0.11-0.282l0.11-0.292 0.11-0.303c0.018-0.051 0.036-0.103 0.055-0.155l0.109-0.318c0.018-0.054 0.036-0.108 0.054-0.163l0.108-0.333 0.090-0.285-0.117-0.026c-0.119-0.027-0.237-0.052-0.354-0.077l-0.345-0.071c-0.113-0.023-0.225-0.045-0.336-0.065l-0.327-0.060c-0.107-0.019-0.213-0.037-0.318-0.054l-0.309-0.048c-0.051-0.008-0.101-0.015-0.151-0.022l-0.295-0.040-0.286-0.034c-1.641-0.184-2.817-0.083-3.511 0.287l-0.058 0.032c-1.391 0.803-1.99 2.451-1.523 3.921 0.933-0.742 1.819-1.246 2.663-1.512 0.316-0.1 0.653 0.075 0.753 0.391s-0.075 0.653-0.391 0.753c-1.514 0.478-3.322 1.967-5.384 4.476-0.21 0.256-0.589 0.293-0.845 0.082s-0.293-0.589-0.082-0.845c0.804-0.978 1.577-1.815 2.322-2.511-0.937-2.103-0.152-4.618 1.887-5.795 1.042-0.602 2.698-0.72 4.996-0.383z"></path>
</svg>
