<!-- Generated by IcoMoon.io -->
<svg version="1.1" xmlns="http://www.w3.org/2000/svg" width="32" height="32" viewBox="0 0 32 32">
<path fill="currentColor" d="M14.5 4.4c1.382 0 2.731 0.238 4.004 0.699 0.312 0.113 0.473 0.457 0.36 0.768s-0.457 0.473-0.768 0.36c-1.143-0.413-2.354-0.627-3.596-0.627-5.836 0-10.567 4.731-10.567 10.567s4.731 10.567 10.567 10.567c5.836 0 10.567-4.731 10.567-10.567 0-3.44-1.655-6.603-4.394-8.577-0.269-0.194-0.33-0.569-0.136-0.838s0.569-0.33 0.838-0.136c3.048 2.198 4.892 5.72 4.892 9.551 0 2.254-0.634 4.36-1.732 6.149l4.335 3.378c0.261 0.204 0.308 0.581 0.105 0.842-0.192 0.247-0.539 0.302-0.797 0.136l-0.045-0.032-4.277-3.334c-2.15 2.813-5.54 4.627-9.354 4.627-6.499 0-11.767-5.268-11.767-11.767s5.268-11.767 11.767-11.767z"></path>
<path fill="currentColor" d="M14.831 11.167c1.496 0 2.808 0.992 3.476 2.407 1.668 0.454 2.859 1.969 2.859 3.727 0 2.136-1.744 3.866-3.894 3.866l-3.263-0c-0.003 0-0.006 0-0.010 0h-1.883c-2.184 0-3.95-1.802-3.95-4.020 0-1.925 1.339-3.566 3.165-3.941 0.667-1.238 2.008-2.039 3.5-2.039zM14.831 12.167c-1.195 0-2.254 0.678-2.708 1.694-0.078 0.175-0.244 0.283-0.423 0.295-0.009 0.002-0.020 0.004-0.030 0.006l-0.026 0.004c-1.418 0.233-2.478 1.492-2.478 2.982 0 1.67 1.323 3.020 2.95 3.020l1.873 0c0.003-0 0.007-0 0.010-0h3.273c1.599 0 2.894-1.284 2.894-2.866 0-1.334-0.928-2.481-2.215-2.787l-0.109-0.024c-0.203-0.040-0.353-0.199-0.393-0.39-0.003-0.004-0.006-0.010-0.008-0.015-0.503-1.136-1.51-1.919-2.611-1.919z"></path>
</svg>
