<?xml version="1.0" encoding="UTF-8"?>
<svg width="48px" height="48px" viewBox="0 0 48 48" version="1.1" xmlns="http://www.w3.org/2000/svg" xmlns:xlink="http://www.w3.org/1999/xlink">
    <title>进行SIG交流</title>
    <g id="进行SIG交流" stroke="none" stroke-width="1" fill="none" fill-rule="evenodd">
        <g id="编组">
            <rect id="矩形" x="0" y="0" width="48" height="48"></rect>
            <path d="M7.64284083,30.5750359 C8.4924536,32.7696576 9.79188147,34.7729177 11.4938771,36.4749133 C13.9083561,38.8893923 16.7700473,40.4779094 19.8778539,41.1496835 C19.9950563,40.3945881 20.3449726,39.6691084 20.9265294,39.0875515 C22.3865864,37.6274946 24.7538064,37.6274946 26.2138634,39.0875515 C27.6739203,40.5476085 27.6739203,42.9148285 26.2138634,44.3748855 C24.7538064,45.8349424 22.3865864,45.8349424 20.9265294,44.3748855 C20.5296783,43.9780343 20.2406933,43.5141636 20.0595746,43.019706 L20.3645933,43.0741023 C16.5791557,42.4500755 13.0985043,40.6251249 10.2210848,37.7477055 C8.34108865,35.8677093 6.90386909,33.652023 5.96423931,31.2248796 C5.7847899,30.7613466 6.01508517,30.2401064 6.47861818,30.060657 C6.94215119,29.8812076 7.46339143,30.1115029 7.64284083,30.5750359 Z M24.9410712,40.3603437 C24.1839579,39.6032305 22.9564349,39.6032305 22.1993217,40.3603437 C21.4422084,41.117457 21.4422084,42.34498 22.1993217,43.1020933 C22.9564349,43.8592065 24.1839579,43.8592065 24.9410712,43.1020933 C25.6981844,42.34498 25.6981844,41.117457 24.9410712,40.3603437 Z M39.0875515,20.9265294 C40.5476085,19.4664725 42.9148285,19.4664725 44.3748855,20.9265294 C45.8349424,22.3865864 45.8349424,24.7538064 44.3748855,26.2138634 C43.7714946,26.8172543 43.0131709,27.1712846 42.2279712,27.2759545 L42.2706945,26.9921602 C41.7127528,31.0363516 39.8673843,34.7996291 36.919308,37.7477055 C35.022894,39.6441195 32.7849749,41.0899019 30.3333092,42.0288766 C29.8691323,42.2066538 29.3487257,41.974481 29.1709484,41.5103041 C28.9931712,41.0461272 29.225344,40.5257206 29.6895209,40.3479433 C31.9063242,39.4989196 33.9296676,38.1917615 35.6465158,36.4749133 C38.2337554,33.8876736 39.880708,30.6105851 40.438448,27.0783543 C39.9444981,26.897345 39.4827873,26.6090992 39.0875515,26.2138634 C37.6274946,24.7538064 37.6274946,22.3865864 39.0875515,20.9265294 Z M25.1257954,24.6488841 C27.6421723,25.9831175 29.25,28.5995397 29.25,31.5 C29.25,31.9142136 28.9142136,32.25 28.5,32.25 C28.0857864,32.25 27.75,31.9142136 27.75,31.5 C27.75,29.1603186 26.4536333,27.0507377 24.4231273,25.9741228 C24.0571728,25.7800863 23.9178056,25.3261239 24.111842,24.9601694 C24.3058784,24.5942148 24.7598408,24.4548476 25.1257954,24.6488841 Z M21.75,15.25 C24.5114237,15.25 26.75,17.4885763 26.75,20.25 C26.75,23.0114237 24.5114237,25.25 21.75,25.25 C21.6870425,25.25 21.6243567,25.2488364 21.5619631,25.2465296 L21.5,25.25 C18.0482203,25.25 15.25,28.0482203 15.25,31.5 C15.25,31.9142136 14.9142136,32.25 14.5,32.25 C14.0857864,32.25 13.75,31.9142136 13.75,31.5 C13.75,28.1871441 15.8286395,25.3597805 18.7528315,24.250996 C17.5367705,23.3404092 16.75,21.8870847 16.75,20.25 C16.75,17.4885763 18.9885763,15.25 21.75,15.25 Z M27.2298288,23.3001354 L27.2586957,23.2896633 C27.2781816,23.2830459 27.2980273,23.2772079 27.318196,23.2721862 C27.3331955,23.2684495 27.3484695,23.2651466 27.3639087,23.2623166 C27.3781133,23.2597116 27.3925197,23.2574992 27.4070548,23.2557026 C27.4141038,23.2548338 27.4209234,23.2540875 27.42777,23.2534333 L27.5,23.25 C28.7286384,23.25 29.75,22.1435249 29.75,20.75 C29.75,19.3564751 28.7286384,18.25 27.5,18.25 C27.0857864,18.25 26.75,17.9142136 26.75,17.5 C26.75,17.0857864 27.0857864,16.75 27.5,16.75 C29.5850701,16.75 31.25,18.5536741 31.25,20.75 C31.25,21.9627232 30.7423952,23.0557344 29.936737,23.7914982 C31.8941278,24.7073764 33.25,26.6953477 33.25,29 C33.25,29.4142136 32.9142136,29.75 32.5,29.75 C32.0857864,29.75 31.75,29.4142136 31.75,29 C31.75,26.6527898 29.8472102,24.75 27.5,24.75 C27.0857864,24.75 26.75,24.4142136 26.75,24 L26.7568466,23.8982294 L26.75,24 C26.75,23.9422316 26.7565312,23.8859887 26.7688956,23.8319693 C26.7863572,23.7556745 26.8154604,23.6838053 26.8542349,23.6183405 C26.8639063,23.6020128 26.8741664,23.5861021 26.8849963,23.5706192 C26.8933308,23.5586986 26.9021018,23.5469062 26.9112037,23.5353873 C26.9184197,23.5262542 26.9258655,23.5172679 26.9335132,23.5084616 C26.9685785,23.4680536 27.0081264,23.4312584 27.051263,23.3989984 C27.0601981,23.3923065 27.0697163,23.3855177 27.0793963,23.3789492 C27.0963419,23.3674613 27.1134919,23.356813 27.1310842,23.346855 C27.1466532,23.3380422 27.1625688,23.3297699 27.1788052,23.3220637 C27.1882366,23.317582 27.1980963,23.3131556 27.2080662,23.3089387 L27.2298288,23.3001354 Z M18.3941517,7.15407836 C18.5603425,7.62252851 18.315313,8.13700669 17.8468628,8.30319755 C15.4763316,9.14418479 13.3132057,10.5029459 11.4938771,12.3222746 C9.17445837,14.6416932 7.6957906,17.4093169 7.01726997,20.5739626 C7.61838303,20.7399075 8.18578362,21.0594718 8.65820869,21.5318969 C10.1182656,22.9919538 10.1182656,25.3591738 8.65820869,26.8192308 C7.19815174,28.2792877 4.83093171,28.2792877 3.37087476,26.8192308 C1.91081781,25.3591738 1.91081781,22.9919538 3.37087476,21.5318969 C3.88983399,21.0129376 4.52340052,20.678436 5.19010285,20.5283921 C5.90447812,16.8936131 7.57039325,13.7001739 10.2210848,11.0494823 C12.2307807,9.03978647 14.6234384,7.53684568 17.2450325,6.6067895 C17.7134827,6.44059864 18.2279608,6.68562822 18.3941517,7.15407836 Z M6.17809766,22.2437233 L6.13959518,22.256032 C6.03377574,22.278632 5.9220665,22.282394 5.80881752,22.2641739 L5.76290664,22.2531566 C5.35362088,22.3064308 4.95808105,22.490275 4.64366697,22.8046891 C3.88655374,23.5618023 3.88655374,24.7893254 4.64366697,25.5464386 C5.40078019,26.3035518 6.62830326,26.3035518 7.38541649,25.5464386 C8.14252971,24.7893254 8.14252971,23.5618023 7.38541649,22.8046891 C7.04849599,22.4677686 6.61841976,22.28078 6.17809766,22.2437233 Z M43.1020933,22.1993217 C42.34498,21.4422084 41.117457,21.4422084 40.3603437,22.1993217 C39.6032305,22.9564349 39.6032305,24.1839579 40.3603437,24.9410712 C41.117457,25.6981844 42.34498,25.6981844 43.1020933,24.9410712 C43.8592065,24.1839579 43.8592065,22.9564349 43.1020933,22.1993217 Z M21.75,16.75 C19.8170034,16.75 18.25,18.3170034 18.25,20.25 C18.25,22.1829966 19.8170034,23.75 21.75,23.75 C23.6829966,23.75 25.25,22.1829966 25.25,20.25 C25.25,18.3170034 23.6829966,16.75 21.75,16.75 Z M21.5318969,3.37087476 C22.9919538,1.91081781 25.3591738,1.91081781 26.8192308,3.37087476 C27.5520563,4.10370028 27.9170652,5.06505776 27.9142574,6.02553964 C31.2947036,6.81961554 34.4044873,8.53466163 36.919308,11.0494823 C38.7028817,12.8330561 40.0883898,14.9191574 41.0286218,17.2028947 C41.2178534,17.662521 40.9986552,18.1885242 40.539029,18.3777559 C40.0794027,18.5669875 39.5533994,18.3477893 39.3641677,17.888163 C38.514025,15.8232443 37.2612801,13.9370388 35.6465158,12.3222746 C33.3640999,10.0398587 30.543686,8.48712602 27.4756515,7.77007724 C27.3068809,8.09049403 27.087747,8.38969247 26.8192308,8.65820869 C25.3591738,10.1182656 22.9919538,10.1182656 21.5318969,8.65820869 C20.0718399,7.19815174 20.0718399,4.83093171 21.5318969,3.37087476 Z M25.5464386,4.64366697 C24.7893254,3.88655374 23.5618023,3.88655374 22.8046891,4.64366697 C22.0475758,5.40078019 22.0475758,6.62830326 22.8046891,7.38541649 C23.5618023,8.14252971 24.7893254,8.14252971 25.5464386,7.38541649 C26.3035518,6.62830326 26.3035518,5.40078019 25.5464386,4.64366697 Z" id="形状结合" fill="#000000" fill-rule="nonzero"></path>
        </g>
    </g>
</svg>