<!-- Generated by IcoMoon.io -->
<svg version="1.1" xmlns="http://www.w3.org/2000/svg" width="32" height="32" viewBox="0 0 32 32">
<path d="M5.095 20.383c0.566 1.463 1.433 2.799 2.567 3.933 1.61 1.61 3.517 2.669 5.589 3.116 0.078-0.503 0.311-0.987 0.699-1.375 0.973-0.973 2.552-0.973 3.525 0s0.973 2.552 0 3.525c-0.973 0.973-2.552 0.973-3.525 0-0.265-0.265-0.457-0.574-0.578-0.903l0.203 0.036c-2.524-0.416-4.844-1.633-6.762-3.551-1.253-1.253-2.211-2.73-2.838-4.349-0.12-0.309 0.034-0.657 0.343-0.776s0.657 0.034 0.776 0.343zM16.627 26.907c-0.505-0.505-1.323-0.505-1.828 0s-0.505 1.323 0 1.828c0.505 0.505 1.323 0.505 1.828 0s0.505-1.323 0-1.828zM26.058 13.951c0.973-0.973 2.552-0.973 3.525 0s0.973 2.552 0 3.525c-0.402 0.402-0.908 0.638-1.431 0.708l0.028-0.189c-0.372 2.696-1.602 5.205-3.568 7.17-1.264 1.264-2.756 2.228-4.391 2.854-0.309 0.119-0.656-0.036-0.775-0.346s0.036-0.656 0.346-0.775c1.478-0.566 2.827-1.437 3.971-2.582 1.725-1.725 2.823-3.91 3.195-6.264-0.329-0.121-0.637-0.313-0.901-0.576-0.973-0.973-0.973-2.552 0-3.525zM16.751 16.433c1.678 0.89 2.749 2.634 2.749 4.567 0 0.276-0.224 0.5-0.5 0.5s-0.5-0.224-0.5-0.5c0-1.56-0.864-2.966-2.218-3.684-0.244-0.129-0.337-0.432-0.208-0.676s0.432-0.337 0.676-0.208zM14.5 10.167c1.841 0 3.333 1.492 3.333 3.333s-1.492 3.333-3.333 3.333c-0.042 0-0.084-0.001-0.125-0.002l-0.041 0.002c-2.301 0-4.167 1.865-4.167 4.167 0 0.276-0.224 0.5-0.5 0.5s-0.5-0.224-0.5-0.5c0-2.209 1.386-4.093 3.335-4.833-0.811-0.607-1.335-1.576-1.335-2.667 0-1.841 1.492-3.333 3.333-3.333zM18.153 15.533l0.019-0.007c0.013-0.004 0.026-0.008 0.040-0.012 0.010-0.002 0.020-0.005 0.030-0.007s0.019-0.003 0.029-0.004c0.005-0.001 0.009-0.001 0.014-0.002l0.048-0.002c0.819 0 1.5-0.738 1.5-1.667s-0.681-1.667-1.5-1.667c-0.276 0-0.5-0.224-0.5-0.5s0.224-0.5 0.5-0.5c1.39 0 2.5 1.202 2.5 2.667 0 0.808-0.338 1.537-0.875 2.028 1.305 0.611 2.209 1.936 2.209 3.472 0 0.276-0.224 0.5-0.5 0.5s-0.5-0.224-0.5-0.5c0-1.565-1.269-2.833-2.833-2.833-0.276 0-0.5-0.224-0.5-0.5v0c0-0.039 0.004-0.076 0.013-0.112 0.012-0.051 0.031-0.099 0.057-0.142 0.006-0.011 0.013-0.021 0.020-0.032 0.006-0.008 0.011-0.016 0.017-0.024 0.005-0.006 0.010-0.012 0.015-0.018 0.023-0.027 0.050-0.051 0.078-0.073 0.006-0.004 0.012-0.009 0.019-0.013 0.011-0.008 0.023-0.015 0.034-0.021 0.010-0.006 0.021-0.011 0.032-0.017 0.006-0.003 0.013-0.006 0.020-0.009l0.015-0.006zM12.263 4.769c0.111 0.312-0.053 0.655-0.365 0.766-1.58 0.561-3.022 1.466-4.235 2.679-1.546 1.546-2.532 3.391-2.984 5.501 0.401 0.111 0.779 0.324 1.094 0.639 0.973 0.973 0.973 2.552 0 3.525s-2.552 0.973-3.525 0c-0.973-0.973-0.973-2.552 0-3.525 0.346-0.346 0.768-0.569 1.213-0.669 0.476-2.423 1.587-4.552 3.354-6.319 1.34-1.34 2.935-2.342 4.683-2.962 0.312-0.111 0.655 0.053 0.766 0.365zM4.119 14.829l-0.026 0.008c-0.071 0.015-0.145 0.018-0.221 0.005l-0.031-0.007c-0.273 0.036-0.537 0.158-0.746 0.368-0.505 0.505-0.505 1.323 0 1.828s1.323 0.505 1.828 0c0.505-0.505 0.505-1.323 0-1.828-0.225-0.225-0.511-0.349-0.805-0.374zM28.735 14.8c-0.505-0.505-1.323-0.505-1.828 0s-0.505 1.323 0 1.828c0.505 0.505 1.323 0.505 1.828 0s0.505-1.323 0-1.828zM14.5 11.167c-1.289 0-2.333 1.045-2.333 2.333s1.045 2.333 2.333 2.333c1.289 0 2.333-1.045 2.333-2.333s-1.045-2.333-2.333-2.333zM14.355 2.247c0.973-0.973 2.552-0.973 3.525 0 0.489 0.489 0.732 1.129 0.73 1.77 2.254 0.529 4.327 1.673 6.003 3.349 1.189 1.189 2.113 2.58 2.74 4.102 0.126 0.306-0.020 0.657-0.326 0.783s-0.657-0.020-0.783-0.326c-0.567-1.377-1.402-2.634-2.478-3.711-1.522-1.522-3.402-2.557-5.447-3.035-0.113 0.214-0.259 0.413-0.438 0.592-0.973 0.973-2.552 0.973-3.525 0s-0.973-2.552 0-3.525zM17.031 3.096c-0.505-0.505-1.323-0.505-1.828 0s-0.505 1.323 0 1.828c0.505 0.505 1.323 0.505 1.828 0s0.505-1.323 0-1.828z"></path>
</svg>
