<?xml version="1.0" encoding="UTF-8"?>
<svg width="48px" height="48px" viewBox="0 0 48 48" version="1.1" xmlns="http://www.w3.org/2000/svg" xmlns:xlink="http://www.w3.org/1999/xlink">
    <title>进行SIG交流</title>
    <g id="进行SIG交流" stroke="none" stroke-width="1" fill="none" fill-rule="evenodd">
        <g id="编组">
            <rect id="矩形" x="0" y="0" width="48" height="48"></rect>
            <path d="M24,4.1 C27.1,4.1 30.100493,4.8100672 32.8192235,6.15624948 C33.2646648,6.37681018 33.4469665,6.91671145 33.2264058,7.36215271 C33.0058451,7.80759397 32.4659438,7.98989568 32.0205026,7.76933497 C29.5487157,6.5454271 26.8213621,5.9 24,5.9 C14.003646,5.9 5.9,14.003646 5.9,24 C5.9,33.996354 14.003646,42.1 24,42.1 C33.996354,42.1 42.1,33.996354 42.1,24 C42.1,19.7466033 40.629309,15.7214896 37.9824236,12.5055879 C37.6665483,12.1218071 37.7215966,11.5546237 38.1053775,11.2387484 C38.4891583,10.9228731 39.0563417,10.9779214 39.372217,11.3617023 C42.2819256,14.8969279 43.9,19.325413 43.9,24 C43.9,34.9904665 34.9904665,43.9 24,43.9 C13.0095335,43.9 4.1,34.9904665 4.1,24 C4.1,13.0095335 13.0095335,4.1 24,4.1 Z" id="路径" fill="#000000" fill-rule="nonzero"></path>
            <path d="M13.5916039,15.2958849 L13.6479092,15.3480865 L21.352,23.2495 L35.2295,23.2495 L32.7864417,20.4266323 C32.5323218,20.1330006 32.5464681,19.6983607 32.8073038,19.4218303 L32.8627537,19.3687209 C33.1563855,19.1146011 33.5910253,19.1287474 33.8675558,19.3895831 L33.9206651,19.445033 L37.4379472,23.5092004 C37.5723221,23.6644686 37.6284942,23.8472412 37.6217494,24.024074 C37.6284915,24.2006615 37.5723194,24.3834341 37.4379445,24.5387024 L33.9206624,28.6028697 L33.8675531,28.6583197 C33.5910226,28.9191553 33.1563828,28.9333016 32.862751,28.6791818 L32.8073011,28.6260725 C32.5464654,28.349542 32.5323191,27.9149021 32.786439,27.6212704 L35.2295,24.7981405 L21.352,24.7981405 L13.6479065,32.6998162 L13.5916012,32.7520178 C13.3000838,32.9959891 12.8653703,32.9843258 12.5873312,32.713234 C12.2907562,32.4240694 12.2847489,31.9492336 12.5739135,31.6526587 L20.0119096,24.0236649 L12.5739162,16.3952441 C12.2847516,16.0986691 12.2907589,15.6238333 12.5873339,15.3346688 C12.865373,15.063577 13.3000865,15.0519136 13.5916039,15.2958849 Z" id="形状结合" fill="#000000" fill-rule="nonzero"></path>
        </g>
    </g>
</svg>