<!-- Generated by IcoMoon.io -->
<svg version="1.1" xmlns="http://www.w3.org/2000/svg" width="32" height="32" viewBox="0 0 32 32">
    <path fill="currentColor"
        d="M16 2.733c2.067 0 4.067 0.473 5.879 1.371 0.297 0.147 0.419 0.507 0.271 0.804s-0.507 0.418-0.804 0.271c-1.648-0.816-3.466-1.246-5.347-1.246-6.664 0-12.067 5.402-12.067 12.067s5.402 12.067 12.067 12.067c6.664 0 12.067-5.402 12.067-12.067 0-2.836-0.98-5.519-2.745-7.663-0.211-0.256-0.174-0.634 0.082-0.845s0.634-0.174 0.845 0.082c1.94 2.357 3.019 5.309 3.019 8.426 0 7.327-5.94 13.267-13.267 13.267s-13.267-5.94-13.267-13.267c0-7.327 5.94-13.267 13.267-13.267z">
    </path>
    <path fill="currentColor"
        d="M9.061 10.197l0.038 0.035 5.136 5.268h9.252l-1.629-1.882c-0.169-0.196-0.16-0.486 0.014-0.67l0.037-0.035c0.196-0.169 0.485-0.16 0.67 0.014l0.035 0.037 2.345 2.709c0.090 0.104 0.127 0.225 0.123 0.343 0.005 0.118-0.033 0.24-0.123 0.343l-2.345 2.709-0.035 0.037c-0.184 0.174-0.474 0.183-0.67 0.014l-0.037-0.035c-0.174-0.184-0.183-0.474-0.014-0.67l1.629-1.882h-9.252l-5.174 5.303c-0.194 0.163-0.484 0.155-0.669-0.026-0.198-0.193-0.202-0.509-0.009-0.707l4.959-5.086-4.959-5.086c-0.193-0.198-0.189-0.514 0.009-0.707 0.185-0.181 0.475-0.188 0.669-0.026z">
    </path>
</svg>