<!-- Generated by IcoMoon.io -->
<svg version="1.1" xmlns="http://www.w3.org/2000/svg" width="32" height="32" viewBox="0 0 32 32">
<path fill="currentColor" d="M5.226 22.448c0 0.331-0.269 0.6-0.6 0.6s-0.6-0.269-0.6-0.6c0-2.522 1.573-4.676 3.792-5.535-0.689-0.598-1.125-1.48-1.125-2.465 0-1.804 1.463-3.267 3.267-3.267s3.267 1.463 3.267 3.267c0 0.985-0.436 1.868-1.125 2.466 0.862 0.332 1.64 0.866 2.268 1.564 0.222 0.246 0.202 0.626-0.044 0.847s-0.626 0.202-0.847-0.044c-0.893-0.991-2.158-1.567-3.518-1.567-2.614 0-4.733 2.119-4.733 4.733zM9.959 12.381c-1.141 0-2.067 0.925-2.067 2.067s0.925 2.067 2.067 2.067c1.141 0 2.067-0.925 2.067-2.067s-0.925-2.067-2.067-2.067zM9.677 3.778c0.331 0 0.6 0.269 0.6 0.6s-0.269 0.6-0.6 0.6h-3.733c-0.552 0-1 0.448-1 1v3.733c0 0.331-0.269 0.6-0.6 0.6s-0.6-0.269-0.6-0.6v-3.733c0-1.215 0.985-2.2 2.2-2.2h3.733zM22.382 27.934c-0.331 0-0.6-0.269-0.6-0.6s0.269-0.6 0.6-0.6h3.733c0.552 0 1-0.448 1-1v-3.733c0-0.331 0.269-0.6 0.6-0.6s0.6 0.269 0.6 0.6v3.733c0 1.215-0.985 2.2-2.2 2.2h-3.733z"></path>
<path fill="currentColor" d="M20.933 7.338c2.541 0 4.6 2.060 4.6 4.6 0 1.553-0.77 2.926-1.948 3.759 0.842 0.232 1.649 0.575 2.403 1.021 0.285 0.169 0.379 0.537 0.211 0.822s-0.537 0.379-0.822 0.211c-1.329-0.787-2.845-1.21-4.425-1.213l-0.018-0c-0.007 0-0.013 0-0.020-0l0.020 0c-4.823 0-8.733 3.91-8.733 8.733 0 0.331-0.269 0.6-0.6 0.6s-0.6-0.269-0.6-0.6c0-4.568 3.083-8.415 7.281-9.575-1.179-0.832-1.948-2.205-1.948-3.758 0-2.54 2.059-4.6 4.6-4.6zM20.95 15.338c1.87-0.009 3.383-1.528 3.383-3.4 0-1.878-1.522-3.4-3.4-3.4s-3.4 1.522-3.4 3.4c0 1.878 1.522 3.4 3.4 3.4l-0.018 0z"></path>
</svg>
