<!-- Generated by IcoMoon.io -->
<svg version="1.1" xmlns="http://www.w3.org/2000/svg" width="32" height="32" viewBox="0 0 32 32">
<path fill="currentColor" d="M16.333 2.5c-1.381 0-2.5 1.119-2.5 2.5s1.119 2.5 2.5 2.5c1.381 0 2.5-1.119 2.5-2.5s-1.119-2.5-2.5-2.5zM16.333 3.5c0.828 0 1.5 0.672 1.5 1.5s-0.672 1.5-1.5 1.5c-0.828 0-1.5-0.672-1.5-1.5s0.672-1.5 1.5-1.5zM16 10.167c-3.59 0-6.5 2.91-6.5 6.5s2.91 6.5 6.5 6.5c3.59 0 6.5-2.91 6.5-6.5s-2.91-6.5-6.5-6.5zM16 11.167c3.038 0 5.5 2.462 5.5 5.5s-2.462 5.5-5.5 5.5c-3.038 0-5.5-2.462-5.5-5.5s2.462-5.5 5.5-5.5zM26.667 20.302c-1.381 0-2.5 1.119-2.5 2.5s1.119 2.5 2.5 2.5c1.381 0 2.5-1.119 2.5-2.5s-1.119-2.5-2.5-2.5zM26.667 21.302c0.828 0 1.5 0.672 1.5 1.5s-0.672 1.5-1.5 1.5c-0.828 0-1.5-0.672-1.5-1.5s0.672-1.5 1.5-1.5zM5.333 20.302c-1.381 0-2.5 1.119-2.5 2.5s1.119 2.5 2.5 2.5c1.381 0 2.5-1.119 2.5-2.5s-1.119-2.5-2.5-2.5zM5.333 21.302c0.828 0 1.5 0.672 1.5 1.5s-0.672 1.5-1.5 1.5c-0.828 0-1.5-0.672-1.5-1.5s0.672-1.5 1.5-1.5z"></path>
<path fill="currentColor" d="M24.841 25.616c0.216 0.251 0.189 0.63-0.062 0.846-2.331 2.012-5.302 3.137-8.445 3.137-2.956 0-5.762-0.996-8.031-2.795-0.138-0.11-0.274-0.222-0.408-0.337-0.251-0.216-0.279-0.595-0.063-0.846s0.595-0.279 0.846-0.063c0.121 0.105 0.245 0.207 0.37 0.306 2.058 1.632 4.602 2.535 7.285 2.535 2.853 0 5.546-1.021 7.661-2.846 0.251-0.216 0.63-0.189 0.846 0.062zM12.896 4.803c0.108 0.313-0.059 0.655-0.373 0.762-4.702 1.613-7.923 6.050-7.923 11.101 0 0.871 0.095 1.729 0.281 2.564 0.072 0.323-0.132 0.644-0.455 0.716s-0.644-0.132-0.716-0.455c-0.205-0.92-0.31-1.866-0.31-2.825 0-5.568 3.551-10.458 8.734-12.236 0.313-0.108 0.655 0.059 0.762 0.373zM20.564 4.441c5.167 1.788 8.703 6.669 8.703 12.225 0 0.956-0.104 1.898-0.308 2.816-0.072 0.323-0.392 0.527-0.716 0.456s-0.527-0.392-0.456-0.716c0.185-0.832 0.279-1.688 0.279-2.556 0-5.041-3.208-9.47-7.895-11.091-0.313-0.108-0.479-0.45-0.371-0.763s0.45-0.479 0.763-0.371z"></path>
</svg>
