<?xml version="1.0" encoding="UTF-8"?>
<svg width="48px" height="48px" viewBox="0 0 48 48" version="1.1" xmlns="http://www.w3.org/2000/svg" xmlns:xlink="http://www.w3.org/1999/xlink">
    <title>进行SIG交流</title>
    <g id="进行SIG交流" stroke="none" stroke-width="1" fill="none" fill-rule="evenodd">
        <g id="icon会议指南备份">
            <rect id="矩形备份-12" fill-opacity="0" fill="#D8D8D8" fill-rule="nonzero" x="0" y="0" width="48" height="48"></rect>
            <g id="编组-86" transform="translate(4.510650, 4.500000)" fill="#009CE5">
                <g id="编组" opacity="0.2">
                    <path d="M35.44605,0 C37.0776,0 38.4,1.3224 38.4,2.9538 L38.4,35.44635 C38.4,37.07745 37.0776,38.40015 35.44605,38.40015 L2.9538,38.40015 C1.3224,38.40015 0,37.07745 0,35.44635 L0,2.9538 C0,1.3224 1.3224,0 2.9538,0 Z M19.9650779,18.1837838 C19.7705014,17.7891873 19.2081986,17.7891873 19.013043,18.1837838 L17.6174201,21.0124971 L14.4955101,21.4662194 C14.0600294,21.5293988 13.8863004,22.064542 14.201329,22.371579 L16.4598059,24.5734782 L15.927037,27.682706 C15.8523335,28.1163336 16.3075035,28.4470557 16.6972355,28.2422871 L19.4890605,26.774335 L22.2814645,28.2422871 C22.6706174,28.4470557 23.1257874,28.1163336 23.051663,27.682706 L22.518315,24.5734782 L24.777371,22.371579 C25.0923996,22.064542 24.9186706,21.5293988 24.4831899,21.4662194 L21.3612799,21.0124971 Z" id="形状结合"></path>
                </g>
                <path d="M32.48935,15.5 L32.48935,28.1750339 C32.48935,30.4743713 30.6815209,32.3608288 28.4102221,32.4926429 L28.1560167,32.5 L10.8226833,32.5 C8.51889762,32.5 6.62879047,30.6956616 6.49672133,28.4287485 L6.48935,28.1750339 L6.48935,15.5 L32.48935,15.5 Z M19.9650779,18.1837838 C19.7705014,17.7891873 19.2081986,17.7891873 19.013043,18.1837838 L17.6174201,21.0124971 L14.4955101,21.4662194 C14.0600294,21.5293988 13.8863004,22.064542 14.201329,22.371579 L16.4598059,24.5734782 L15.927037,27.682706 C15.8523335,28.1163336 16.3075035,28.4470557 16.6972355,28.2422871 L19.4890605,26.774335 L22.2814645,28.2422871 C22.6706174,28.4470557 23.1257874,28.1163336 23.051663,27.682706 L22.518315,24.5734782 L24.777371,22.371579 C25.0923996,22.064542 24.9186706,21.5293988 24.4831899,21.4662194 L21.3612799,21.0124971 Z M24.5449056,5.5 C25.1429056,5.5 25.6282389,5.98872727 25.6282389,6.59090909 L25.6282389,7.98436364 L28.1560167,7.98436364 C29.1362167,7.98436364 30.0321767,8.32485818 30.7575507,8.88178473 L30.9929056,9.07527273 L31.1330167,9.07527273 L31.1330167,9.19163636 C31.90955,9.9342303 32.4180715,10.9581139 32.4824231,12.1012712 L32.48935,12.348 L32.48935,13.5 L6.48935,13.5 L6.48935,12.348 C6.48935,11.1886303 6.94610259,10.1369616 7.68344975,9.35501005 L7.84568333,9.19163636 L7.84568333,9.07527273 L7.98579444,9.07527273 C8.68979444,8.45630769 9.58333291,8.05051533 10.5732501,7.99174825 L10.8226833,7.98436364 L13.3504611,7.98436364 L13.3504611,6.59090909 C13.3504611,5.98872727 13.8357944,5.5 14.4337944,5.5 C15.0317944,5.5 15.5171278,5.98872727 15.5171278,6.59090909 L15.5171278,7.98436364 L23.4615722,7.98436364 L23.4615722,6.59090909 C23.4615722,5.98872727 23.9469056,5.5 24.5449056,5.5 Z" id="形状结合" fill-rule="nonzero"></path>
            </g>
        </g>
    </g>
</svg>