<?xml version="1.0" encoding="UTF-8"?>
<svg width="48px" height="48px" viewBox="0 0 48 48" version="1.1" xmlns="http://www.w3.org/2000/svg" xmlns:xlink="http://www.w3.org/1999/xlink">
    <title>进行SIG交流</title>
    <g id="进行SIG交流" stroke="none" stroke-width="1" fill="none" fill-rule="evenodd">
        <g id="icon申请流程备份">
            <rect id="矩形备份-12" fill-opacity="0" fill="#D8D8D8" fill-rule="nonzero" x="0" y="0" width="48" height="48"></rect>
            <g id="编组-86" transform="translate(4.510650, 4.500000)" fill="#1F3FB3">
                <g id="编组" opacity="0.2">
                    <path d="M35.44605,0 C37.0776,0 38.4,1.3224 38.4,2.9538 L38.4,35.44635 C38.4,37.07745 37.0776,38.40015 35.44605,38.40015 L2.9538,38.40015 C1.3224,38.40015 0,37.07745 0,35.44635 L0,2.9538 C0,1.3224 1.3224,0 2.9538,0 Z M18.29985,26.7 L12.6,26.7 C12.1029,26.7 11.7,27.1032 11.7,27.60015 C11.7,28.0971 12.1029,28.5 12.6,28.5 L18.29985,28.5 C18.7971,28.5 19.2,28.0971 19.2,27.60015 C19.2,27.1032 18.7971,26.7 18.29985,26.7 Z M24.29985,22.2 L12.6,22.2 C12.1029,22.2 11.7,22.6032 11.7,23.10015 C11.7,23.5971 12.1029,24 12.6,24 L24.29985,24 C24.7971,24 25.2,23.5971 25.2,23.10015 C25.2,22.6032 24.7971,22.2 24.29985,22.2 Z M20.427624,10.1584921 C20.1355832,9.86645134 19.6192959,9.90924711 19.2744639,10.2540791 L13.6590994,15.8694437 C13.4929597,16.0355834 13.3897488,16.2509501 13.3723108,16.4678759 L13.1866078,18.7779864 C13.1505432,19.2266234 13.4839001,19.5599804 13.9325371,19.5239157 L16.2426476,19.3382128 C16.4595735,19.3207747 16.6749402,19.2175639 16.8410799,19.0514242 L22.4564444,13.4360596 C22.8012764,13.0912276 22.8440722,12.5749403 22.5520315,12.2828996 Z" id="形状结合"></path>
                </g>
                <path d="M28.19985,5.7 C29.85675,5.7 31.19985,7.0434 31.19985,8.7 L31.19985,29.7 C31.19985,31.35675 29.85675,32.7 28.19985,32.7 L10.19985,32.7 C8.54295,32.7 7.19985,31.35675 7.19985,29.7 L7.19985,8.7 C7.19985,7.0434 8.54295,5.7 10.19985,5.7 L28.19985,5.7 Z M18.29985,26.7 L12.59985,26.7 C12.1029,26.7 11.69985,27.1032 11.69985,27.60015 C11.69985,28.0971 12.1029,28.5003 12.59985,28.5003 L18.29985,28.5003 C18.7968,28.5003 19.19985,28.0971 19.19985,27.60015 C19.19985,27.1032 18.7968,26.7 18.29985,26.7 Z M24.29985,22.2 L12.59985,22.2 C12.1029,22.2 11.69985,22.6032 11.69985,23.10015 C11.69985,23.5971 12.1029,24.0003 12.59985,24.0003 L24.29985,24.0003 C24.7968,24.0003 25.19985,23.5971 25.19985,23.10015 C25.19985,22.6032 24.7968,22.2 24.29985,22.2 Z M20.427624,10.1584921 C20.1355832,9.86645134 19.6192959,9.90924711 19.2744639,10.2540791 L13.6590994,15.8694437 C13.4929597,16.0355834 13.3897488,16.2509501 13.3723108,16.4678759 L13.1866078,18.7779864 C13.1505432,19.2266234 13.4839001,19.5599804 13.9325371,19.5239157 L16.2426476,19.3382128 C16.4595735,19.3207747 16.6749402,19.2175639 16.8410799,19.0514242 L22.4564444,13.4360596 C22.8012764,13.0912276 22.8440722,12.5749403 22.5520315,12.2828996 Z" id="形状结合"></path>
            </g>
        </g>
    </g>
</svg>