<?xml version="1.0" encoding="UTF-8"?>
<svg width="16px" height="16px" viewBox="0 0 16 16" version="1.1" xmlns="http://www.w3.org/2000/svg" xmlns:xlink="http://www.w3.org/1999/xlink">
    <title>画板备份</title>
    <g id="画板备份" stroke="none" stroke-width="1" fill="none" fill-rule="evenodd">
        <g id="编组">
            <rect id="矩形" x="0" y="0" width="16" height="16"></rect>
            <path d="M13.3333333,1.7 C13.8547929,1.7 14.2798155,2.11289564 14.299302,2.62958774 L14.3,2.66666667 L14.3,9.34129172 C14.3,9.50697715 14.1656854,9.64129172 14,9.64129172 C13.8425988,9.64129172 13.7135099,9.52007282 13.7009945,9.36589639 L13.7,9.34129172 L13.7,2.66666667 C13.7,2.4729668 13.5498024,2.31434746 13.3595192,2.30092064 L13.3333333,2.3 L2.66666667,2.3 C2.4729668,2.3 2.31434746,2.45019761 2.30092064,2.64048083 L2.3,2.66666667 L2.3,13.3333333 C2.3,13.5270332 2.45019761,13.6856525 2.64048083,13.6990794 L2.66666667,13.7 L13.3333333,13.7 C13.5270332,13.7 13.6856525,13.5498024 13.6990794,13.3595192 L13.7,13.3333333 L13.7,10.8125 C13.7,10.6468146 13.8343146,10.5125 14,10.5125 C14.1574012,10.5125 14.2864901,10.6337189 14.2990055,10.7878953 L14.3,10.8125 L14.3,13.3333333 C14.3,13.8547929 13.8871044,14.2798155 13.3704123,14.299302 L13.3333333,14.3 L2.66666667,14.3 C2.14520711,14.3 1.7201845,13.8871044 1.70069803,13.3704123 L1.7,13.3333333 L1.7,2.66666667 C1.7,2.14520711 2.11289564,1.7201845 2.62958774,1.70069803 L2.66666667,1.7 L13.3333333,1.7 Z" id="路径" fill="#70B31B" fill-rule="nonzero"></path>
            <path d="M10,6.76481624 C10.1299494,6.76481624 10.2367414,6.86396426 10.2488556,6.99073958 L10.25,7.01481624 L10.25,11.6666667 C10.25,12.1605799 9.85937,12.5632565 9.37020119,12.5826055 L9.33333333,12.5833333 L6.66666667,12.5833333 C6.17275348,12.5833333 5.77007681,12.1927033 5.75072787,11.7035345 L5.75,11.6666667 L5.75,11.0114554 C5.75,10.8733842 5.86192881,10.7614554 6,10.7614554 C6.12994935,10.7614554 6.23674145,10.8606034 6.24885557,10.9873787 L6.25,11.0114554 L6.25,11.6666667 C6.25,11.8875806 6.42192266,12.0683398 6.63927072,12.0824471 L6.66666667,12.0833333 L9.33333333,12.0833333 C9.55424723,12.0833333 9.73500645,11.9114107 9.74911372,11.6940626 L9.75,11.6666667 L9.75,7.01481624 C9.75,6.87674506 9.86192881,6.76481624 10,6.76481624 Z M5.00075838,5.75 C5.13882957,5.75 5.25075838,5.86192881 5.25075838,6 C5.25075838,6.12994935 5.15161037,6.23674145 5.02483505,6.24885557 L5.00075838,6.25 L4.33333333,6.25 C4.11241943,6.25 3.93166022,6.42192266 3.91755295,6.63927072 L3.91666667,9.33333333 C3.91666667,9.55424723 4.08858932,9.73500645 4.30593739,9.74911372 L4.33333333,9.75 L9.00526277,9.75 C9.14333396,9.75 9.25526277,9.86192881 9.25526277,10 C9.25526277,10.1299494 9.15611476,10.2367414 9.02933944,10.2488556 L9.00526277,10.25 L4.33333333,10.25 C3.83942014,10.25 3.43674348,9.85937 3.41739453,9.37020119 L3.41666667,6.66666667 C3.41666667,6.17275348 3.80729667,5.77007681 4.29646548,5.75072787 L4.33333333,5.75 L5.00075838,5.75 Z M11.6666667,5.75 C12.1605799,5.75 12.5632565,6.14063 12.5826055,6.62979881 L12.5833333,6.66666667 L12.5833333,9.33333333 C12.5833333,9.82724652 12.1927033,10.2299232 11.7035345,10.2492721 L11.6666667,10.25 L11.0214049,10.25 C10.8833337,10.25 10.7714049,10.1380712 10.7714049,10 C10.7714049,9.87005065 10.8705529,9.76325855 10.9973282,9.75114443 L11.0214049,9.75 L11.6666667,9.75 C11.8875806,9.75 12.0683398,9.57807734 12.0824471,9.36072928 L12.0833333,9.33333333 L12.0833333,6.66666667 C12.0833333,6.44575277 11.9114107,6.26499355 11.6940626,6.25088628 L11.6666667,6.25 L7.01807018,6.25 C6.87999899,6.25 6.76807018,6.13807119 6.76807018,6 C6.76807018,5.87005065 6.86721819,5.76325855 6.99399351,5.75114443 L7.01807018,5.75 L11.6666667,5.75 Z M9.33333333,3.41666667 C9.82724652,3.41666667 10.2299232,3.80729667 10.2492721,4.29646548 L10.25,4.33333333 L10.25,5.02505027 C10.25,5.16312146 10.1380712,5.27505027 10,5.27505027 C9.87005065,5.27505027 9.76325855,5.17590226 9.75114443,5.04912694 L9.75,5.02505027 L9.75,4.33333333 C9.75,4.11241943 9.57807734,3.93166022 9.36072928,3.91755295 L6.66666667,3.91666667 C6.44575277,3.91666667 6.26499355,4.08858932 6.25088628,4.30593739 L6.25,4.33333333 L6.25,9.01705544 C6.25,9.15512662 6.13807119,9.26705544 6,9.26705544 C5.87005065,9.26705544 5.76325855,9.16790742 5.75114443,9.0411321 L5.75,9.01705544 L5.75,4.33333333 C5.75,3.83942014 6.14063,3.43674348 6.62979881,3.41739453 L9.33333333,3.41666667 Z" id="形状结合" fill="#70B31B" fill-rule="nonzero"></path>
        </g>
    </g>
</svg>