<!-- Generated by IcoMoon.io -->
<svg version="1.1" xmlns="http://www.w3.org/2000/svg" width="32" height="32" viewBox="0 0 32 32">
<path fill="currentColor" d="M26.667 3.4c1.043 0 1.893 0.826 1.932 1.859l0.001 0.074v13.349c0 0.331-0.269 0.6-0.6 0.6-0.315 0-0.573-0.242-0.598-0.551l-0.002-0.049v-13.349c0-0.387-0.3-0.705-0.681-0.732l-0.052-0.002h-21.333c-0.387 0-0.705 0.3-0.732 0.681l-0.002 0.052v21.333c0 0.387 0.3 0.705 0.681 0.732l0.052 0.002h21.333c0.387 0 0.705-0.3 0.732-0.681l0.002-0.052v-5.042c0-0.331 0.269-0.6 0.6-0.6 0.315 0 0.573 0.242 0.598 0.551l0.002 0.049v5.042c0 1.043-0.826 1.893-1.859 1.932l-0.074 0.001h-21.333c-1.043 0-1.893-0.826-1.932-1.859l-0.001-0.074v-21.333c0-1.043 0.826-1.893 1.859-1.932l0.074-0.001h21.333z"></path>
<path fill="currentColor" d="M20 13.53c0.26 0 0.473 0.198 0.498 0.452l0.002 0.048v9.304c0 0.988-0.781 1.793-1.76 1.832l-0.074 0.001h-5.333c-0.988 0-1.793-0.781-1.832-1.76l-0.001-0.074v-1.31c0-0.276 0.224-0.5 0.5-0.5 0.26 0 0.473 0.198 0.498 0.452l0.002 0.048v1.31c0 0.442 0.344 0.803 0.779 0.832l0.055 0.002h5.333c0.442 0 0.803-0.344 0.832-0.779l0.002-0.055v-9.304c0-0.276 0.224-0.5 0.5-0.5zM10.002 11.5c0.276 0 0.5 0.224 0.5 0.5 0 0.26-0.198 0.473-0.452 0.498l-0.048 0.002h-1.335c-0.442 0-0.803 0.344-0.832 0.779l-0.002 5.388c0 0.442 0.344 0.803 0.779 0.832l0.055 0.002h9.344c0.276 0 0.5 0.224 0.5 0.5 0 0.26-0.198 0.473-0.452 0.498l-0.048 0.002h-9.344c-0.988 0-1.793-0.781-1.832-1.76l-0.001-5.407c0-0.988 0.781-1.793 1.76-1.832l0.074-0.001h1.335zM23.333 11.5c0.988 0 1.793 0.781 1.832 1.76l0.001 0.074v5.333c0 0.988-0.781 1.793-1.76 1.832l-0.074 0.001h-1.291c-0.276 0-0.5-0.224-0.5-0.5 0-0.26 0.198-0.473 0.452-0.498l0.048-0.002h1.291c0.442 0 0.803-0.344 0.832-0.779l0.002-0.055v-5.333c0-0.442-0.344-0.803-0.779-0.832l-0.055-0.002h-9.297c-0.276 0-0.5-0.224-0.5-0.5 0-0.26 0.198-0.473 0.452-0.498l0.048-0.002h9.297zM18.667 6.833c0.988 0 1.793 0.781 1.832 1.76l0.001 0.074v1.383c0 0.276-0.224 0.5-0.5 0.5-0.26 0-0.473-0.198-0.498-0.452l-0.002-0.048v-1.383c0-0.442-0.344-0.803-0.779-0.832l-5.388-0.002c-0.442 0-0.803 0.344-0.832 0.779l-0.002 0.055v9.367c0 0.276-0.224 0.5-0.5 0.5-0.26 0-0.473-0.198-0.498-0.452l-0.002-0.048v-9.367c0-0.988 0.781-1.793 1.76-1.832l5.407-0.001z"></path>
</svg>
