<?xml version="1.0" encoding="UTF-8"?>
<svg width="16px" height="16px" viewBox="0 0 16 16" version="1.1" xmlns="http://www.w3.org/2000/svg" xmlns:xlink="http://www.w3.org/1999/xlink">
    <title>画板备份</title>
    <g id="画板备份" stroke="none" stroke-width="1" fill="none" fill-rule="evenodd">
        <g id="编组">
            <rect id="矩形" x="0" y="0" width="16" height="16"></rect>
            <path d="M14.7564337,3.81184789 C14.9339871,4.5239755 14.5580151,5.2443495 13.9011909,5.51916584 L13.9001092,9.69139088 C13.9001092,10.1397798 13.669166,10.555289 13.2912606,10.7924441 L13.2502122,10.8171644 L10.6247897,12.3332731 C10.4813095,12.4161289 10.2978279,12.3669831 10.2149721,12.2235029 C10.136477,12.0875743 10.1764544,11.9157441 10.3028768,11.8275835 L10.3247422,11.8136853 L12.9501646,10.2975766 C13.1558867,10.1787779 13.2865618,9.96429601 13.299115,9.72874702 L13.3001092,9.69139088 L13.3001092,5.3426566 C13.3001092,5.29447257 13.3114687,5.24894171 13.3316558,5.20859596 C13.3600982,5.11205086 13.4381691,5.03372666 13.542999,5.00758963 C14.0074279,4.89179449 14.2900514,4.42142995 14.1742563,3.95700102 C14.0584612,3.4925721 13.5880966,3.20994857 13.1236677,3.3257437 C12.6732618,3.43804251 12.3938481,3.88382216 12.4830051,4.33425695 L13.1765015,3.91092508 C13.3177436,3.82430922 13.5024591,3.8685926 13.5890749,4.00983478 C13.6711321,4.14364317 13.6357062,4.31646909 13.5116559,4.40793748 L13.4901652,4.42240826 L9.84735247,6.65718914 C9.92454128,6.86802364 9.96666667,7.09575903 9.96666667,7.33333333 C9.96666667,8.17225308 9.44139271,8.88848853 8.70179384,9.17109063 L8.70286832,12.0456471 C9.27507972,12.357475 9.58810013,13.0263743 9.4231004,13.6881521 C9.2271394,14.4741088 8.43113787,14.9523947 7.64518122,14.7564337 C6.92120325,14.5759258 6.45828485,13.8862814 6.54293925,13.1643388 L2.59913643,11.0225502 C2.19418475,10.8027193 1.93692247,10.3856968 1.92022159,9.92757304 L1.91935585,9.88004071 L1.91935585,6.81945613 C1.91935585,6.6537707 2.05367043,6.51945613 2.21935585,6.51945613 C2.37675701,6.51945613 2.50584597,6.64067503 2.51836136,6.79485146 L2.51935585,6.81945613 L2.51935585,9.88004071 C2.51935585,10.1244825 2.64676247,10.3502553 2.85375219,10.476982 L2.88539155,10.4952381 L7.02082258,12.7401864 C7.14758408,12.8089998 7.20488964,12.9559275 7.16545403,13.0888819 C7.16521001,13.0921759 7.16467264,13.0958635 7.16406449,13.0995533 L7.15907704,13.1236677 C7.0432819,13.5880966 7.32590543,14.0584612 7.79033436,14.1742563 C8.25476329,14.2900514 8.72512783,14.0074279 8.84092296,13.542999 C8.90510415,13.2855823 8.84688727,13.0263421 8.70315628,12.8266637 L8.70239107,13.3333333 C8.70239107,13.4990188 8.47853345,13.6333333 8.20239107,13.6333333 C7.94005582,13.6333333 7.72490755,13.5121144 7.70404856,13.357938 L7.70239107,13.3333333 L7.70227189,9.27761009 C6.75739088,9.13411992 6.03333333,8.31828298 6.03333333,7.33333333 C6.03333333,7.0946454 6.07585458,6.86588884 6.15373531,6.6542254 L2.50999531,4.42250663 C2.3686988,4.33597943 2.3242995,4.15129182 2.4108267,4.00999531 C2.4973539,3.8686988 2.68204151,3.8242995 2.82333802,3.9108267 L6.44576076,6.12814462 C6.80555515,5.66481696 7.36795921,5.36666667 8,5.36666667 C8.63297232,5.36666667 9.19610249,5.66569646 9.55582875,6.1301943 L11.9754238,4.64641339 C11.9450022,4.61167578 11.9221725,4.56937255 11.9102329,4.52148545 C11.7142719,3.7355288 12.1925579,2.93952727 12.9785146,2.74356627 C13.7644712,2.54760527 14.5604727,3.02589124 14.7564337,3.81184789 Z M8,5.96666667 C7.24521084,5.96666667 6.63333333,6.57854418 6.63333333,7.33333333 C6.63333333,8.08812249 7.24521084,8.7 8,8.7 C8.75478916,8.7 9.36666667,8.08812249 9.36666667,7.33333333 C9.36666667,6.57854418 8.75478916,5.96666667 8,5.96666667 Z M8.54810067,1.4743636 L8.59270283,1.49687539 L8.63500442,1.52026897 L10.8323288,2.78916281 C10.975809,2.87201865 11.0249547,3.05550027 10.9420989,3.19898047 C10.8636039,3.33490909 10.6947965,3.38617189 10.5552479,3.32074163 L10.5322812,3.3087506 L8.33495688,2.03985677 C8.13576155,1.92482699 7.893621,1.91539215 7.68701261,2.01258616 L7.65093712,2.03084512 L4.02586825,3.99873965 L3.96163424,4.02459415 L3.93584913,4.0288289 C3.91532046,4.03849027 3.89336449,4.04595951 3.87021237,4.05088064 C3.70814757,4.08532858 3.54884252,3.98187467 3.51439459,3.81980987 C3.41487833,3.35162267 2.95466374,3.05275582 2.48647653,3.15227208 C2.01828933,3.25178834 1.71942248,3.71200293 1.81893875,4.18019013 C1.91845501,4.64837733 2.3786696,4.94724418 2.8468568,4.84772792 C3.0089216,4.81327998 3.16822665,4.91673389 3.20267459,5.07879869 C3.23712252,5.24086349 3.13366861,5.40016854 2.97160381,5.43461648 C2.17928701,5.60302862 1.40046232,5.09725395 1.23205019,4.30493715 C1.06363805,3.51262034 1.56941272,2.73379565 2.36172952,2.56538352 C3.02862458,2.4236306 3.68596098,2.75951419 3.97778596,3.34187587 L7.364682,1.50353307 C7.73325983,1.30344796 8.1737008,1.29433041 8.54810067,1.4743636 Z" id="形状结合" fill="#00A7B3" fill-rule="nonzero"></path>
        </g>
    </g>
</svg>