<!-- Generated by IcoMoon.io -->
<svg version="1.1" xmlns="http://www.w3.org/2000/svg" width="32" height="32" viewBox="0 0 32 32">
<path fill="currentColor" d="M29.513 7.624c0.355 1.424-0.397 2.865-1.71 3.415l-0.002 8.344c0 0.897-0.462 1.728-1.218 2.202l-0.082 0.049-5.251 3.032c-0.287 0.166-0.654 0.067-0.82-0.22-0.157-0.272-0.077-0.616 0.176-0.792l0.044-0.028 5.251-3.032c0.411-0.238 0.673-0.667 0.698-1.138l0.002-0.075v-8.697c0-0.096 0.023-0.187 0.063-0.268 0.057-0.193 0.213-0.35 0.423-0.402 0.929-0.232 1.494-1.172 1.262-2.101s-1.172-1.494-2.101-1.263c-0.901 0.225-1.46 1.116-1.281 2.017l1.387-0.847c0.282-0.173 0.652-0.085 0.825 0.198 0.164 0.268 0.093 0.613-0.155 0.796l-0.043 0.029-7.286 4.47c0.154 0.422 0.239 0.877 0.239 1.352 0 1.678-1.051 3.11-2.53 3.675l0.002 5.749c1.144 0.624 1.77 1.961 1.44 3.285-0.392 1.572-1.984 2.529-3.556 2.137-1.448-0.361-2.374-1.74-2.204-3.184l-7.888-4.284c-0.81-0.44-1.324-1.274-1.358-2.19l-0.002-0.095v-6.121c0-0.331 0.269-0.6 0.6-0.6 0.315 0 0.573 0.242 0.598 0.551l0.002 0.049v6.121c0 0.489 0.255 0.94 0.669 1.194l0.063 0.037 8.271 4.49c0.254 0.138 0.368 0.431 0.289 0.697-0.001 0.007-0.002 0.014-0.003 0.021l-0.010 0.048c-0.232 0.929 0.334 1.87 1.262 2.101s1.87-0.334 2.101-1.262c0.128-0.515 0.012-1.033-0.276-1.433l-0.002 1.013c0 0.331-0.448 0.6-1 0.6-0.525 0-0.955-0.242-0.997-0.551l-0.003-0.049-0-8.111c-1.89-0.287-3.338-1.919-3.338-3.889 0-0.477 0.085-0.935 0.241-1.358l-7.287-4.463c-0.283-0.173-0.371-0.542-0.198-0.825s0.542-0.371 0.825-0.198l7.245 4.435c0.72-0.927 1.844-1.523 3.108-1.523 1.266 0 2.392 0.598 3.112 1.527l4.839-2.968c-0.061-0.069-0.107-0.154-0.13-0.25-0.392-1.572 0.565-3.164 2.137-3.556s3.164 0.565 3.556 2.137zM16 11.933c-1.51 0-2.733 1.224-2.733 2.733s1.224 2.733 2.733 2.733c1.51 0 2.733-1.224 2.733-2.733s-1.224-2.733-2.733-2.733zM17.096 2.949l0.089 0.045 0.085 0.047 4.395 2.538c0.287 0.166 0.385 0.533 0.22 0.82-0.157 0.272-0.495 0.374-0.774 0.244l-0.046-0.024-4.395-2.538c-0.398-0.23-0.883-0.249-1.296-0.055l-0.072 0.037-7.25 3.936-0.128 0.052-0.052 0.008c-0.041 0.019-0.085 0.034-0.131 0.044-0.324 0.069-0.643-0.138-0.712-0.462-0.199-0.936-1.119-1.534-2.056-1.335s-1.534 1.119-1.335 2.056c0.199 0.936 1.119 1.534 2.056 1.335 0.324-0.069 0.643 0.138 0.712 0.462s-0.138 0.643-0.462 0.712c-1.585 0.337-3.142-0.675-3.479-2.259s0.675-3.142 2.259-3.479c1.334-0.284 2.648 0.388 3.232 1.553l6.774-3.677c0.737-0.4 1.618-0.418 2.367-0.058z"></path>
</svg>
