<?xml version="1.0" encoding="UTF-8"?>
<svg width="16px" height="16px" viewBox="0 0 16 16" version="1.1" xmlns="http://www.w3.org/2000/svg" xmlns:xlink="http://www.w3.org/1999/xlink">
    <title>画板备份</title>
    <g id="画板备份" stroke="none" stroke-width="1" fill="none" fill-rule="evenodd">
        <g id="编组">
            <rect id="矩形" x="0" y="0" width="16" height="16"></rect>
            <path d="M3.60963576,3.88334059 C3.68452255,4.02128994 3.6400323,4.19200728 3.51133117,4.27680681 L3.48910729,4.29012418 L2.83270236,4.64645828 C2.61787388,4.76307945 2.48023734,4.98276556 2.46761624,5.22513948 L2.46666667,10.7383443 C2.46666667,10.9827861 2.59407328,11.2085589 2.80106301,11.3352856 L2.83270236,11.3535417 L7.6660357,13.9773512 C7.8620706,14.0837702 8.09625513,14.0900301 8.29677823,13.9961311 L8.3339643,13.9773512 L9.42480616,13.3855952 C9.38701879,13.2637616 9.36666667,13.1342575 9.36666667,13 C9.36666667,12.2820298 9.94869649,11.7 10.6666667,11.7 C11.3846368,11.7 11.9666667,12.2820298 11.9666667,13 C11.9666667,13.7179702 11.3846368,14.3 10.6666667,14.3 C10.2989021,14.3 9.96680517,14.1472883 9.73032924,13.9018181 L8.62021942,14.5046633 C8.2482782,14.7065743 7.80238891,14.7143401 7.42475937,14.5279607 L7.37978058,14.5046633 L2.54644724,11.8808538 C2.14149556,11.6610229 1.88423328,11.2440004 1.86753241,10.7858766 L1.86666667,5.26165568 C1.86666667,4.80088296 2.11043056,4.3758291 2.50508633,4.14258437 L2.54644724,4.11914622 L3.20285217,3.76281212 C3.34846537,3.68376495 3.53058859,3.73772738 3.60963576,3.88334059 Z M10.6666667,12.3 C10.2800673,12.3 9.96666667,12.6134007 9.96666667,13 C9.96666667,13.3865993 10.2800673,13.7 10.6666667,13.7 C11.053266,13.7 11.3666667,13.3865993 11.3666667,13 C11.3666667,12.6134007 11.053266,12.3 10.6666667,12.3 Z M8.52960654,1.45060566 L8.57524063,1.47203928 L8.62021942,1.4953367 L13.4535528,4.11914622 C13.8585044,4.33897713 14.1157667,4.75599961 14.1324676,5.21412335 L14.1333333,5.26165568 L14.1333333,10.7383443 C14.1333333,11.199117 13.8895694,11.6241709 13.4949137,11.8574156 L13.4535528,11.8808538 L12.8154797,12.2272363 C12.6698665,12.3062834 12.4877433,12.252321 12.4086961,12.1067078 C12.3338094,11.9687585 12.3782996,11.7980411 12.5070007,11.7132416 L12.5292246,11.6999242 L13.1672976,11.3535417 C13.3821261,11.2369205 13.5197627,11.0172344 13.5323838,10.7748605 L13.5333333,10.7383443 L13.5333333,5.26165568 C13.5333333,5.01721392 13.4059267,4.79144112 13.198937,4.66471439 L13.1672976,4.64645828 L8.3339643,2.02264876 C8.1379294,1.91622981 7.90374487,1.90996987 7.70322177,2.00386894 L7.6660357,2.02264876 L6.43035243,2.69360477 C6.45408958,2.7918543 6.46666667,2.89445838 6.46666667,3 C6.46666667,3.71797017 5.88463684,4.3 5.16666667,4.3 C4.44869649,4.3 3.86666667,3.71797017 3.86666667,3 C3.86666667,2.28202983 4.44869649,1.7 5.16666667,1.7 C5.56376979,1.7 5.9192874,1.8780488 6.15774281,2.15866973 L7.37978058,1.4953367 C7.73684415,1.30150219 8.16205827,1.28659184 8.52960654,1.45060566 Z M5.16666667,2.3 C4.78006734,2.3 4.46666667,2.61340068 4.46666667,3 C4.46666667,3.38659932 4.78006734,3.7 5.16666667,3.7 C5.55326599,3.7 5.86666667,3.38659932 5.86666667,3 C5.86666667,2.61340068 5.55326599,2.3 5.16666667,2.3 Z" id="形状结合" fill="#F0BC00" fill-rule="nonzero"></path>
            <path d="M8.10216995,5.25068383 C7.52185834,5.27114157 7.05769231,5.74803156 7.05769231,6.33333333 L7.05783333,6.33966667 L6.00000704,6.33974359 C5.86193311,6.3397397 5.75,6.45166965 5.75,6.58974359 L5.75,10.5897436 C5.75,10.7278148 5.86192881,10.8397436 6,10.8397436 L10,10.8397436 C10.1380712,10.8397436 10.25,10.7278148 10.25,10.5897436 L10.25,9.66616667 C10.25,9.52618805 10.1350779,9.41348512 9.99512593,9.41621418 L9.9694849,9.41671418 C9.56014541,9.41666667 9.22435897,9.08088023 9.22435897,8.66666667 C9.22435897,8.26428778 9.54123173,7.93591849 9.93905302,7.917483 L9.99375143,7.9169109 C10.1342514,7.92045467 10.2500551,7.80752227 10.2500551,7.6669776 L10.25,6.58973081 L10.2488544,6.56565446 C10.236734,6.43888108 10.129939,6.33973896 9.99999109,6.33974359 L9.22416667,6.33966667 L9.22435897,6.33333333 C9.22435897,5.73502485 8.73933412,5.25 8.14102564,5.25 L8.10216995,5.25068383 Z M8.14102564,5.75 C8.46319175,5.75 8.72435897,6.01116723 8.72435897,6.33333333 C8.72435897,6.38285916 8.71824173,6.43135938 8.70630368,6.47815385 L8.6904276,6.53398705 C8.65465976,6.68844479 8.77186784,6.83978735 8.93416338,6.83978157 L9.75,6.83966667 L9.75,7.43683333 L9.73682986,7.43920604 C9.16006802,7.55015678 8.72435897,8.05752907 8.72435897,8.66666667 L8.72500124,8.70712184 C8.74379348,9.29815837 9.17288495,9.78564212 9.73682986,9.8941273 L9.75,9.89633333 L9.75,10.3396667 L6.25,10.3396667 L6.25,6.83966667 L7.34788976,6.83978157 C7.51018455,6.83978614 7.6273914,6.688444 7.59162366,6.53398695 L7.58578792,6.51291924 C7.5672505,6.45554539 7.55769231,6.39524061 7.55769231,6.33333333 C7.55769231,6.01116723 7.81885954,5.75 8.14102564,5.75 Z" id="形状结合" fill="#F0BC00" fill-rule="nonzero" transform="translate(8.000028, 8.044872) scale(-1, 1) rotate(45.000000) translate(-8.000028, -8.044872) "></path>
        </g>
    </g>
</svg>