<?xml version="1.0" encoding="UTF-8"?>
<svg width="16px" height="16px" viewBox="0 0 16 16" version="1.1" xmlns="http://www.w3.org/2000/svg" xmlns:xlink="http://www.w3.org/1999/xlink">
    <title>画板备份</title>
    <g id="画板备份" stroke="none" stroke-width="1" fill="none" fill-rule="evenodd">
        <g id="编组">
            <rect id="矩形" x="0" y="0" width="16" height="16"></rect>
            <path d="M12.3333333,2.7 C12.8672086,2.7 13.3,3.13279141 13.3,3.66666667 L13.3,13.6666667 C13.3,14.2005419 12.8672086,14.6333333 12.3333333,14.6333333 L4.66666667,14.6333333 C4.50098124,14.6333333 4.36666667,14.4990188 4.36666667,14.3333333 C4.36666667,14.1676479 4.50098124,14.0333333 4.66666667,14.0333333 L12.3333333,14.0333333 C12.5358377,14.0333333 12.7,13.8691711 12.7,13.6666667 L12.7,3.66666667 C12.7,3.46416226 12.5358377,3.3 12.3333333,3.3 L11.5021371,3.3 C11.3364517,3.3 11.2021371,3.16568542 11.2021371,3 C11.2021371,2.83431458 11.3364517,2.7 11.5021371,2.7 Z M8.859375,1.36666667 C8.94276406,1.36666667 9.02239058,1.40137502 9.07915125,1.46246481 L11.5531096,4.12511088 C11.6046738,4.18060788 11.6333333,4.25355796 11.6333333,4.32931274 L11.6246532,4.26139698 C11.6264803,4.26882091 11.628031,4.27635357 11.6292937,4.28398342 L11.6333333,4.32931274 L11.6333333,12.3333333 C11.6333333,12.8672086 11.2005419,13.3 10.6666667,13.3 L3.66666667,13.3 C3.13279141,13.3 2.7,12.8672086 2.7,12.3333333 L2.7,2.3 C2.7,1.78453423 3.11786757,1.36666667 3.63333333,1.36666667 Z M8.533,1.96566667 L3.63333333,1.96666667 C3.44923842,1.96666667 3.3,2.11590508 3.3,2.3 L3.3,12.3333333 C3.3,12.5358377 3.46416226,12.7 3.66666667,12.7 L10.6666667,12.7 C10.8691711,12.7 11.0333333,12.5358377 11.0333333,12.3333333 L11.033,4.63266667 L9.46666667,4.63333333 C8.9512009,4.63333333 8.53333333,4.21546577 8.53333333,3.7 L8.533,1.96566667 Z M10.648,4.03266667 L9.133,2.40166667 L9.13333333,3.7 C9.13333333,3.88409492 9.28257175,4.03333333 9.46666667,4.03333333 L10.648,4.03266667 Z" id="形状结合" fill="#E78900" fill-rule="nonzero"></path>
            <path d="M9.83333333,6.83333333 C10.1094757,6.83333333 10.3333333,7.05719096 10.3333333,7.33333333 C10.3333333,7.60947571 10.1094757,7.83333333 9.83333333,7.83333333 C9.77666098,7.83333333 9.72219079,7.82390471 9.67140586,7.80653054 L8.31491436,8.80160023 C8.25603087,9.01219544 8.06272144,9.16666667 7.83333333,9.16666667 C7.55719096,9.16666667 7.33333333,8.94280904 7.33333333,8.66666667 L7.33633333,8.70733333 L6.22130402,7.78181515 C6.1803511,7.80206205 6.13622644,7.81686475 6.08987563,7.82527766 L6,7.83333333 C5.9185734,7.83333333 5.84169293,7.81386905 5.77375753,7.77933943 L4.83333333,8.33033333 C4.83333333,8.57879322 4.65645817,8.7829417 4.42320897,8.82527766 L4.33333333,8.83333333 C4.05719096,8.83333333 3.83333333,8.60947571 3.83333333,8.33333333 C3.83333333,8.05719096 4.05719096,7.83333333 4.33333333,7.83333333 C4.42341397,7.83333333 4.50793079,7.85715481 4.58092797,7.89884191 L5.50133333,7.35733333 L5.5,7.33333333 C5.5,7.08787344 5.67687516,6.88372496 5.91012437,6.841389 L6,6.83333333 C6.27614237,6.83333333 6.5,7.05719096 6.5,7.33333333 C6.5,7.34229676 6.49976414,7.35120509 6.49929829,7.36005247 L7.56322685,8.24582998 C7.64112355,8.1957298 7.73383441,8.16666667 7.83333333,8.16666667 C7.95958422,8.16666667 8.07490617,8.21345899 8.16290263,8.29064709 L9.34215288,7.42731925 C9.33636324,7.3968784 9.33333333,7.3654597 9.33333333,7.33333333 C9.33333333,7.05719096 9.55719096,6.83333333 9.83333333,6.83333333 Z" id="形状结合" fill="#E78900" fill-rule="nonzero"></path>
        </g>
    </g>
</svg>