<!-- Generated by IcoMoon.io -->
<svg version="1.1" xmlns="http://www.w3.org/2000/svg" width="32" height="32" viewBox="0 0 32 32">
<path fill="#e78900" d="M24.667 5.4c1.068 0 1.933 0.866 1.933 1.933v20c0 1.068-0.866 1.933-1.933 1.933h-15.333c-0.331 0-0.6-0.269-0.6-0.6s0.269-0.6 0.6-0.6h15.333c0.405 0 0.733-0.328 0.733-0.733v-20c0-0.405-0.328-0.733-0.733-0.733h-1.662c-0.331 0-0.6-0.269-0.6-0.6s0.269-0.6 0.6-0.6zM17.719 2.733c0.167 0 0.326 0.069 0.44 0.192l4.948 5.325c0.103 0.111 0.16 0.257 0.16 0.408l-0.017-0.136c0.004 0.015 0.007 0.030 0.009 0.045l0.008 0.091v16.008c0 1.068-0.866 1.933-1.933 1.933h-14c-1.068 0-1.933-0.866-1.933-1.933v-20.067c0-1.031 0.836-1.867 1.867-1.867zM17.066 3.931l-9.799 0.002c-0.368 0-0.667 0.298-0.667 0.667v20.067c0 0.405 0.328 0.733 0.733 0.733h14c0.405 0 0.733-0.328 0.733-0.733l-0.001-15.401-3.133 0.001c-1.031 0-1.867-0.836-1.867-1.867l-0.001-3.469zM21.296 8.065l-3.030-3.262 0.001 2.597c0 0.368 0.298 0.667 0.667 0.667l2.363-0.001z"></path>
<path fill="#e78900" d="M19.667 13.667c0.552 0 1 0.448 1 1s-0.448 1-1 1c-0.113 0-0.222-0.019-0.324-0.054l-2.713 1.99c-0.118 0.421-0.504 0.73-0.963 0.73-0.552 0-1-0.448-1-1l0.006 0.081-2.23-1.851c-0.082 0.040-0.17 0.070-0.263 0.087l-0.18 0.016c-0.163 0-0.317-0.039-0.453-0.108l-1.881 1.102c0 0.497-0.354 0.905-0.82 0.99l-0.18 0.016c-0.552 0-1-0.448-1-1s0.448-1 1-1c0.18 0 0.349 0.048 0.495 0.131l1.841-1.083-0.003-0.048c0-0.491 0.354-0.899 0.82-0.984l0.18-0.016c0.552 0 1 0.448 1 1 0 0.018-0 0.036-0.001 0.053l2.128 1.772c0.156-0.1 0.341-0.158 0.54-0.158 0.252 0 0.483 0.094 0.659 0.248l2.358-1.727c-0.012-0.061-0.018-0.124-0.018-0.188 0-0.552 0.448-1 1-1z"></path>
</svg>
