<?xml version="1.0" encoding="UTF-8"?>
<svg width="12px" height="12px" viewBox="0 0 12 12" version="1.1" xmlns="http://www.w3.org/2000/svg" xmlns:xlink="http://www.w3.org/1999/xlink">
    <title>画板</title>
    <g id="画板" stroke="none" stroke-width="1" fill="none" fill-rule="evenodd">
        <g id="icon更多备份">
            <polygon id="矩形" points="12 0 12 12 0 12 0 0"></polygon>
            <path d="M6,5.125 C6.48324916,5.125 6.875,5.51675085 6.875,6 C6.875,6.48324915 6.48324916,6.875 6,6.875 C5.51675084,6.875 5.125,6.48324915 5.125,6 C5.125,5.51675085 5.51675084,5.125 6,5.125 Z M2.375,5.125 C2.85824916,5.125 3.25,5.51675085 3.25,6 C3.25,6.48324915 2.85824916,6.875 2.375,6.875 C1.89175084,6.875 1.5,6.48324915 1.5,6 C1.5,5.51675085 1.89175084,5.125 2.375,5.125 Z M9.625,5.125 C10.1082492,5.125 10.5,5.51675085 10.5,6 C10.5,6.48324915 10.1082492,6.875 9.625,6.875 C9.14175085,6.875 8.75,6.48324915 8.75,6 C8.75,5.51675085 9.14175085,5.125 9.625,5.125 Z" id="形状结合" fill-opacity="0.8" fill="#000000"></path>
        </g>
    </g>
</svg>