<svg version="1.1" xmlns="http://www.w3.org/2000/svg" width="32" height="32" viewBox="0 0 32 32">
<path fill="currentColor" d="M16 0.48c-0.699 0-1.39 0.046-2.070 0.138-0.824 0.112-1.243 1.050-0.777 1.738 1.12 1.653 1.727 3.602 1.727 5.644 0 5.567-4.513 10.080-10.080 10.080-0.9 0-1.783-0.118-2.632-0.348-0.802-0.218-1.553 0.483-1.392 1.298 1.428 7.214 7.782 12.49 15.224 12.49 8.571 0 15.52-6.949 15.52-15.52s-6.949-15.52-15.52-15.52zM15.932 2.722l0.068-0.002c7.334 0 13.28 5.946 13.28 13.28s-5.946 13.28-13.28 13.28l-0.423-0.007c-5.481-0.173-10.209-3.689-12.045-8.687l-0.122-0.348 0.298 0.034c0.361 0.032 0.725 0.048 1.092 0.048 6.804 0 12.32-5.516 12.32-12.32l-0.011-0.532c-0.068-1.592-0.439-3.132-1.083-4.551l-0.093-0.194z"></path>
</svg>
