<svg version="1.1" xmlns="http://www.w3.org/2000/svg" width="32" height="32" viewBox="0 0 32 32">
<path d="M7 12.5v-1c0-0.276 0.224-0.5 0.5-0.5h3c0.276 0 0.5-0.224 0.5-0.5v-3c0-0.276 0.224-0.5 0.5-0.5h1c0.276 0 0.5 0.224 0.5 0.5v5c0 0.276-0.224 0.5-0.5 0.5h-5c-0.276 0-0.5-0.224-0.5-0.5zM25 12.5v-1c0-0.276-0.224-0.5-0.5-0.5h-3c-0.276 0-0.5-0.224-0.5-0.5v-3c0-0.276-0.224-0.5-0.5-0.5h-1c-0.276 0-0.5 0.224-0.5 0.5v5c0 0.276 0.224 0.5 0.5 0.5h5c0.276 0 0.5-0.224 0.5-0.5zM7 19.5v-1c0-0.276 0.224-0.5 0.5-0.5h5c0.276 0 0.5 0.224 0.5 0.5v5c0 0.276-0.224 0.5-0.5 0.5h-1c-0.276 0-0.5-0.224-0.5-0.5v-3c0-0.276-0.224-0.5-0.5-0.5h-3c-0.276 0-0.5-0.224-0.5-0.5zM25 19.5v-1c0-0.276-0.224-0.5-0.5-0.5h-5c-0.276 0-0.5 0.224-0.5 0.5v5c0 0.276 0.224 0.5 0.5 0.5h1c0.276 0 0.5-0.224 0.5-0.5v-3c0-0.276 0.224-0.5 0.5-0.5h3c0.276 0 0.5-0.224 0.5-0.5z"></path>
</svg>
