<?xml version="1.0" encoding="UTF-8"?>
<svg width="24px" height="24px" viewBox="0 0 24 24" version="1.1" xmlns="http://www.w3.org/2000/svg" xmlns:xlink="http://www.w3.org/1999/xlink">
    <title>画板</title>
    <g id="画板" stroke="none" stroke-width="1" fill="none" fill-rule="evenodd">
        <g id="编组-103备份-11">
            <rect id="矩形" x="0" y="0" width="24" height="24"></rect>
            <g id="GitHub2">
                <rect id="矩形" x="0" y="0" width="24" height="24"></rect>
                <path d="M12,22 C6.47722656,22 2,17.5227734 2,12 C2,6.47722656 6.47722656,2 12,2 C17.5227734,2 22,6.47722656 22,12 C22,17.5227734 17.5227734,22 12,22 Z M17.0616602,10.8888867 L11.3827734,10.8891602 C11.11,10.8891602 10.8888867,11.1102734 10.8888867,11.3827734 L10.8883398,12.6175 C10.8883398,12.8902734 11.1091602,13.1113867 11.3819531,13.1113867 L14.8394531,13.1113867 C15.1122266,13.1113867 15.3333398,13.3322266 15.3333398,13.605 L15.3333398,13.8519531 C15.3333398,14.6701004 14.6701004,15.3333398 13.8519531,15.3333398 L9.16027344,15.3333398 C8.88761408,15.3333399 8.66653768,15.1123859 8.66638672,14.8397266 L8.66638672,10.1483203 C8.66639751,9.33018065 9.32963377,8.66695312 10.1477734,8.66695313 L17.0602734,8.66666016 C17.3330469,8.66666016 17.5538867,8.44583984 17.5541602,8.17304688 L17.5555469,6.93888672 C17.5555469,6.66611328 17.3347266,6.445 17.0619531,6.44472656 L10.1480469,6.445 C8.10277344,6.44472656 6.44445312,8.10304688 6.44445312,10.1483203 L6.44445312,17.0616602 C6.44445312,17.3344531 6.66554687,17.5555469 6.93833984,17.5555469 L14.2222266,17.5555469 C16.0633398,17.5555469 17.5555469,16.0633398 17.5555469,14.2222266 L17.5555469,11.3827734 C17.5555469,11.1102734 17.3344531,10.8891602 17.0616602,10.8891602 L17.0616602,10.8888867 Z" id="形状" fill="#C71D23" fill-rule="nonzero"></path>
            </g>
        </g>
    </g>
</svg>