<?xml version="1.0" encoding="UTF-8"?>
<svg width="24px" height="24px" viewBox="0 0 24 24" version="1.1" xmlns="http://www.w3.org/2000/svg" xmlns:xlink="http://www.w3.org/1999/xlink">
    <title>画板</title>
    <g id="画板" stroke="none" stroke-width="1" fill="none" fill-rule="evenodd">
        <g id="编组-109" transform="translate(0.000000, 0.000000)">
            <rect id="矩形" x="0" y="0" width="24" height="24"></rect>
            <path d="M19.730196,3.75903509 C20.8347655,3.75903509 21.730196,4.65446559 21.730196,5.75903509 L21.730196,11.2494269 C21.730196,11.6360262 21.4167954,11.9494269 21.030196,11.9494269 C20.6435967,11.9494269 20.330196,11.6360262 20.330196,11.2494269 L20.3293661,6.00103509 L13.2335012,11.8724949 C12.4849804,12.4917933 11.3996773,12.4836185 10.6605704,11.8531147 L3.56136615,5.79703509 L3.56136615,18.2997267 C3.56136615,18.6310975 3.8299953,18.8997267 4.16136615,18.8997267 L19.730196,18.8997267 C20.0615669,18.8997267 20.330196,18.6310975 20.330196,18.2997267 L20.330196,14.2535389 C20.330196,13.8669396 20.6435967,13.5535389 21.030196,13.5535389 C21.4167954,13.5535389 21.730196,13.8669396 21.730196,14.2535389 L21.730196,18.2997267 C21.730196,19.4042962 20.8347655,20.2997267 19.730196,20.2997267 L4.16136615,20.2997267 C3.05679665,20.2997267 2.16136615,19.4042962 2.16136615,18.2997267 L2.16136615,5.75903509 C2.16136615,4.65446559 3.05679665,3.75903509 4.16136615,3.75903509 L19.730196,3.75903509 Z M19.1513661,5.15803509 L4.96936615,5.15803509 L11.56917,10.7880106 C11.7909021,10.9771617 12.116493,10.9796142 12.3410492,10.7938246 L19.1513661,5.15803509 Z" id="形状结合" fill-opacity="0.8" fill="#000000" fill-rule="nonzero"></path>
        </g>
    </g>
</svg>