
<svg version="1.1" xmlns="http://www.w3.org/2000/svg" width="24" height="24" viewBox="0 0 24 24">
<path d="M11 2.050c0.782 0 1.42 0.619 1.449 1.394l0.001 0.056v0.662c0 0.249-0.201 0.45-0.45 0.45-0.236 0-0.43-0.182-0.449-0.413l-0.002-0.037v-0.662c0-0.291-0.225-0.528-0.511-0.549l-0.039-0.001h-5c-0.291 0-0.528 0.225-0.549 0.511l-0.001 0.039v13c0 0.291 0.225 0.528 0.511 0.549l0.039 0.001h5.55v-10.761c0-0.236 0.182-0.43 0.413-0.449l0.037-0.001c0.236 0 0.43 0.182 0.449 0.413l0.002 0.037v11.211c0 0.236-0.182 0.43-0.413 0.448l-0.037 0.002h-6c-0.782 0-1.42-0.619-1.449-1.394l-0.001-0.056v-13c0-0.782 0.619-1.42 1.394-1.449l0.056-0.001h5z"></path>
<path d="M11.55 8.452v9.048c0 0.249 0.201 0.45 0.45 0.45h6c0.801 0 1.45-0.649 1.45-1.45v-4.642c0-0.598-0.367-1.135-0.925-1.351l-6.362-2.474c-0.295-0.115-0.613 0.103-0.613 0.419zM12.45 17.050v-7.94l5.749 2.235c0.211 0.082 0.351 0.286 0.351 0.513v4.642l-0.001 0.039c-0.020 0.285-0.258 0.511-0.549 0.511l-5.55-0z"></path>
<path d="M20.691 13.885c0.169-0.183 0.453-0.194 0.636-0.025 0.888 0.821 1.373 1.766 1.373 2.765 0 3.164-4.822 5.575-10.7 5.575s-10.7-2.411-10.7-5.575c0-0.998 0.484-1.942 1.37-2.763 0.182-0.169 0.467-0.158 0.636 0.025s0.158 0.467-0.025 0.636c-0.715 0.661-1.081 1.378-1.081 2.102 0 2.497 4.356 4.675 9.8 4.675s9.8-2.178 9.8-4.675c0-0.725-0.368-1.442-1.084-2.104-0.183-0.169-0.194-0.453-0.025-0.636z"></path>
<path d="M10.223 4.875c0.207 0 0.375 0.168 0.375 0.375 0 0.195-0.149 0.355-0.339 0.373l-0.036 0.002h-3.5c-0.207 0-0.375-0.168-0.375-0.375 0-0.195 0.149-0.355 0.339-0.373l0.036-0.002h3.5z"></path>
<path fill="#36f" d="M10.223 7.406c0.207 0 0.375 0.168 0.375 0.375 0 0.195-0.149 0.355-0.339 0.373l-0.036 0.002h-3.5c-0.207 0-0.375-0.168-0.375-0.375 0-0.195 0.149-0.355 0.339-0.373l0.036-0.002h3.5z"></path>
<path d="M10.223 9.938c0.207 0 0.375 0.168 0.375 0.375 0 0.195-0.149 0.355-0.339 0.373l-0.036 0.002h-3.5c-0.207 0-0.375-0.168-0.375-0.375 0-0.195 0.149-0.355 0.339-0.373l0.036-0.002h3.5z"></path>
<path fill="#36f" d="M10.223 12.469c0.207 0 0.375 0.168 0.375 0.375 0 0.195-0.149 0.355-0.339 0.373l-0.036 0.002h-3.5c-0.207 0-0.375-0.168-0.375-0.375 0-0.195 0.149-0.355 0.339-0.373l0.036-0.002h3.5z"></path>
<path fill="#36f" d="M17.223 12.375c0.207 0 0.375 0.168 0.375 0.375 0 0.195-0.149 0.355-0.339 0.373l-0.036 0.002h-3.5c-0.207 0-0.375-0.168-0.375-0.375 0-0.195 0.149-0.355 0.339-0.373l0.036-0.002h3.5z"></path>
<path fill="#36f" d="M10.223 15c0.207 0 0.375 0.168 0.375 0.375 0 0.195-0.149 0.355-0.339 0.373l-0.036 0.002h-3.5c-0.207 0-0.375-0.168-0.375-0.375 0-0.195 0.149-0.355 0.339-0.373l0.036-0.002h3.5z"></path>
<path d="M17.223 14.875c0.207 0 0.375 0.168 0.375 0.375 0 0.195-0.149 0.355-0.339 0.373l-0.036 0.002h-3.5c-0.207 0-0.375-0.168-0.375-0.375 0-0.195 0.149-0.355 0.339-0.373l0.036-0.002h3.5z"></path>
</svg>
